<svg xmlns="http://www.w3.org/2000/svg" xmlns:xlink="http://www.w3.org/1999/xlink" width="500" zoomAndPan="magnify" viewBox="0 0 375 374.999991" height="500" preserveAspectRatio="xMidYMid meet" version="1.0"><defs><clipPath id="1380c8c480"><path d="M 79 80 L 296 80 L 296 296.183594 L 79 296.183594 Z M 79 80 " clip-rule="nonzero"/></clipPath></defs><g clip-path="url(#1380c8c480)"><path fill="#896dd5" d="M 217.9375 188.601562 L 288.921875 117.617188 C 297.339844 109.207031 297.339844 95.5625 288.921875 87.144531 C 280.503906 78.730469 266.875 78.730469 258.457031 87.144531 L 187.472656 158.128906 L 116.488281 87.148438 C 108.078125 78.730469 94.429688 78.730469 86.011719 87.148438 C 77.601562 95.5625 77.601562 109.207031 86.011719 117.625 L 156.996094 188.601562 L 85.839844 259.757812 C 77.429688 268.167969 77.429688 281.816406 85.839844 290.226562 C 90.042969 294.4375 95.5625 296.539062 101.074219 296.539062 C 106.582031 296.539062 112.105469 294.4375 116.316406 290.226562 L 187.464844 219.078125 L 258.441406 290.054688 C 262.648438 294.265625 268.167969 296.367188 273.675781 296.367188 C 279.183594 296.367188 284.699219 294.265625 288.910156 290.054688 C 297.328125 281.644531 297.328125 267.996094 288.910156 259.585938 Z M 217.9375 188.601562 " fill-opacity="1" fill-rule="nonzero"/></g></svg>