<svg xmlns="http://www.w3.org/2000/svg" xmlns:xlink="http://www.w3.org/1999/xlink" width="500" zoomAndPan="magnify" viewBox="0 0 375 374.999991" height="500" preserveAspectRatio="xMidYMid meet" version="1.0"><defs><clipPath id="c27ee5f13b"><path d="M 102.121094 91.070312 L 273.121094 91.070312 L 273.121094 319 L 102.121094 319 Z M 102.121094 91.070312 " clip-rule="nonzero"/></clipPath></defs><g clip-path="url(#c27ee5f13b)"><path fill="#896dd5" d="M 260.949219 117.558594 L 230.347656 117.558594 L 230.347656 103.507812 C 230.347656 102.710938 230.269531 101.917969 230.113281 101.136719 C 229.957031 100.351562 229.722656 99.59375 229.417969 98.855469 C 229.113281 98.117188 228.738281 97.417969 228.292969 96.753906 C 227.847656 96.089844 227.34375 95.472656 226.78125 94.910156 C 226.214844 94.34375 225.601562 93.839844 224.9375 93.398438 C 224.273438 92.953125 223.574219 92.578125 222.835938 92.273438 C 222.097656 91.964844 221.335938 91.734375 220.554688 91.578125 C 219.769531 91.421875 218.980469 91.34375 218.179688 91.34375 L 157.222656 91.34375 C 156.421875 91.34375 155.632812 91.421875 154.847656 91.578125 C 154.066406 91.734375 153.304688 91.964844 152.566406 92.273438 C 151.828125 92.578125 151.128906 92.953125 150.464844 93.398438 C 149.800781 93.839844 149.1875 94.34375 148.621094 94.910156 C 148.058594 95.472656 147.550781 96.089844 147.109375 96.753906 C 146.664062 97.417969 146.289062 98.117188 145.984375 98.855469 C 145.675781 99.59375 145.445312 100.351562 145.289062 101.136719 C 145.132812 101.917969 145.054688 102.710938 145.054688 103.507812 L 145.054688 117.558594 L 114.449219 117.558594 C 113.652344 117.558594 112.859375 117.636719 112.078125 117.792969 C 111.292969 117.953125 110.535156 118.183594 109.796875 118.488281 C 109.058594 118.792969 108.359375 119.167969 107.695312 119.613281 C 107.03125 120.058594 106.414062 120.5625 105.851562 121.125 C 105.285156 121.691406 104.78125 122.304688 104.335938 122.96875 C 103.894531 123.632812 103.519531 124.335938 103.210938 125.070312 C 102.90625 125.808594 102.675781 126.570312 102.519531 127.355469 C 102.363281 128.136719 102.285156 128.929688 102.28125 129.726562 L 102.28125 138.648438 C 102.296875 139.105469 102.332031 139.5625 102.394531 140.015625 C 102.457031 140.46875 102.542969 140.917969 102.652344 141.363281 C 102.761719 141.804688 102.894531 142.242188 103.054688 142.671875 C 103.210938 143.101562 103.390625 143.519531 103.59375 143.929688 C 103.792969 144.34375 104.019531 144.738281 104.265625 145.125 C 104.507812 145.511719 104.773438 145.882812 105.0625 146.242188 C 105.347656 146.597656 105.648438 146.941406 105.972656 147.265625 C 106.292969 147.589844 106.632812 147.894531 106.988281 148.183594 C 107.34375 148.472656 107.714844 148.738281 108.097656 148.988281 C 108.484375 149.234375 108.878906 149.464844 109.289062 149.667969 C 109.695312 149.875 110.113281 150.058594 110.542969 150.21875 C 110.972656 150.378906 111.40625 150.515625 111.851562 150.628906 C 112.292969 150.742188 112.742188 150.832031 113.195312 150.894531 C 113.648438 150.960938 114.101562 151 114.558594 151.015625 C 115.015625 151.03125 115.472656 151.023438 115.929688 150.992188 C 116.386719 150.957031 116.839844 150.898438 117.289062 150.816406 L 124.46875 299.171875 C 124.5 299.816406 124.558594 300.457031 124.652344 301.09375 C 124.742188 301.730469 124.863281 302.363281 125.015625 302.988281 C 125.167969 303.613281 125.347656 304.230469 125.558594 304.839844 C 125.769531 305.449219 126.007812 306.046875 126.277344 306.632812 C 126.542969 307.21875 126.839844 307.789062 127.160156 308.347656 C 127.484375 308.90625 127.832031 309.445312 128.207031 309.96875 C 128.578125 310.496094 128.976562 311 129.398438 311.488281 C 129.820312 311.972656 130.265625 312.4375 130.730469 312.882812 C 131.199219 313.328125 131.683594 313.75 132.191406 314.144531 C 132.695312 314.542969 133.222656 314.917969 133.761719 315.265625 C 134.304688 315.613281 134.863281 315.933594 135.433594 316.226562 C 136.007812 316.523438 136.59375 316.789062 137.191406 317.027344 C 137.789062 317.265625 138.398438 317.476562 139.015625 317.65625 C 139.632812 317.839844 140.257812 317.988281 140.890625 318.109375 C 141.523438 318.230469 142.160156 318.324219 142.800781 318.382812 C 143.441406 318.445312 144.085938 318.472656 144.730469 318.472656 L 230.671875 318.472656 C 231.316406 318.472656 231.957031 318.445312 232.597656 318.382812 C 233.238281 318.324219 233.875 318.230469 234.507812 318.109375 C 235.140625 317.988281 235.765625 317.839844 236.382812 317.65625 C 237.003906 317.476562 237.609375 317.265625 238.207031 317.027344 C 238.804688 316.789062 239.390625 316.523438 239.964844 316.226562 C 240.535156 315.933594 241.09375 315.609375 241.636719 315.261719 C 242.175781 314.914062 242.703125 314.542969 243.207031 314.144531 C 243.714844 313.746094 244.199219 313.324219 244.667969 312.882812 C 245.132812 312.4375 245.578125 311.972656 246 311.484375 C 246.421875 311 246.816406 310.492188 247.191406 309.96875 C 247.566406 309.445312 247.914062 308.902344 248.234375 308.347656 C 248.558594 307.789062 248.851562 307.21875 249.121094 306.632812 C 249.386719 306.046875 249.625 305.449219 249.835938 304.839844 C 250.046875 304.230469 250.226562 303.613281 250.378906 302.988281 C 250.53125 302.363281 250.652344 301.730469 250.746094 301.09375 C 250.835938 300.457031 250.898438 299.816406 250.925781 299.171875 L 258.105469 150.816406 C 258.554688 150.898438 259.007812 150.957031 259.464844 150.988281 C 259.921875 151.023438 260.378906 151.03125 260.835938 151.015625 C 261.292969 151 261.75 150.960938 262.199219 150.894531 C 262.652344 150.828125 263.101562 150.738281 263.546875 150.625 C 263.988281 150.511719 264.425781 150.375 264.851562 150.214844 C 265.28125 150.054688 265.699219 149.871094 266.109375 149.667969 C 266.515625 149.460938 266.914062 149.234375 267.296875 148.988281 C 267.683594 148.738281 268.050781 148.46875 268.40625 148.183594 C 268.761719 147.894531 269.101562 147.585938 269.421875 147.261719 C 269.746094 146.9375 270.050781 146.597656 270.335938 146.238281 C 270.621094 145.882812 270.886719 145.511719 271.132812 145.125 C 271.378906 144.738281 271.601562 144.339844 271.804688 143.929688 C 272.007812 143.519531 272.1875 143.101562 272.34375 142.671875 C 272.5 142.242188 272.632812 141.804688 272.746094 141.359375 C 272.855469 140.917969 272.941406 140.46875 273 140.015625 C 273.0625 139.5625 273.101562 139.105469 273.113281 138.648438 L 273.113281 129.726562 C 273.113281 128.925781 273.035156 128.136719 272.878906 127.351562 C 272.722656 126.570312 272.488281 125.808594 272.183594 125.074219 C 271.878906 124.335938 271.503906 123.632812 271.058594 122.96875 C 270.617188 122.308594 270.109375 121.691406 269.546875 121.128906 C 268.980469 120.5625 268.367188 120.058594 267.703125 119.613281 C 267.039062 119.171875 266.339844 118.796875 265.601562 118.488281 C 264.867188 118.183594 264.105469 117.953125 263.320312 117.796875 C 262.539062 117.640625 261.75 117.558594 260.949219 117.558594 Z M 153.164062 103.507812 C 153.167969 103.242188 153.191406 102.980469 153.246094 102.71875 C 153.296875 102.457031 153.375 102.203125 153.476562 101.957031 C 153.578125 101.710938 153.703125 101.476562 153.851562 101.257812 C 154 101.035156 154.167969 100.832031 154.355469 100.644531 C 154.542969 100.453125 154.746094 100.285156 154.96875 100.136719 C 155.191406 99.992188 155.425781 99.867188 155.671875 99.761719 C 155.917969 99.660156 156.167969 99.585938 156.429688 99.53125 C 156.691406 99.480469 156.957031 99.453125 157.222656 99.453125 L 218.179688 99.453125 C 218.445312 99.453125 218.707031 99.480469 218.96875 99.53125 C 219.230469 99.585938 219.484375 99.660156 219.730469 99.761719 C 219.976562 99.867188 220.210938 99.992188 220.429688 100.136719 C 220.652344 100.285156 220.859375 100.453125 221.046875 100.644531 C 221.234375 100.832031 221.402344 101.035156 221.550781 101.257812 C 221.699219 101.476562 221.824219 101.710938 221.925781 101.957031 C 222.027344 102.203125 222.105469 102.457031 222.15625 102.71875 C 222.207031 102.980469 222.234375 103.242188 222.234375 103.507812 L 222.234375 117.558594 L 153.164062 117.558594 Z M 242.824219 298.785156 C 242.785156 299.558594 242.675781 300.320312 242.496094 301.074219 C 242.3125 301.824219 242.0625 302.554688 241.738281 303.257812 C 241.417969 303.960938 241.03125 304.628906 240.582031 305.261719 C 240.132812 305.890625 239.628906 306.472656 239.066406 307.007812 C 238.507812 307.542969 237.902344 308.019531 237.25 308.4375 C 236.597656 308.855469 235.914062 309.207031 235.191406 309.496094 C 234.472656 309.78125 233.734375 310 232.972656 310.144531 C 232.214844 310.289062 231.445312 310.363281 230.671875 310.359375 L 144.730469 310.359375 C 143.953125 310.363281 143.1875 310.289062 142.425781 310.144531 C 141.667969 309.996094 140.925781 309.78125 140.207031 309.496094 C 139.488281 309.207031 138.800781 308.855469 138.152344 308.4375 C 137.5 308.015625 136.894531 307.542969 136.332031 307.007812 C 135.773438 306.472656 135.265625 305.890625 134.816406 305.257812 C 134.367188 304.628906 133.984375 303.960938 133.660156 303.257812 C 133.339844 302.550781 133.085938 301.824219 132.90625 301.070312 C 132.722656 300.316406 132.613281 299.554688 132.578125 298.78125 L 125.417969 150.816406 L 249.984375 150.816406 Z M 265.007812 138.648438 C 265.003906 138.914062 264.980469 139.179688 264.925781 139.4375 C 264.875 139.699219 264.796875 139.953125 264.695312 140.199219 C 264.59375 140.445312 264.46875 140.679688 264.320312 140.902344 C 264.171875 141.121094 264.003906 141.328125 263.816406 141.515625 C 263.628906 141.703125 263.421875 141.871094 263.203125 142.019531 C 262.980469 142.167969 262.746094 142.292969 262.5 142.394531 C 262.253906 142.496094 262.003906 142.574219 261.742188 142.625 C 261.480469 142.679688 261.214844 142.703125 260.949219 142.703125 L 114.449219 142.703125 C 114.183594 142.703125 113.921875 142.679688 113.660156 142.625 C 113.398438 142.574219 113.144531 142.496094 112.898438 142.394531 C 112.652344 142.292969 112.417969 142.167969 112.199219 142.019531 C 111.976562 141.871094 111.773438 141.703125 111.582031 141.515625 C 111.394531 141.328125 111.226562 141.121094 111.078125 140.902344 C 110.929688 140.679688 110.804688 140.445312 110.703125 140.199219 C 110.601562 139.953125 110.527344 139.699219 110.472656 139.4375 C 110.421875 139.179688 110.394531 138.914062 110.394531 138.648438 L 110.394531 129.726562 C 110.394531 129.460938 110.421875 129.195312 110.472656 128.933594 C 110.523438 128.671875 110.601562 128.417969 110.703125 128.175781 C 110.804688 127.929688 110.929688 127.695312 111.078125 127.472656 C 111.226562 127.25 111.394531 127.046875 111.582031 126.859375 C 111.773438 126.671875 111.976562 126.503906 112.199219 126.355469 C 112.417969 126.207031 112.652344 126.082031 112.898438 125.980469 C 113.144531 125.878906 113.398438 125.800781 113.660156 125.746094 C 113.921875 125.695312 114.183594 125.667969 114.449219 125.667969 L 260.949219 125.667969 C 261.214844 125.667969 261.480469 125.695312 261.742188 125.746094 C 262.003906 125.800781 262.253906 125.878906 262.5 125.980469 C 262.746094 126.082031 262.980469 126.207031 263.203125 126.355469 C 263.421875 126.503906 263.628906 126.671875 263.816406 126.859375 C 264.003906 127.046875 264.171875 127.25 264.320312 127.472656 C 264.46875 127.695312 264.59375 127.929688 264.695312 128.175781 C 264.796875 128.417969 264.875 128.671875 264.925781 128.933594 C 264.980469 129.195312 265.003906 129.460938 265.007812 129.726562 Z M 265.007812 138.648438 " fill-opacity="1" fill-rule="nonzero"/></g><path fill="#896dd5" d="M 187.699219 276.558594 C 187.964844 276.558594 188.230469 276.53125 188.492188 276.480469 C 188.753906 276.429688 189.007812 276.351562 189.253906 276.25 C 189.5 276.148438 189.730469 276.023438 189.953125 275.875 C 190.175781 275.726562 190.378906 275.558594 190.566406 275.371094 C 190.757812 275.183594 190.925781 274.976562 191.074219 274.757812 C 191.21875 274.535156 191.34375 274.300781 191.449219 274.054688 C 191.550781 273.808594 191.625 273.554688 191.679688 273.292969 C 191.730469 273.035156 191.757812 272.769531 191.757812 272.503906 L 191.757812 188.675781 C 191.757812 188.40625 191.730469 188.144531 191.679688 187.882812 C 191.625 187.621094 191.550781 187.367188 191.449219 187.121094 C 191.34375 186.875 191.21875 186.640625 191.074219 186.421875 C 190.925781 186.199219 190.757812 185.996094 190.566406 185.804688 C 190.378906 185.617188 190.175781 185.449219 189.953125 185.300781 C 189.730469 185.152344 189.5 185.027344 189.253906 184.925781 C 189.007812 184.824219 188.753906 184.746094 188.492188 184.695312 C 188.230469 184.644531 187.964844 184.617188 187.699219 184.617188 C 187.433594 184.617188 187.171875 184.644531 186.910156 184.695312 C 186.648438 184.746094 186.394531 184.824219 186.148438 184.925781 C 185.902344 185.027344 185.667969 185.152344 185.445312 185.300781 C 185.226562 185.449219 185.019531 185.617188 184.832031 185.804688 C 184.644531 185.996094 184.476562 186.199219 184.328125 186.421875 C 184.179688 186.640625 184.054688 186.875 183.953125 187.121094 C 183.851562 187.367188 183.773438 187.621094 183.722656 187.882812 C 183.671875 188.144531 183.644531 188.40625 183.644531 188.675781 L 183.644531 272.503906 C 183.644531 272.769531 183.671875 273.035156 183.722656 273.292969 C 183.773438 273.554688 183.851562 273.808594 183.953125 274.054688 C 184.054688 274.300781 184.179688 274.535156 184.328125 274.757812 C 184.476562 274.976562 184.644531 275.183594 184.832031 275.371094 C 185.019531 275.558594 185.226562 275.726562 185.445312 275.875 C 185.667969 276.023438 185.902344 276.148438 186.148438 276.25 C 186.394531 276.351562 186.648438 276.429688 186.910156 276.480469 C 187.171875 276.53125 187.433594 276.558594 187.699219 276.558594 Z M 187.699219 276.558594 " fill-opacity="1" fill-rule="nonzero"/><path fill="#896dd5" d="M 220.148438 276.558594 C 220.414062 276.558594 220.675781 276.53125 220.9375 276.480469 C 221.199219 276.429688 221.453125 276.351562 221.699219 276.25 C 221.945312 276.148438 222.179688 276.023438 222.402344 275.875 C 222.621094 275.726562 222.828125 275.558594 223.015625 275.371094 C 223.203125 275.183594 223.371094 274.976562 223.519531 274.757812 C 223.667969 274.535156 223.792969 274.300781 223.894531 274.054688 C 223.996094 273.808594 224.074219 273.554688 224.125 273.292969 C 224.175781 273.035156 224.203125 272.769531 224.203125 272.503906 L 224.203125 188.675781 C 224.203125 188.40625 224.175781 188.144531 224.125 187.882812 C 224.074219 187.621094 223.996094 187.367188 223.894531 187.121094 C 223.792969 186.875 223.667969 186.640625 223.519531 186.421875 C 223.371094 186.199219 223.203125 185.996094 223.015625 185.804688 C 222.828125 185.617188 222.621094 185.449219 222.402344 185.300781 C 222.179688 185.152344 221.945312 185.027344 221.699219 184.925781 C 221.453125 184.824219 221.199219 184.746094 220.9375 184.695312 C 220.675781 184.644531 220.414062 184.617188 220.148438 184.617188 C 219.882812 184.617188 219.617188 184.644531 219.355469 184.695312 C 219.09375 184.746094 218.839844 184.824219 218.59375 184.925781 C 218.347656 185.027344 218.117188 185.152344 217.894531 185.300781 C 217.671875 185.449219 217.46875 185.617188 217.28125 185.804688 C 217.089844 185.996094 216.921875 186.199219 216.773438 186.421875 C 216.628906 186.640625 216.503906 186.875 216.398438 187.121094 C 216.296875 187.367188 216.222656 187.621094 216.167969 187.882812 C 216.117188 188.144531 216.089844 188.40625 216.089844 188.675781 L 216.089844 272.503906 C 216.089844 272.769531 216.117188 273.035156 216.167969 273.292969 C 216.222656 273.554688 216.296875 273.808594 216.398438 274.054688 C 216.503906 274.300781 216.628906 274.535156 216.773438 274.757812 C 216.921875 274.976562 217.089844 275.183594 217.28125 275.371094 C 217.46875 275.558594 217.671875 275.726562 217.894531 275.875 C 218.117188 276.023438 218.347656 276.148438 218.59375 276.25 C 218.839844 276.351562 219.09375 276.429688 219.355469 276.480469 C 219.617188 276.53125 219.882812 276.558594 220.148438 276.558594 Z M 220.148438 276.558594 " fill-opacity="1" fill-rule="nonzero"/><path fill="#896dd5" d="M 155.253906 276.558594 C 155.519531 276.558594 155.78125 276.53125 156.042969 276.480469 C 156.304688 276.429688 156.558594 276.351562 156.804688 276.25 C 157.050781 276.148438 157.285156 276.023438 157.507812 275.875 C 157.726562 275.726562 157.933594 275.558594 158.121094 275.371094 C 158.308594 275.183594 158.476562 274.976562 158.625 274.757812 C 158.773438 274.535156 158.898438 274.300781 159 274.054688 C 159.101562 273.808594 159.179688 273.554688 159.230469 273.292969 C 159.28125 273.035156 159.308594 272.769531 159.308594 272.503906 L 159.308594 188.675781 C 159.308594 188.40625 159.28125 188.144531 159.230469 187.882812 C 159.179688 187.621094 159.101562 187.367188 159 187.121094 C 158.898438 186.875 158.773438 186.640625 158.625 186.421875 C 158.476562 186.199219 158.308594 185.996094 158.121094 185.804688 C 157.933594 185.617188 157.726562 185.449219 157.507812 185.300781 C 157.285156 185.152344 157.050781 185.027344 156.804688 184.925781 C 156.558594 184.824219 156.304688 184.746094 156.042969 184.695312 C 155.78125 184.644531 155.519531 184.617188 155.253906 184.617188 C 154.988281 184.617188 154.722656 184.644531 154.460938 184.695312 C 154.199219 184.746094 153.945312 184.824219 153.699219 184.925781 C 153.453125 185.027344 153.222656 185.152344 153 185.300781 C 152.777344 185.449219 152.574219 185.617188 152.386719 185.804688 C 152.195312 185.996094 152.027344 186.199219 151.878906 186.421875 C 151.734375 186.640625 151.609375 186.875 151.503906 187.121094 C 151.402344 187.367188 151.328125 187.621094 151.273438 187.882812 C 151.222656 188.144531 151.195312 188.40625 151.195312 188.675781 L 151.195312 272.503906 C 151.195312 272.769531 151.222656 273.035156 151.273438 273.292969 C 151.328125 273.554688 151.402344 273.808594 151.503906 274.054688 C 151.609375 274.300781 151.734375 274.535156 151.878906 274.757812 C 152.027344 274.976562 152.195312 275.183594 152.386719 275.371094 C 152.574219 275.558594 152.777344 275.726562 153 275.875 C 153.222656 276.023438 153.453125 276.148438 153.699219 276.25 C 153.945312 276.351562 154.199219 276.429688 154.460938 276.480469 C 154.722656 276.53125 154.988281 276.558594 155.253906 276.558594 Z M 155.253906 276.558594 " fill-opacity="1" fill-rule="nonzero"/></svg>