<svg xmlns="http://www.w3.org/2000/svg" xmlns:xlink="http://www.w3.org/1999/xlink" width="1280" zoomAndPan="magnify" viewBox="0 0 960 599.999999" height="800" preserveAspectRatio="xMidYMid meet" version="1.0"><defs><clipPath id="32a5b0ab1f"><path d="M 225 154 L 735 154 L 735 519.324219 L 225 519.324219 Z M 225 154 " clip-rule="nonzero"/></clipPath></defs><g clip-path="url(#32a5b0ab1f)"><path fill="#98e8cd" d="M 729.234375 317.386719 C 713.492188 292.203125 680.328125 247.644531 628.570312 213.953125 L 657.105469 185.414062 C 664.214844 178.304688 664.214844 166.789062 657.105469 159.683594 C 650 152.574219 638.484375 152.574219 631.375 159.683594 L 302.917969 488.140625 C 295.808594 495.246094 295.808594 506.761719 302.917969 513.871094 C 306.472656 517.425781 311.128906 519.203125 315.785156 519.203125 C 320.441406 519.203125 325.097656 517.425781 328.648438 513.871094 L 364.316406 478.203125 C 396.964844 493.707031 435.378906 504.082031 480.011719 504.082031 C 621.753906 504.082031 701.699219 400.222656 729.234375 356.164062 C 736.636719 344.320312 736.636719 329.234375 729.234375 317.386719 Z M 480.011719 445.964844 C 456.429688 445.964844 434.683594 438.390625 416.859375 425.660156 L 456.554688 385.96875 C 463.652344 389.398438 471.582031 391.371094 480.011719 391.371094 C 510.164062 391.371094 534.605469 366.929688 534.605469 336.777344 C 534.605469 328.347656 532.632812 320.417969 529.203125 313.320312 L 568.898438 273.625 C 581.625 291.453125 589.203125 313.195312 589.203125 336.777344 C 589.203125 397.082031 540.316406 445.964844 480.011719 445.964844 Z M 374.707031 365.253906 C 372.25 356.160156 370.824219 346.644531 370.824219 336.777344 C 370.824219 276.472656 419.707031 227.585938 480.011719 227.585938 C 489.878906 227.585938 499.398438 229.015625 508.488281 231.46875 L 558.808594 181.148438 C 535.007812 173.925781 508.855469 169.472656 480.011719 169.472656 C 338.269531 169.472656 258.324219 273.328125 230.789062 317.386719 C 223.386719 329.234375 223.386719 344.320312 230.789062 356.164062 C 243.320312 376.214844 266.839844 408.605469 301.957031 438 Z M 374.707031 365.253906 " fill-opacity="1" fill-rule="nonzero"/></g></svg>