<svg xmlns="http://www.w3.org/2000/svg" xmlns:xlink="http://www.w3.org/1999/xlink" width="1280" zoomAndPan="magnify" viewBox="0 0 960 599.999999" height="800" preserveAspectRatio="xMidYMid meet" version="1.0"><defs><clipPath id="aa373e5c3d"><path d="M 145.722656 11.773438 L 733.722656 11.773438 L 733.722656 599.773438 L 145.722656 599.773438 Z M 145.722656 11.773438 " clip-rule="nonzero"/></clipPath></defs><g clip-path="url(#aa373e5c3d)"><path fill="#8c52ff" d="M 145.722656 305.882812 C 145.722656 468.066406 277.652344 599.996094 439.832031 599.996094 C 602.011719 599.996094 733.945312 468.066406 733.945312 305.882812 C 733.945312 143.703125 602.011719 11.773438 439.832031 11.773438 C 277.652344 11.773438 145.722656 143.703125 145.722656 305.882812 Z M 450.230469 143.703125 L 575.4375 268.804688 C 579.535156 272.902344 581.53125 278.257812 581.53125 283.617188 C 581.53125 289.078125 579.535156 294.433594 575.4375 298.53125 C 567.140625 306.722656 553.90625 306.722656 545.710938 298.53125 L 456.429688 209.246094 L 456.429688 453.253906 C 456.429688 464.808594 446.976562 474.261719 435.421875 474.261719 C 423.867188 474.261719 414.414062 464.808594 414.414062 453.253906 L 414.414062 209.246094 L 333.953125 289.707031 C 325.757812 297.902344 312.523438 297.902344 304.226562 289.707031 C 296.03125 281.515625 296.03125 268.175781 304.226562 259.980469 L 420.609375 143.703125 C 428.804688 135.507812 442.039062 135.507812 450.230469 143.703125 Z M 450.230469 143.703125 " fill-opacity="1" fill-rule="nonzero"/></g></svg>