<svg xmlns="http://www.w3.org/2000/svg" xmlns:xlink="http://www.w3.org/1999/xlink" width="500" zoomAndPan="magnify" viewBox="0 0 375 374.999991" height="500" preserveAspectRatio="xMidYMid meet" version="1.0"><defs><clipPath id="769e9bad2b"><path d="M 28.304688 28.304688 L 337.5 28.304688 L 337.5 337.5 L 28.304688 337.5 Z M 28.304688 28.304688 " clip-rule="nonzero"/></clipPath><clipPath id="1cdc21c577"><path d="M 182.902344 28.304688 C 97.519531 28.304688 28.304688 97.519531 28.304688 182.902344 C 28.304688 268.285156 97.519531 337.5 182.902344 337.5 C 268.285156 337.5 337.5 268.285156 337.5 182.902344 C 337.5 97.519531 268.285156 28.304688 182.902344 28.304688 Z M 182.902344 28.304688 " clip-rule="nonzero"/></clipPath><clipPath id="7d8c3d1872"><path d="M 115.195312 112.722656 L 250.945312 112.722656 L 250.945312 262.285156 L 115.195312 262.285156 Z M 115.195312 112.722656 " clip-rule="nonzero"/></clipPath></defs><g clip-path="url(#769e9bad2b)"><g clip-path="url(#1cdc21c577)"><path fill="#302b3b" d="M 28.304688 28.304688 L 337.5 28.304688 L 337.5 337.5 L 28.304688 337.5 Z M 28.304688 28.304688 " fill-opacity="1" fill-rule="nonzero"/></g></g><g clip-path="url(#7d8c3d1872)"><path fill="#896dd5" d="M 122.332031 192.464844 L 144.378906 192.464844 C 149.523438 192.464844 154.667969 196.570312 154.667969 202.046875 L 154.667969 252.507812 C 154.667969 257.90625 159.046875 262.28125 164.445312 262.28125 L 200.75 262.28125 C 206.148438 262.28125 210.523438 257.90625 210.523438 252.507812 L 210.523438 202.046875 C 210.523438 197.253906 214.933594 192.464844 220.8125 192.464844 L 243.597656 192.464844 C 249.476562 192.464844 253.152344 185.621094 249.476562 181.511719 L 190.679688 115.800781 C 187.007812 111.691406 179.65625 111.691406 175.246094 115.800781 L 116.453125 181.511719 C 112.777344 186.304688 115.714844 192.464844 122.332031 192.464844 " fill-opacity="1" fill-rule="nonzero"/></g></svg>