<svg xmlns="http://www.w3.org/2000/svg" xmlns:xlink="http://www.w3.org/1999/xlink" width="1280" zoomAndPan="magnify" viewBox="0 0 960 599.999999" height="800" preserveAspectRatio="xMidYMid meet" version="1.0"><defs><g/><clipPath id="53e6beb3b6"><path d="M 25.589844 183.695312 L 191.339844 183.695312 L 191.339844 349.445312 L 25.589844 349.445312 Z M 25.589844 183.695312 " clip-rule="nonzero"/></clipPath></defs><g clip-path="url(#53e6beb3b6)"><path fill="#ffffff" d="M 25.589844 266.453125 C 25.589844 312.089844 62.714844 349.210938 108.347656 349.210938 C 153.984375 349.210938 191.105469 312.089844 191.105469 266.453125 C 191.105469 220.820312 153.984375 183.695312 108.347656 183.695312 C 62.714844 183.695312 25.589844 220.820312 25.589844 266.453125 Z M 111.273438 220.820312 L 146.503906 256.019531 C 147.660156 257.171875 148.21875 258.679688 148.21875 260.1875 C 148.21875 261.722656 147.660156 263.230469 146.503906 264.382812 C 144.171875 266.691406 140.445312 266.691406 138.140625 264.382812 L 113.019531 239.261719 L 113.019531 307.921875 C 113.019531 311.171875 110.359375 313.832031 107.105469 313.832031 C 103.855469 313.832031 101.195312 311.171875 101.195312 307.921875 L 101.195312 239.261719 L 78.554688 261.902344 C 76.25 264.207031 72.527344 264.207031 70.191406 261.902344 C 67.886719 259.597656 67.886719 255.84375 70.191406 253.539062 L 102.941406 220.820312 C 105.246094 218.511719 108.96875 218.511719 111.273438 220.820312 Z M 111.273438 220.820312 " fill-opacity="1" fill-rule="nonzero"/></g><g fill="#ffffff" fill-opacity="1"><g transform="translate(214.858907, 318.551367)"><g><path d="M 114.910156 -125.609375 L 96.964844 -125.609375 C 97.457031 -109.476562 97.621094 -89.554688 97.621094 -74.082031 L 31.445312 -74.082031 C 31.445312 -90.378906 31.609375 -110.300781 31.773438 -125.609375 L 13.664062 -125.609375 C 14.15625 -104.535156 14.488281 -83.136719 14.488281 -62.722656 C 14.488281 -42.308594 14.15625 -20.90625 13.664062 0 L 31.773438 0 C 31.609375 -15.308594 31.445312 -46.425781 31.445312 -62.558594 L 97.621094 -62.558594 C 97.621094 -47.410156 97.457031 -16.132812 96.964844 0 L 114.910156 0 C 114.414062 -14.652344 114.414062 -42.96875 114.414062 -62.722656 C 114.414062 -84.78125 114.414062 -111.121094 114.910156 -125.609375 Z M 114.910156 -125.609375 "/></g></g></g><g fill="#ffffff" fill-opacity="1"><g transform="translate(343.419813, 318.551367)"><g><path d="M 13.664062 0 L 31.609375 0 C 30.949219 -20.90625 30.949219 -41.816406 30.949219 -62.886719 C 30.949219 -83.792969 30.949219 -104.703125 31.609375 -125.609375 L 13.664062 -125.609375 C 13.992188 -104.535156 14.15625 -83.792969 14.15625 -62.722656 C 14.15625 -41.816406 13.992188 -20.90625 13.664062 0 Z M 13.664062 0 "/></g></g></g><g fill="#ffffff" fill-opacity="1"><g transform="translate(388.687744, 318.551367)"><g><path d="M 60.089844 2.140625 C 82.476562 2.140625 97.292969 -10.535156 100.09375 -21.730469 L 101.246094 -21.730469 L 101.410156 0 L 117.046875 0 C 116.882812 -16.792969 116.226562 -34.40625 116.390625 -52.679688 L 68.15625 -52.679688 L 68.15625 -45.765625 L 91.039062 -45.765625 C 95.8125 -45.765625 100.75 -41.816406 100.75 -31.277344 C 96.964844 -18.273438 81.820312 -10.867188 64.203125 -10.867188 C 40.167969 -10.867188 24.035156 -30.785156 24.035156 -63.378906 C 24.035156 -83.792969 27.820312 -97.789062 34.570312 -107.335938 C 41.816406 -111.78125 53.503906 -113.921875 62.886719 -113.921875 C 86.097656 -113.921875 94.988281 -99.597656 98.773438 -78.527344 L 116.226562 -80.667969 C 112.605469 -109.804688 99.269531 -127.253906 63.214844 -127.253906 C 26.667969 -127.253906 6.75 -104.535156 6.75 -62.558594 C 6.75 -20.90625 27.492188 2.140625 60.089844 2.140625 Z M 60.089844 2.140625 "/></g></g></g><g fill="#ffffff" fill-opacity="1"><g transform="translate(512.639519, 318.551367)"><g><path d="M 114.910156 -125.609375 L 96.964844 -125.609375 C 97.457031 -109.476562 97.621094 -89.554688 97.621094 -74.082031 L 31.445312 -74.082031 C 31.445312 -90.378906 31.609375 -110.300781 31.773438 -125.609375 L 13.664062 -125.609375 C 14.15625 -104.535156 14.488281 -83.136719 14.488281 -62.722656 C 14.488281 -42.308594 14.15625 -20.90625 13.664062 0 L 31.773438 0 C 31.609375 -15.308594 31.445312 -46.425781 31.445312 -62.558594 L 97.621094 -62.558594 C 97.621094 -47.410156 97.457031 -16.132812 96.964844 0 L 114.910156 0 C 114.414062 -14.652344 114.414062 -42.96875 114.414062 -62.722656 C 114.414062 -84.78125 114.414062 -111.121094 114.910156 -125.609375 Z M 114.910156 -125.609375 "/></g></g></g><g fill="#ffffff" fill-opacity="1"><g transform="translate(641.200426, 318.551367)"><g><path d="M 13.664062 0 L 104.371094 0 L 104.371094 -13.335938 L 31.445312 -13.335938 L 31.445312 -59.265625 L 98.773438 -58.769531 L 98.773438 -70.460938 L 31.445312 -69.964844 L 31.445312 -112.273438 L 103.054688 -112.273438 L 103.054688 -125.609375 L 13.664062 -125.609375 C 14.15625 -110.957031 14.652344 -80.171875 14.652344 -62.558594 C 14.652344 -45.601562 14.15625 -14.324219 13.664062 0 Z M 13.664062 0 "/></g></g></g><g fill="#ffffff" fill-opacity="1"><g transform="translate(752.312586, 318.551367)"><g><path d="M 13.664062 0 L 31.277344 0 C 31.277344 -15.476562 31.445312 -35.886719 31.445312 -52.351562 L 61.570312 -52.351562 C 78.855469 -52.351562 85.605469 -44.449219 91.203125 -28.480469 C 93.011719 -20.90625 97.292969 -7.242188 99.269531 0 L 117.871094 0 C 115.566406 -6.75 110.628906 -22.71875 108.816406 -28.808594 C 103.21875 -47.410156 94.660156 -54.984375 76.386719 -56.300781 L 76.386719 -58.277344 C 98.28125 -58.605469 111.78125 -68.648438 111.78125 -91.695312 C 111.78125 -118.367188 95.152344 -125.609375 63.050781 -125.609375 L 13.664062 -125.609375 C 13.992188 -109.3125 14.652344 -79.679688 14.652344 -62.558594 C 14.652344 -45.273438 13.992188 -16.957031 13.664062 0 Z M 31.277344 -62.0625 C 31.277344 -64.699219 31.277344 -67.496094 31.277344 -70.128906 L 31.277344 -113.097656 L 60.746094 -113.097656 C 83.464844 -113.097656 94 -107.828125 94 -87.910156 C 94 -70.625 84.945312 -62.0625 60.417969 -62.0625 Z M 31.277344 -62.0625 "/></g></g></g></svg>