<svg xmlns="http://www.w3.org/2000/svg" xmlns:xlink="http://www.w3.org/1999/xlink" width="1280" zoomAndPan="magnify" viewBox="0 0 960 599.999999" height="800" preserveAspectRatio="xMidYMid meet" version="1.0"><defs><g/><clipPath id="23e15a18a7"><path d="M 30.734375 239.332031 L 192.734375 239.332031 L 192.734375 401.332031 L 30.734375 401.332031 Z M 30.734375 239.332031 " clip-rule="nonzero"/></clipPath></defs><g clip-path="url(#23e15a18a7)"><path fill="#8c52ff" d="M 30.734375 320.460938 C 30.734375 365.199219 67.128906 401.589844 111.863281 401.589844 C 156.601562 401.589844 192.992188 365.199219 192.992188 320.460938 C 192.992188 275.726562 156.601562 239.332031 111.863281 239.332031 C 67.128906 239.332031 30.734375 275.726562 30.734375 320.460938 Z M 114.734375 275.726562 L 149.269531 310.234375 C 150.402344 311.363281 150.949219 312.839844 150.949219 314.320312 C 150.949219 315.824219 150.402344 317.304688 149.269531 318.433594 C 146.980469 320.695312 143.332031 320.695312 141.070312 318.433594 L 116.441406 293.804688 L 116.441406 361.113281 C 116.441406 364.300781 113.835938 366.90625 110.648438 366.90625 C 107.460938 366.90625 104.851562 364.300781 104.851562 361.113281 L 104.851562 293.804688 L 82.65625 316 C 80.398438 318.261719 76.746094 318.261719 74.457031 316 C 72.199219 313.738281 72.199219 310.058594 74.457031 307.800781 L 106.5625 275.726562 C 108.820312 273.464844 112.472656 273.464844 114.734375 275.726562 Z M 114.734375 275.726562 " fill-opacity="1" fill-rule="nonzero"/></g><g fill="#8c52ff" fill-opacity="1"><g transform="translate(217.265821, 382.761433)"><g><path d="M 115.203125 -125.929688 L 97.210938 -125.929688 C 97.707031 -109.753906 97.871094 -89.785156 97.871094 -74.269531 L 31.523438 -74.269531 C 31.523438 -90.609375 31.6875 -110.582031 31.855469 -125.929688 L 13.699219 -125.929688 C 14.195312 -104.804688 14.523438 -83.347656 14.523438 -62.882812 C 14.523438 -42.417969 14.195312 -20.960938 13.699219 0 L 31.855469 0 C 31.6875 -15.347656 31.523438 -46.542969 31.523438 -62.71875 L 97.871094 -62.71875 C 97.871094 -47.53125 97.707031 -16.175781 97.210938 0 L 115.203125 0 C 114.707031 -14.6875 114.707031 -43.078125 114.707031 -62.882812 C 114.707031 -85 114.707031 -111.40625 115.203125 -125.929688 Z M 115.203125 -125.929688 "/></g></g></g><g fill="#8c52ff" fill-opacity="1"><g transform="translate(346.158205, 382.761433)"><g><path d="M 13.699219 0 L 31.6875 0 C 31.027344 -20.960938 31.027344 -41.921875 31.027344 -63.046875 C 31.027344 -84.007812 31.027344 -104.96875 31.6875 -125.929688 L 13.699219 -125.929688 C 14.027344 -104.804688 14.195312 -84.007812 14.195312 -62.882812 C 14.195312 -41.921875 14.027344 -20.960938 13.699219 0 Z M 13.699219 0 "/></g></g></g><g fill="#8c52ff" fill-opacity="1"><g transform="translate(391.542851, 382.761433)"><g><path d="M 60.242188 2.144531 C 82.6875 2.144531 97.542969 -10.5625 100.347656 -21.785156 L 101.503906 -21.785156 L 101.667969 0 L 117.347656 0 C 117.183594 -16.835938 116.523438 -34.496094 116.6875 -52.8125 L 68.328125 -52.8125 L 68.328125 -45.882812 L 91.269531 -45.882812 C 96.054688 -45.882812 101.007812 -41.921875 101.007812 -31.359375 C 97.210938 -18.320312 82.027344 -10.894531 64.367188 -10.894531 C 40.269531 -10.894531 24.097656 -30.863281 24.097656 -63.542969 C 24.097656 -84.007812 27.894531 -98.035156 34.660156 -107.609375 C 41.921875 -112.066406 53.640625 -114.210938 63.046875 -114.210938 C 86.320312 -114.210938 95.230469 -99.851562 99.027344 -78.726562 L 116.523438 -80.871094 C 112.890625 -110.085938 99.523438 -127.578125 63.378906 -127.578125 C 26.738281 -127.578125 6.765625 -104.804688 6.765625 -62.71875 C 6.765625 -20.960938 27.5625 2.144531 60.242188 2.144531 Z M 60.242188 2.144531 "/></g></g></g><g fill="#8c52ff" fill-opacity="1"><g transform="translate(515.814238, 382.761433)"><g><path d="M 115.203125 -125.929688 L 97.210938 -125.929688 C 97.707031 -109.753906 97.871094 -89.785156 97.871094 -74.269531 L 31.523438 -74.269531 C 31.523438 -90.609375 31.6875 -110.582031 31.855469 -125.929688 L 13.699219 -125.929688 C 14.195312 -104.804688 14.523438 -83.347656 14.523438 -62.882812 C 14.523438 -42.417969 14.195312 -20.960938 13.699219 0 L 31.855469 0 C 31.6875 -15.347656 31.523438 -46.542969 31.523438 -62.71875 L 97.871094 -62.71875 C 97.871094 -47.53125 97.707031 -16.175781 97.210938 0 L 115.203125 0 C 114.707031 -14.6875 114.707031 -43.078125 114.707031 -62.882812 C 114.707031 -85 114.707031 -111.40625 115.203125 -125.929688 Z M 115.203125 -125.929688 "/></g></g></g><g fill="#8c52ff" fill-opacity="1"><g transform="translate(644.706615, 382.761433)"><g><path d="M 13.699219 0 L 104.636719 0 L 104.636719 -13.367188 L 31.523438 -13.367188 L 31.523438 -59.417969 L 99.027344 -58.921875 L 99.027344 -70.640625 L 31.523438 -70.144531 L 31.523438 -112.5625 L 103.316406 -112.5625 L 103.316406 -125.929688 L 13.699219 -125.929688 C 14.195312 -111.242188 14.6875 -80.375 14.6875 -62.71875 C 14.6875 -45.71875 14.195312 -14.359375 13.699219 0 Z M 13.699219 0 "/></g></g></g><g fill="#8c52ff" fill-opacity="1"><g transform="translate(756.105276, 382.761433)"><g><path d="M 13.699219 0 L 31.359375 0 C 31.359375 -15.515625 31.523438 -35.980469 31.523438 -52.484375 L 61.726562 -52.484375 C 79.054688 -52.484375 85.824219 -44.5625 91.433594 -28.554688 C 93.25 -20.960938 97.542969 -7.261719 99.523438 0 L 118.171875 0 C 115.863281 -6.765625 110.910156 -22.777344 109.09375 -28.882812 C 103.484375 -47.53125 94.902344 -55.125 76.582031 -56.445312 L 76.582031 -58.425781 C 98.53125 -58.757812 112.066406 -68.824219 112.066406 -91.929688 C 112.066406 -118.667969 95.394531 -125.929688 63.210938 -125.929688 L 13.699219 -125.929688 C 14.027344 -109.589844 14.6875 -79.882812 14.6875 -62.71875 C 14.6875 -45.386719 14.027344 -17 13.699219 0 Z M 31.359375 -62.222656 C 31.359375 -64.863281 31.359375 -67.667969 31.359375 -70.308594 L 31.359375 -113.386719 L 60.902344 -113.386719 C 83.679688 -113.386719 94.242188 -108.105469 94.242188 -88.132812 C 94.242188 -70.804688 85.164062 -62.222656 60.570312 -62.222656 Z M 31.359375 -62.222656 "/></g></g></g></svg>