<svg xmlns="http://www.w3.org/2000/svg" xmlns:xlink="http://www.w3.org/1999/xlink" width="500" zoomAndPan="magnify" viewBox="0 0 375 374.999991" height="500" preserveAspectRatio="xMidYMid meet" version="1.0"><defs><clipPath id="e9893fcdce"><path d="M 28.304688 28.304688 L 337.5 28.304688 L 337.5 337.5 L 28.304688 337.5 Z M 28.304688 28.304688 " clip-rule="nonzero"/></clipPath><clipPath id="678f3783a7"><path d="M 182.902344 28.304688 C 97.519531 28.304688 28.304688 97.519531 28.304688 182.902344 C 28.304688 268.285156 97.519531 337.5 182.902344 337.5 C 268.285156 337.5 337.5 268.285156 337.5 182.902344 C 337.5 97.519531 268.285156 28.304688 182.902344 28.304688 Z M 182.902344 28.304688 " clip-rule="nonzero"/></clipPath></defs><g clip-path="url(#e9893fcdce)"><g clip-path="url(#678f3783a7)"><path fill="#302b3b" d="M 28.304688 28.304688 L 337.5 28.304688 L 337.5 337.5 L 28.304688 337.5 Z M 28.304688 28.304688 " fill-opacity="1" fill-rule="nonzero"/></g></g><path fill="#896dd5" d="M 247.023438 180.574219 L 241.125 180.574219 L 241.125 241.070312 C 241.097656 241.476562 241.035156 241.878906 240.929688 242.273438 C 240.828125 242.667969 240.683594 243.050781 240.507812 243.417969 C 240.328125 243.785156 240.117188 244.132812 239.871094 244.460938 C 239.625 244.785156 239.347656 245.085938 239.042969 245.355469 C 238.738281 245.628906 238.410156 245.871094 238.058594 246.078125 C 237.707031 246.285156 237.339844 246.457031 236.953125 246.59375 C 236.566406 246.730469 236.171875 246.828125 235.769531 246.886719 C 235.363281 246.945312 234.957031 246.964844 234.550781 246.945312 L 199.699219 246.945312 L 199.699219 205.695312 C 199.699219 205.414062 199.671875 205.132812 199.617188 204.855469 C 199.5625 204.578125 199.480469 204.308594 199.371094 204.046875 C 199.261719 203.785156 199.128906 203.539062 198.972656 203.300781 C 198.816406 203.066406 198.636719 202.851562 198.4375 202.648438 C 198.238281 202.449219 198.019531 202.269531 197.785156 202.113281 C 197.550781 201.957031 197.300781 201.824219 197.039062 201.714844 C 196.777344 201.605469 196.507812 201.523438 196.230469 201.46875 C 195.953125 201.414062 195.675781 201.386719 195.390625 201.386719 L 170.105469 201.386719 C 169.824219 201.386719 169.542969 201.414062 169.265625 201.46875 C 168.988281 201.523438 168.71875 201.605469 168.457031 201.714844 C 168.195312 201.824219 167.949219 201.957031 167.710938 202.113281 C 167.476562 202.269531 167.261719 202.449219 167.058594 202.648438 C 166.859375 202.847656 166.679688 203.066406 166.523438 203.300781 C 166.367188 203.539062 166.234375 203.785156 166.125 204.046875 C 166.019531 204.308594 165.9375 204.578125 165.882812 204.855469 C 165.828125 205.132812 165.800781 205.414062 165.800781 205.695312 L 165.800781 246.941406 L 130.945312 246.941406 C 130.539062 246.960938 130.132812 246.945312 129.730469 246.886719 C 129.328125 246.828125 128.933594 246.730469 128.550781 246.597656 C 128.164062 246.460938 127.796875 246.289062 127.445312 246.082031 C 127.097656 245.875 126.769531 245.636719 126.464844 245.367188 C 126.160156 245.09375 125.886719 244.796875 125.640625 244.472656 C 125.398438 244.144531 125.183594 243.800781 125.007812 243.433594 C 124.832031 243.066406 124.691406 242.6875 124.585938 242.292969 C 124.484375 241.898438 124.421875 241.496094 124.398438 241.089844 L 124.398438 180.574219 L 118.472656 180.574219 C 111.90625 180.574219 108.347656 174.394531 112.648438 170.425781 L 177.492188 110.480469 C 177.898438 110.136719 178.332031 109.832031 178.789062 109.566406 C 179.25 109.296875 179.730469 109.074219 180.226562 108.890625 C 180.726562 108.707031 181.238281 108.570312 181.761719 108.480469 C 182.285156 108.386719 182.8125 108.339844 183.34375 108.34375 C 183.875 108.34375 184.402344 108.390625 184.925781 108.484375 C 185.449219 108.578125 185.960938 108.71875 186.457031 108.902344 C 186.957031 109.085938 187.4375 109.3125 187.894531 109.582031 C 188.351562 109.851562 188.785156 110.160156 189.1875 110.503906 C 210.417969 130.484375 231.652344 150.464844 252.898438 170.445312 C 257.121094 174.453125 253.566406 180.574219 247.023438 180.574219 Z M 247.023438 180.574219 " fill-opacity="1" fill-rule="nonzero"/></svg>