<svg xmlns="http://www.w3.org/2000/svg" xmlns:xlink="http://www.w3.org/1999/xlink" width="500" zoomAndPan="magnify" viewBox="0 0 375 374.999991" height="500" preserveAspectRatio="xMidYMid meet" version="1.0"><defs><clipPath id="fe1c388528"><path d="M 71.25 99 L 302 99 L 302 306 L 71.25 306 Z M 71.25 99 " clip-rule="nonzero"/></clipPath></defs><g clip-path="url(#fe1c388528)"><path fill="#896dd5" d="M 253.382812 102.160156 C 236.515625 98.246094 221.226562 99.667969 207.941406 106.390625 C 197.496094 111.679688 190.546875 119.101562 186.46875 124.585938 C 182.285156 118.917969 175.210938 111.25 164.75 105.832031 C 151.394531 98.921875 136.242188 97.605469 119.707031 101.925781 C 108.554688 104.839844 99.074219 109.886719 91.53125 116.929688 C 85.484375 122.570312 80.664062 129.492188 77.195312 137.507812 C 71.246094 151.269531 71.371094 163.671875 71.371094 163.777344 C 71.367188 164.976562 71.480469 193.507812 92.027344 224.957031 C 113.804688 258.285156 162.597656 296.078125 184.867188 305.292969 C 185.378906 305.503906 185.914062 305.613281 186.46875 305.613281 C 187.140625 305.613281 187.808594 305.449219 188.402344 305.136719 L 192.472656 303.015625 C 208.800781 295.253906 245.625 263.300781 247.183594 261.945312 C 259.375 251.539062 269.808594 240.332031 278.1875 228.632812 C 284.933594 219.214844 290.382812 209.445312 294.378906 199.59375 C 301.410156 182.269531 301.558594 170.519531 301.558594 170.050781 C 301.585938 169.488281 303.746094 113.847656 253.382812 102.160156 Z M 135.65625 159.820312 L 135.769531 159.820312 C 135.660156 159.820312 135.554688 159.84375 135.445312 159.851562 C 135.238281 159.867188 135.039062 159.898438 134.839844 159.941406 C 134.769531 159.960938 134.699219 159.976562 134.628906 159.996094 C 134.667969 159.988281 134.703125 159.96875 134.742188 159.960938 C 134.667969 159.976562 134.585938 159.972656 134.511719 159.996094 C 134.875 159.894531 135.253906 159.820312 135.652344 159.820312 Z M 103.386719 140.394531 L 103.582031 139.632812 C 103.863281 138.546875 104.546875 137.636719 105.511719 137.066406 C 106.476562 136.5 107.601562 136.339844 108.679688 136.621094 C 109.765625 136.898438 110.671875 137.582031 111.242188 138.546875 C 111.808594 139.511719 111.972656 140.636719 111.691406 141.71875 L 111.496094 142.484375 C 107.328125 158.671875 109.710938 175.511719 118.214844 189.910156 C 118.78125 190.871094 118.941406 192 118.664062 193.082031 C 118.382812 194.164062 117.699219 195.074219 116.738281 195.644531 C 116.089844 196.027344 115.355469 196.226562 114.609375 196.226562 C 113.132812 196.226562 111.75 195.4375 111 194.167969 C 101.363281 177.847656 98.65625 158.75 103.382812 140.394531 Z M 103.386719 140.394531 " fill-opacity="1" fill-rule="nonzero"/></g></svg>