<svg xmlns="http://www.w3.org/2000/svg" xmlns:xlink="http://www.w3.org/1999/xlink" width="1280" zoomAndPan="magnify" viewBox="0 0 960 599.999999" height="800" preserveAspectRatio="xMidYMid meet" version="1.0"><defs><g/><clipPath id="ba76c05ec7"><path d="M 156.914062 270.261719 L 246.914062 270.261719 L 246.914062 360 L 156.914062 360 Z M 156.914062 270.261719 " clip-rule="nonzero"/></clipPath></defs><rect x="-96" width="1152" fill="#ffffff" y="-60" height="719.999999" fill-opacity="1"/><rect x="-96" width="1152" fill="#ffffff" y="-60" height="719.999999" fill-opacity="1"/><g clip-path="url(#ba76c05ec7)"><path fill="#020912" d="M 156.914062 315.097656 C 156.914062 339.820312 177.027344 359.933594 201.75 359.933594 C 226.472656 359.933594 246.585938 339.820312 246.585938 315.097656 C 246.585938 290.375 226.472656 270.261719 201.75 270.261719 C 177.027344 270.261719 156.914062 290.375 156.914062 315.097656 Z M 203.335938 290.375 L 222.421875 309.445312 C 223.046875 310.070312 223.351562 310.886719 223.351562 311.703125 C 223.351562 312.535156 223.046875 313.351562 222.421875 313.976562 C 221.15625 315.226562 219.140625 315.226562 217.890625 313.976562 L 204.28125 300.367188 L 204.28125 337.5625 C 204.28125 339.324219 202.839844 340.765625 201.078125 340.765625 C 199.316406 340.765625 197.875 339.324219 197.875 337.5625 L 197.875 300.367188 L 185.609375 312.632812 C 184.359375 313.882812 182.34375 313.882812 181.078125 312.632812 C 179.828125 311.382812 179.828125 309.351562 181.078125 308.101562 L 198.820312 290.375 C 200.070312 289.125 202.085938 289.125 203.335938 290.375 Z M 203.335938 290.375 " fill-opacity="1" fill-rule="nonzero"/></g><g fill="#020912" fill-opacity="1"><g transform="translate(264.030517, 348.336747)"><g><path d="M 73.300781 -80.128906 L 61.855469 -80.128906 C 62.167969 -69.835938 62.273438 -57.128906 62.273438 -47.257812 L 20.058594 -47.257812 C 20.058594 -57.652344 20.164062 -70.359375 20.269531 -80.128906 L 8.714844 -80.128906 C 9.03125 -66.683594 9.242188 -53.03125 9.242188 -40.011719 C 9.242188 -26.988281 9.03125 -13.335938 8.714844 0 L 20.269531 0 C 20.164062 -9.765625 20.058594 -29.613281 20.058594 -39.90625 L 62.273438 -39.90625 C 62.273438 -30.246094 62.167969 -10.292969 61.855469 0 L 73.300781 0 C 72.984375 -9.347656 72.984375 -27.410156 72.984375 -40.011719 C 72.984375 -54.082031 72.984375 -70.886719 73.300781 -80.128906 Z M 73.300781 -80.128906 "/></g></g></g><g fill="#020912" fill-opacity="1"><g transform="translate(346.040852, 348.336747)"><g><path d="M 8.714844 0 L 20.164062 0 C 19.742188 -13.335938 19.742188 -26.675781 19.742188 -40.117188 C 19.742188 -53.453125 19.742188 -66.789062 20.164062 -80.128906 L 8.714844 -80.128906 C 8.925781 -66.683594 9.03125 -53.453125 9.03125 -40.011719 C 9.03125 -26.675781 8.925781 -13.335938 8.714844 0 Z M 8.714844 0 "/></g></g></g><g fill="#020912" fill-opacity="1"><g transform="translate(374.917734, 348.336747)"><g><path d="M 38.332031 1.363281 C 52.613281 1.363281 62.066406 -6.722656 63.851562 -13.863281 L 64.585938 -13.863281 L 64.691406 0 L 74.667969 0 C 74.5625 -10.710938 74.140625 -21.949219 74.246094 -33.605469 L 43.476562 -33.605469 L 43.476562 -29.195312 L 58.074219 -29.195312 C 61.121094 -29.195312 64.269531 -26.675781 64.269531 -19.953125 C 61.855469 -11.65625 52.191406 -6.929688 40.957031 -6.929688 C 25.625 -6.929688 15.332031 -19.636719 15.332031 -40.429688 C 15.332031 -53.453125 17.746094 -62.378906 22.054688 -68.46875 C 26.675781 -71.304688 34.128906 -72.671875 40.117188 -72.671875 C 54.921875 -72.671875 60.59375 -63.535156 63.007812 -50.09375 L 74.140625 -51.457031 C 71.832031 -70.046875 63.324219 -81.175781 40.328125 -81.175781 C 17.011719 -81.175781 4.304688 -66.683594 4.304688 -39.90625 C 4.304688 -13.335938 17.539062 1.363281 38.332031 1.363281 Z M 38.332031 1.363281 "/></g></g></g><g fill="#020912" fill-opacity="1"><g transform="translate(453.987857, 348.336747)"><g><path d="M 73.300781 -80.128906 L 61.855469 -80.128906 C 62.167969 -69.835938 62.273438 -57.128906 62.273438 -47.257812 L 20.058594 -47.257812 C 20.058594 -57.652344 20.164062 -70.359375 20.269531 -80.128906 L 8.714844 -80.128906 C 9.03125 -66.683594 9.242188 -53.03125 9.242188 -40.011719 C 9.242188 -26.988281 9.03125 -13.335938 8.714844 0 L 20.269531 0 C 20.164062 -9.765625 20.058594 -29.613281 20.058594 -39.90625 L 62.273438 -39.90625 C 62.273438 -30.246094 62.167969 -10.292969 61.855469 0 L 73.300781 0 C 72.984375 -9.347656 72.984375 -27.410156 72.984375 -40.011719 C 72.984375 -54.082031 72.984375 -70.886719 73.300781 -80.128906 Z M 73.300781 -80.128906 "/></g></g></g><g fill="#020912" fill-opacity="1"><g transform="translate(535.998192, 348.336747)"><g><path d="M 8.714844 0 L 66.582031 0 L 66.582031 -8.507812 L 20.058594 -8.507812 L 20.058594 -37.804688 L 63.007812 -37.492188 L 63.007812 -44.945312 L 20.058594 -44.632812 L 20.058594 -71.621094 L 65.738281 -71.621094 L 65.738281 -80.128906 L 8.714844 -80.128906 C 9.03125 -70.78125 9.347656 -51.144531 9.347656 -39.90625 C 9.347656 -29.089844 9.03125 -9.136719 8.714844 0 Z M 8.714844 0 "/></g></g></g><g fill="#020912" fill-opacity="1"><g transform="translate(606.877791, 348.336747)"><g><path d="M 8.714844 0 L 19.953125 0 C 19.953125 -9.871094 20.058594 -22.894531 20.058594 -33.394531 L 39.277344 -33.394531 C 50.304688 -33.394531 54.609375 -28.355469 58.179688 -18.167969 C 59.335938 -13.335938 62.066406 -4.621094 63.324219 0 L 75.191406 0 C 73.722656 -4.304688 70.570312 -14.492188 69.414062 -18.378906 C 65.84375 -30.246094 60.382812 -35.074219 48.726562 -35.914062 L 48.726562 -37.175781 C 62.695312 -37.386719 71.304688 -43.792969 71.304688 -58.492188 C 71.304688 -75.507812 60.699219 -80.128906 40.222656 -80.128906 L 8.714844 -80.128906 C 8.925781 -69.730469 9.347656 -50.828125 9.347656 -39.90625 C 9.347656 -28.878906 8.925781 -10.816406 8.714844 0 Z M 19.953125 -39.589844 C 19.953125 -41.269531 19.953125 -43.058594 19.953125 -44.738281 L 19.953125 -72.144531 L 38.75 -72.144531 C 53.242188 -72.144531 59.964844 -68.785156 59.964844 -56.078125 C 59.964844 -45.050781 54.1875 -39.589844 38.539062 -39.589844 Z M 19.953125 -39.589844 "/></g></g></g></svg>