<svg xmlns="http://www.w3.org/2000/svg" xmlns:xlink="http://www.w3.org/1999/xlink" width="500" zoomAndPan="magnify" viewBox="0 0 375 374.999991" height="500" preserveAspectRatio="xMidYMid meet" version="1.0"><defs><clipPath id="86f3e1752a"><path d="M 95.613281 100.210938 L 280.863281 100.210938 L 280.863281 285.460938 L 95.613281 285.460938 Z M 95.613281 100.210938 " clip-rule="nonzero"/></clipPath></defs><g clip-path="url(#86f3e1752a)"><path fill="#896dd5" d="M 217.007812 167.296875 C 215.242188 167.296875 213.8125 165.863281 213.8125 164.101562 C 213.8125 164.101562 213.8125 109.871094 213.8125 109.871094 C 213.8125 104.578125 209.523438 100.285156 204.226562 100.285156 L 172.28125 100.285156 C 166.988281 100.285156 162.699219 104.578125 162.699219 109.871094 L 162.699219 164.101562 C 162.699219 165.863281 161.269531 167.296875 159.503906 167.296875 C 159.503906 167.296875 105.273438 167.296875 105.273438 167.296875 C 99.980469 167.296875 95.6875 171.585938 95.6875 176.878906 L 95.6875 208.824219 C 95.6875 214.117188 99.980469 218.410156 105.273438 218.410156 L 159.503906 218.410156 C 161.269531 218.410156 162.699219 219.839844 162.699219 221.605469 C 162.699219 221.605469 162.699219 275.835938 162.699219 275.835938 C 162.699219 281.128906 166.988281 285.417969 172.28125 285.417969 L 204.226562 285.417969 C 209.523438 285.417969 213.8125 281.128906 213.8125 275.835938 L 213.8125 221.605469 C 213.8125 219.839844 215.242188 218.410156 217.007812 218.410156 C 217.007812 218.410156 271.238281 218.410156 271.238281 218.410156 C 276.53125 218.410156 280.820312 214.117188 280.820312 208.824219 L 280.820312 176.878906 C 280.820312 171.585938 276.53125 167.296875 271.238281 167.296875 Z M 217.007812 167.296875 " fill-opacity="1" fill-rule="evenodd"/></g></svg>