<svg xmlns="http://www.w3.org/2000/svg" xmlns:xlink="http://www.w3.org/1999/xlink" width="1280" zoomAndPan="magnify" viewBox="0 0 960 599.999999" height="800" preserveAspectRatio="xMidYMid meet" version="1.0"><defs><clipPath id="cad4c24d40"><path d="M 559 368 L 788 368 L 788 596.472656 L 559 596.472656 Z M 559 368 " clip-rule="nonzero"/></clipPath></defs><path fill="#d1308c" d="M 442.050781 477.195312 C 437.414062 477.199219 432.785156 477.058594 428.15625 476.777344 C 423.53125 476.492188 418.917969 476.070312 414.316406 475.503906 C 409.71875 474.9375 405.136719 474.234375 400.582031 473.386719 C 396.023438 472.539062 391.496094 471.554688 387 470.429688 C 382.503906 469.304688 378.046875 468.042969 373.628906 466.648438 C 369.207031 465.25 364.835938 463.714844 360.511719 462.050781 C 356.1875 460.382812 351.917969 458.585938 347.703125 456.65625 C 343.488281 454.726562 339.335938 452.671875 335.25 450.488281 C 331.160156 448.304688 327.140625 446 323.195312 443.566406 C 319.25 441.136719 315.378906 438.589844 311.589844 435.921875 C 307.800781 433.253906 304.09375 430.472656 300.476562 427.578125 C 296.855469 424.679688 293.328125 421.679688 289.894531 418.566406 C 286.460938 415.453125 283.121094 412.242188 279.886719 408.925781 C 276.648438 405.605469 273.515625 402.195312 270.484375 398.6875 C 267.457031 395.175781 264.539062 391.578125 261.734375 387.890625 C 258.925781 384.203125 256.234375 380.429688 253.660156 376.578125 C 251.082031 372.722656 248.628906 368.796875 246.292969 364.792969 C 243.960938 360.789062 241.75 356.714844 239.664062 352.574219 C 237.582031 348.4375 235.625 344.238281 233.796875 339.976562 C 231.972656 335.71875 230.277344 331.40625 228.714844 327.042969 C 227.152344 322.675781 225.726562 318.269531 224.4375 313.820312 C 223.144531 309.367188 221.992188 304.878906 220.976562 300.359375 C 219.960938 295.835938 219.082031 291.285156 218.347656 286.710938 C 217.609375 282.132812 217.015625 277.539062 216.558594 272.925781 C 216.105469 268.316406 215.792969 263.691406 215.621094 259.0625 C 215.453125 254.429688 215.421875 249.796875 215.539062 245.164062 C 215.652344 240.53125 215.90625 235.902344 216.304688 231.285156 C 216.703125 226.667969 217.242188 222.066406 217.921875 217.484375 C 218.601562 212.898438 219.421875 208.339844 220.382812 203.804688 C 221.34375 199.269531 222.441406 194.769531 223.679688 190.300781 C 224.914062 185.835938 226.289062 181.410156 227.796875 177.027344 C 229.304688 172.644531 230.945312 168.3125 232.71875 164.03125 C 234.492188 159.75 236.398438 155.527344 238.429688 151.359375 C 240.464844 147.195312 242.625 143.097656 244.910156 139.0625 C 247.195312 135.03125 249.601562 131.074219 252.128906 127.1875 C 254.65625 123.304688 257.300781 119.5 260.0625 115.777344 C 262.824219 112.054688 265.699219 108.421875 268.683594 104.875 C 271.667969 101.332031 274.761719 97.878906 277.957031 94.523438 C 281.152344 91.167969 284.449219 87.914062 287.847656 84.757812 C 291.242188 81.605469 294.734375 78.558594 298.316406 75.621094 C 301.902344 72.679688 305.570312 69.851562 309.328125 67.140625 C 313.085938 64.425781 316.921875 61.828125 320.839844 59.351562 C 324.753906 56.871094 328.746094 54.515625 332.804688 52.28125 C 336.867188 50.050781 340.992188 47.941406 345.183594 45.960938 C 349.375 43.980469 353.621094 42.132812 357.925781 40.414062 C 362.230469 38.691406 366.582031 37.105469 370.984375 35.65625 C 375.386719 34.203125 379.828125 32.886719 384.308594 31.707031 C 388.792969 30.527344 393.308594 29.488281 397.851562 28.585938 C 402.398438 27.683594 406.96875 26.921875 411.5625 26.300781 C 416.15625 25.675781 420.761719 25.195312 425.386719 24.859375 C 430.007812 24.519531 434.636719 24.324219 439.269531 24.269531 C 443.90625 24.214844 448.539062 24.300781 453.167969 24.53125 C 457.796875 24.761719 462.414062 25.132812 467.019531 25.644531 C 471.625 26.160156 476.210938 26.8125 480.777344 27.605469 C 485.34375 28.402344 489.882812 29.335938 494.390625 30.410156 C 498.902344 31.484375 503.371094 32.695312 507.808594 34.042969 C 512.242188 35.390625 516.628906 36.871094 520.972656 38.488281 C 525.316406 40.109375 529.605469 41.855469 533.84375 43.738281 C 538.078125 45.617188 542.253906 47.628906 546.367188 49.765625 C 550.480469 51.902344 554.523438 54.164062 558.496094 56.546875 C 562.472656 58.933594 566.367188 61.4375 570.1875 64.0625 C 574.007812 66.6875 577.746094 69.425781 581.394531 72.28125 C 585.046875 75.136719 588.609375 78.097656 592.078125 81.171875 C 595.550781 84.246094 598.921875 87.421875 602.195312 90.699219 C 604.164062 92.664062 606.09375 94.664062 607.988281 96.699219 C 609.878906 98.734375 611.734375 100.804688 613.550781 102.910156 C 615.367188 105.011719 617.144531 107.148438 618.882812 109.320312 C 620.621094 111.488281 622.320312 113.6875 623.976562 115.921875 C 625.632812 118.152344 627.25 120.414062 628.824219 122.707031 C 630.394531 124.996094 631.925781 127.316406 633.414062 129.664062 C 634.902344 132.011719 636.347656 134.386719 637.75 136.789062 C 639.148438 139.1875 640.503906 141.613281 641.816406 144.066406 C 643.128906 146.515625 644.394531 148.992188 645.613281 151.488281 C 646.835938 153.984375 648.007812 156.503906 649.136719 159.046875 C 650.261719 161.585938 651.34375 164.148438 652.375 166.726562 C 653.410156 169.308594 654.394531 171.90625 655.332031 174.523438 C 656.269531 177.140625 657.160156 179.773438 658 182.425781 C 658.839844 185.074219 659.628906 187.738281 660.371094 190.417969 C 661.113281 193.09375 661.808594 195.785156 662.449219 198.492188 C 663.09375 201.195312 663.6875 203.910156 664.230469 206.636719 C 664.773438 209.363281 665.265625 212.097656 665.707031 214.84375 C 666.148438 217.585938 666.539062 220.339844 666.882812 223.097656 C 667.222656 225.855469 667.511719 228.621094 667.75 231.390625 C 667.988281 234.160156 668.175781 236.933594 668.3125 239.707031 C 668.449219 242.484375 668.535156 245.261719 668.570312 248.042969 C 668.605469 250.820312 668.589844 253.601562 668.519531 256.378906 C 668.453125 259.160156 668.332031 261.933594 668.164062 264.710938 C 667.992188 267.484375 667.773438 270.253906 667.5 273.019531 C 667.226562 275.789062 666.90625 278.546875 666.53125 281.300781 C 666.15625 284.058594 665.730469 286.804688 665.257812 289.542969 C 664.78125 292.28125 664.257812 295.011719 663.679688 297.730469 C 663.105469 300.449219 662.480469 303.15625 661.804688 305.855469 C 661.128906 308.550781 660.402344 311.234375 659.628906 313.902344 C 658.855469 316.574219 658.03125 319.226562 657.160156 321.867188 C 656.285156 324.503906 655.367188 327.128906 654.398438 329.734375 C 653.429688 332.339844 652.414062 334.925781 651.347656 337.492188 C 650.285156 340.0625 649.171875 342.609375 648.015625 345.136719 C 646.855469 347.664062 645.652344 350.167969 644.402344 352.652344 C 643.152344 355.132812 641.855469 357.59375 640.515625 360.027344 C 639.175781 362.460938 637.789062 364.871094 636.359375 367.253906 C 634.929688 369.640625 633.457031 371.996094 631.941406 374.324219 C 630.425781 376.65625 628.867188 378.957031 627.265625 381.230469 C 625.664062 383.5 624.023438 385.742188 622.339844 387.953125 C 620.652344 390.167969 618.929688 392.347656 617.167969 394.496094 C 615.402344 396.644531 613.597656 398.757812 611.757812 400.839844 C 609.914062 402.921875 608.035156 404.96875 606.117188 406.980469 C 604.199219 408.992188 602.246094 410.96875 600.257812 412.910156 C 598.265625 414.851562 596.242188 416.753906 594.179688 418.621094 C 592.121094 420.488281 590.027344 422.3125 587.898438 424.101562 C 585.769531 425.890625 583.609375 427.640625 581.417969 429.351562 C 579.226562 431.058594 577.003906 432.726562 574.75 434.355469 C 572.496094 435.980469 570.214844 437.566406 567.902344 439.109375 C 565.589844 440.652344 563.25 442.152344 560.882812 443.609375 C 558.515625 445.066406 556.121094 446.480469 553.703125 447.847656 C 551.285156 449.21875 548.839844 450.542969 546.371094 451.820312 C 543.902344 453.101562 541.414062 454.332031 538.898438 455.519531 C 536.386719 456.707031 533.851562 457.847656 531.296875 458.941406 C 528.738281 460.035156 526.164062 461.082031 523.570312 462.078125 C 520.976562 463.078125 518.367188 464.027344 515.734375 464.929688 C 513.105469 465.832031 510.460938 466.6875 507.800781 467.492188 C 505.140625 468.296875 502.464844 469.054688 499.777344 469.761719 C 497.089844 470.46875 494.390625 471.125 491.675781 471.730469 C 488.964844 472.339844 486.242188 472.894531 483.507812 473.402344 C 480.773438 473.910156 478.035156 474.363281 475.285156 474.769531 C 472.535156 475.175781 469.777344 475.53125 467.015625 475.835938 C 464.25 476.140625 461.484375 476.394531 458.710938 476.59375 C 455.9375 476.796875 453.164062 476.949219 450.386719 477.050781 C 447.609375 477.148438 444.828125 477.199219 442.050781 477.195312 Z M 442.050781 74.152344 C 438.671875 74.144531 435.300781 74.230469 431.929688 74.417969 C 428.558594 74.605469 425.195312 74.886719 421.839844 75.265625 C 418.484375 75.644531 415.144531 76.117188 411.816406 76.6875 C 408.488281 77.257812 405.183594 77.921875 401.890625 78.679688 C 398.601562 79.441406 395.339844 80.292969 392.097656 81.242188 C 388.855469 82.1875 385.644531 83.226562 382.464844 84.359375 C 379.285156 85.488281 376.140625 86.710938 373.027344 88.019531 C 369.917969 89.332031 366.847656 90.730469 363.816406 92.21875 C 360.785156 93.703125 357.800781 95.277344 354.859375 96.9375 C 351.917969 98.59375 349.027344 100.335938 346.1875 102.160156 C 343.34375 103.984375 340.558594 105.886719 337.828125 107.871094 C 335.097656 109.855469 332.421875 111.914062 329.808594 114.050781 C 327.195312 116.1875 324.644531 118.398438 322.160156 120.679688 C 319.671875 122.964844 317.253906 125.316406 314.898438 127.738281 C 312.546875 130.160156 310.265625 132.648438 308.058594 135.199219 C 305.847656 137.75 303.714844 140.367188 301.652344 143.039062 C 299.59375 145.714844 297.613281 148.445312 295.710938 151.234375 C 293.804688 154.023438 291.984375 156.863281 290.246094 159.757812 C 288.503906 162.648438 286.847656 165.589844 285.277344 168.578125 C 283.703125 171.566406 282.21875 174.59375 280.820312 177.667969 C 279.421875 180.742188 278.113281 183.851562 276.894531 187 C 275.675781 190.148438 274.546875 193.328125 273.507812 196.539062 C 272.46875 199.75 271.527344 202.992188 270.671875 206.257812 C 269.820312 209.523438 269.0625 212.8125 268.402344 216.125 C 267.738281 219.433594 267.167969 222.757812 266.695312 226.101562 C 266.222656 229.445312 265.847656 232.796875 265.566406 236.164062 C 265.285156 239.527344 265.101562 242.898438 265.015625 246.269531 C 264.925781 249.644531 264.9375 253.019531 265.042969 256.394531 C 265.148438 259.769531 265.351562 263.136719 265.648438 266.5 C 265.949219 269.863281 266.34375 273.214844 266.835938 276.554688 C 267.324219 279.894531 267.914062 283.21875 268.59375 286.523438 C 269.277344 289.832031 270.050781 293.113281 270.921875 296.375 C 271.792969 299.636719 272.753906 302.871094 273.808594 306.078125 C 274.863281 309.285156 276.011719 312.460938 277.246094 315.601562 C 278.484375 318.742188 279.8125 321.84375 281.226562 324.910156 C 282.640625 327.976562 284.140625 330.996094 285.730469 333.976562 C 287.320312 336.957031 288.992188 339.886719 290.746094 342.769531 C 292.503906 345.652344 294.339844 348.484375 296.257812 351.261719 C 298.179688 354.039062 300.175781 356.757812 302.25 359.421875 C 304.324219 362.085938 306.472656 364.6875 308.695312 367.230469 C 310.917969 369.769531 313.214844 372.242188 315.578125 374.652344 C 317.945312 377.0625 320.375 379.398438 322.875 381.667969 C 325.375 383.9375 327.9375 386.132812 330.5625 388.257812 C 333.1875 390.378906 335.871094 392.425781 338.613281 394.394531 C 341.359375 396.363281 344.152344 398.25 347.003906 400.058594 C 349.855469 401.867188 352.753906 403.59375 355.707031 405.234375 C 358.65625 406.875 361.648438 408.433594 364.6875 409.902344 C 367.726562 411.375 370.804688 412.753906 373.921875 414.050781 C 377.042969 415.34375 380.195312 416.546875 383.382812 417.660156 C 386.570312 418.773438 389.785156 419.796875 393.03125 420.722656 C 396.277344 421.652344 399.546875 422.488281 402.839844 423.230469 C 406.132812 423.972656 409.445312 424.617188 412.773438 425.167969 C 416.105469 425.722656 419.449219 426.175781 422.804688 426.539062 C 426.164062 426.898438 429.527344 427.160156 432.898438 427.328125 C 436.269531 427.496094 439.644531 427.566406 443.019531 427.539062 C 446.394531 427.515625 449.769531 427.390625 453.136719 427.171875 C 456.503906 426.953125 459.867188 426.636719 463.214844 426.226562 C 466.566406 425.8125 469.902344 425.304688 473.222656 424.703125 C 476.546875 424.097656 479.847656 423.402344 483.128906 422.609375 C 486.410156 421.816406 489.667969 420.929688 492.898438 419.949219 C 496.128906 418.972656 499.328125 417.902344 502.5 416.738281 C 505.667969 415.578125 508.800781 414.324219 511.898438 412.980469 C 514.996094 411.640625 518.054688 410.210938 521.070312 408.691406 C 524.085938 407.175781 527.054688 405.574219 529.980469 403.886719 C 532.902344 402.199219 535.777344 400.429688 538.597656 398.574219 C 541.421875 396.722656 544.1875 394.792969 546.898438 392.78125 C 549.609375 390.769531 552.261719 388.683594 554.855469 386.519531 C 557.449219 384.359375 559.976562 382.121094 562.441406 379.816406 C 564.902344 377.507812 567.300781 375.128906 569.628906 372.6875 C 571.953125 370.242188 574.210938 367.730469 576.394531 365.15625 C 578.578125 362.582031 580.6875 359.949219 582.71875 357.253906 C 584.753906 354.558594 586.707031 351.804688 588.582031 349 C 590.457031 346.191406 592.25 343.332031 593.960938 340.421875 C 595.675781 337.511719 597.300781 334.554688 598.84375 331.554688 C 600.382812 328.550781 601.839844 325.503906 603.207031 322.417969 C 604.574219 319.332031 605.851562 316.207031 607.039062 313.046875 C 608.230469 309.890625 609.324219 306.699219 610.332031 303.476562 C 611.335938 300.253906 612.25 297.003906 613.066406 293.726562 C 613.886719 290.453125 614.613281 287.15625 615.242188 283.839844 C 615.871094 280.523438 616.40625 277.191406 616.847656 273.84375 C 617.285156 270.5 617.628906 267.140625 617.875 263.773438 C 618.125 260.40625 618.273438 257.035156 618.328125 253.660156 C 618.382812 250.285156 618.339844 246.910156 618.199219 243.539062 C 618.058594 240.164062 617.824219 236.796875 617.492188 233.4375 C 617.15625 230.078125 616.730469 226.730469 616.203125 223.398438 C 615.679688 220.0625 615.0625 216.746094 614.347656 213.445312 C 613.632812 210.144531 612.824219 206.871094 611.921875 203.617188 C 611.019531 200.363281 610.023438 197.140625 608.9375 193.941406 C 607.847656 190.746094 606.671875 187.585938 605.402344 184.457031 C 604.132812 181.328125 602.777344 178.238281 601.332031 175.1875 C 599.886719 172.136719 598.355469 169.128906 596.738281 166.167969 C 595.117188 163.203125 593.417969 160.289062 591.632812 157.425781 C 589.847656 154.558594 587.980469 151.746094 586.035156 148.988281 C 584.089844 146.230469 582.066406 143.527344 579.964844 140.886719 C 577.863281 138.242188 575.691406 135.664062 573.441406 133.144531 C 571.191406 130.628906 568.875 128.175781 566.484375 125.792969 C 562.410156 121.714844 558.144531 117.84375 553.6875 114.1875 C 549.234375 110.527344 544.609375 107.097656 539.820312 103.890625 C 535.027344 100.6875 530.089844 97.722656 525.007812 95.003906 C 519.925781 92.28125 514.722656 89.816406 509.398438 87.609375 C 504.074219 85.398438 498.652344 83.453125 493.136719 81.777344 C 487.621094 80.097656 482.039062 78.695312 476.386719 77.566406 C 470.730469 76.4375 465.039062 75.585938 459.300781 75.015625 C 453.5625 74.445312 447.8125 74.15625 442.050781 74.152344 Z M 442.050781 74.152344 " fill-opacity="1" fill-rule="nonzero"/><g clip-path="url(#cad4c24d40)"><path fill="#d1308c" d="M 763.089844 596.777344 C 761.460938 596.769531 759.84375 596.605469 758.246094 596.28125 C 756.644531 595.957031 755.09375 595.476562 753.589844 594.847656 C 752.085938 594.21875 750.65625 593.449219 749.300781 592.539062 C 747.949219 591.625 746.695312 590.59375 745.546875 589.4375 L 566.980469 410.996094 C 566.40625 410.417969 565.859375 409.816406 565.339844 409.183594 C 564.824219 408.554688 564.339844 407.902344 563.886719 407.222656 C 563.433594 406.542969 563.011719 405.847656 562.628906 405.125 C 562.246094 404.40625 561.894531 403.671875 561.582031 402.917969 C 561.273438 402.164062 560.996094 401.398438 560.761719 400.617188 C 560.523438 399.835938 560.324219 399.046875 560.167969 398.246094 C 560.007812 397.445312 559.886719 396.640625 559.808594 395.828125 C 559.726562 395.015625 559.6875 394.203125 559.6875 393.386719 C 559.6875 392.574219 559.726562 391.757812 559.808594 390.949219 C 559.886719 390.136719 560.007812 389.332031 560.167969 388.53125 C 560.324219 387.730469 560.523438 386.941406 560.761719 386.160156 C 560.996094 385.378906 561.273438 384.613281 561.582031 383.859375 C 561.894531 383.105469 562.246094 382.371094 562.628906 381.648438 C 563.011719 380.929688 563.433594 380.230469 563.886719 379.554688 C 564.339844 378.875 564.824219 378.222656 565.339844 377.589844 C 565.859375 376.960938 566.40625 376.359375 566.980469 375.78125 C 567.558594 375.203125 568.160156 374.65625 568.792969 374.140625 C 569.421875 373.621094 570.078125 373.136719 570.753906 372.683594 C 571.433594 372.230469 572.132812 371.8125 572.851562 371.429688 C 573.570312 371.042969 574.304688 370.695312 575.058594 370.382812 C 575.8125 370.070312 576.582031 369.796875 577.359375 369.558594 C 578.140625 369.324219 578.929688 369.125 579.730469 368.964844 C 580.53125 368.808594 581.335938 368.6875 582.148438 368.609375 C 582.960938 368.527344 583.773438 368.488281 584.589844 368.488281 C 585.40625 368.488281 586.21875 368.527344 587.03125 368.609375 C 587.839844 368.6875 588.648438 368.808594 589.445312 368.964844 C 590.246094 369.125 591.035156 369.324219 591.816406 369.558594 C 592.597656 369.796875 593.363281 370.070312 594.117188 370.382812 C 594.871094 370.695312 595.609375 371.042969 596.328125 371.429688 C 597.046875 371.8125 597.746094 372.230469 598.421875 372.683594 C 599.101562 373.136719 599.753906 373.621094 600.386719 374.140625 C 601.015625 374.65625 601.621094 375.203125 602.195312 375.78125 L 780.636719 554.34375 C 781.496094 555.210938 782.289062 556.132812 783.011719 557.117188 C 783.738281 558.097656 784.386719 559.128906 784.960938 560.203125 C 785.53125 561.28125 786.023438 562.394531 786.433594 563.542969 C 786.839844 564.695312 787.164062 565.867188 787.402344 567.0625 C 787.636719 568.261719 787.785156 569.46875 787.84375 570.6875 C 787.902344 571.90625 787.875 573.121094 787.753906 574.335938 C 787.632812 575.550781 787.425781 576.75 787.128906 577.933594 C 786.832031 579.117188 786.453125 580.273438 785.984375 581.398438 C 785.519531 582.527344 784.972656 583.613281 784.347656 584.664062 C 783.71875 585.710938 783.019531 586.707031 782.25 587.648438 C 781.476562 588.59375 780.636719 589.476562 779.734375 590.296875 C 778.832031 591.117188 777.875 591.871094 776.863281 592.550781 C 775.851562 593.230469 774.792969 593.832031 773.691406 594.359375 C 772.589844 594.882812 771.457031 595.324219 770.289062 595.683594 C 769.125 596.039062 767.9375 596.3125 766.730469 596.496094 C 765.523438 596.679688 764.3125 596.773438 763.089844 596.777344 Z M 763.089844 596.777344 " fill-opacity="1" fill-rule="nonzero"/></g></svg>