<svg xmlns="http://www.w3.org/2000/svg" xmlns:xlink="http://www.w3.org/1999/xlink" width="1280" zoomAndPan="magnify" viewBox="0 0 960 599.999999" height="800" preserveAspectRatio="xMidYMid meet" version="1.0"><defs><clipPath id="9aa89b5a1d"><path d="M 531 370 L 709 370 L 709 547.460938 L 531 547.460938 Z M 531 370 " clip-rule="nonzero"/></clipPath></defs><path fill="#000000" d="M 440.15625 454.835938 C 436.566406 454.835938 432.980469 454.730469 429.398438 454.511719 C 425.8125 454.292969 422.242188 453.964844 418.675781 453.527344 C 415.113281 453.089844 411.566406 452.542969 408.039062 451.886719 C 404.507812 451.230469 401 450.46875 397.519531 449.597656 C 394.035156 448.726562 390.582031 447.75 387.160156 446.664062 C 383.738281 445.582031 380.351562 444.394531 377 443.105469 C 373.652344 441.8125 370.34375 440.421875 367.078125 438.929688 C 363.816406 437.433594 360.597656 435.839844 357.433594 434.148438 C 354.265625 432.457031 351.152344 430.671875 348.097656 428.789062 C 345.039062 426.90625 342.042969 424.933594 339.109375 422.867188 C 336.171875 420.800781 333.300781 418.644531 330.5 416.402344 C 327.695312 414.160156 324.964844 411.835938 322.300781 409.425781 C 319.640625 407.011719 317.058594 404.523438 314.550781 401.957031 C 312.042969 399.386719 309.617188 396.742188 307.269531 394.023438 C 304.925781 391.308594 302.664062 388.519531 300.488281 385.664062 C 298.316406 382.804688 296.230469 379.886719 294.234375 376.902344 C 292.242188 373.917969 290.339844 370.875 288.53125 367.773438 C 286.722656 364.671875 285.011719 361.515625 283.398438 358.308594 C 281.78125 355.101562 280.265625 351.851562 278.851562 348.550781 C 277.4375 345.25 276.125 341.910156 274.914062 338.53125 C 273.707031 335.152344 272.601562 331.738281 271.601562 328.289062 C 270.601562 324.839844 269.707031 321.367188 268.921875 317.863281 C 268.132812 314.359375 267.453125 310.835938 266.882812 307.292969 C 266.3125 303.746094 265.851562 300.1875 265.5 296.617188 C 265.148438 293.042969 264.90625 289.464844 264.773438 285.875 C 264.640625 282.289062 264.621094 278.699219 264.707031 275.109375 C 264.796875 271.523438 264.996094 267.9375 265.304688 264.363281 C 265.609375 260.785156 266.027344 257.222656 266.554688 253.671875 C 267.082031 250.117188 267.71875 246.585938 268.460938 243.074219 C 269.207031 239.5625 270.054688 236.078125 271.015625 232.617188 C 271.972656 229.15625 273.035156 225.730469 274.203125 222.335938 C 275.371094 218.941406 276.640625 215.585938 278.015625 212.269531 C 279.390625 208.953125 280.867188 205.679688 282.441406 202.453125 C 284.015625 199.226562 285.6875 196.054688 287.457031 192.929688 C 289.230469 189.804688 291.09375 186.742188 293.050781 183.730469 C 295.007812 180.722656 297.058594 177.777344 299.199219 174.894531 C 301.335938 172.011719 303.5625 169.195312 305.875 166.449219 C 308.1875 163.703125 310.582031 161.03125 313.054688 158.429688 C 315.53125 155.832031 318.085938 153.308594 320.714844 150.867188 C 323.347656 148.421875 326.050781 146.0625 328.828125 143.789062 C 331.601562 141.511719 334.445312 139.320312 337.355469 137.21875 C 340.265625 135.117188 343.238281 133.105469 346.273438 131.1875 C 349.304688 129.265625 352.394531 127.441406 355.539062 125.710938 C 358.6875 123.980469 361.882812 122.347656 365.128906 120.816406 C 368.375 119.28125 371.664062 117.847656 374.996094 116.515625 C 378.332031 115.183594 381.703125 113.957031 385.113281 112.832031 C 388.523438 111.707031 391.960938 110.6875 395.433594 109.773438 C 398.90625 108.859375 402.402344 108.054688 405.925781 107.355469 C 409.445312 106.65625 412.984375 106.066406 416.542969 105.585938 C 420.101562 105.101562 423.667969 104.730469 427.25 104.46875 C 430.832031 104.207031 434.414062 104.054688 438.003906 104.011719 C 441.59375 103.96875 445.183594 104.039062 448.769531 104.214844 C 452.355469 104.394531 455.929688 104.679688 459.5 105.078125 C 463.066406 105.476562 466.621094 105.984375 470.15625 106.597656 C 473.695312 107.214844 477.207031 107.9375 480.699219 108.769531 C 484.191406 109.601562 487.65625 110.539062 491.089844 111.582031 C 494.527344 112.625 497.925781 113.773438 501.289062 115.027344 C 504.65625 116.28125 507.976562 117.636719 511.257812 119.09375 C 514.539062 120.550781 517.773438 122.105469 520.957031 123.761719 C 524.144531 125.417969 527.277344 127.167969 530.355469 129.015625 C 533.433594 130.863281 536.453125 132.804688 539.410156 134.835938 C 542.371094 136.871094 545.261719 138.992188 548.089844 141.203125 C 550.921875 143.414062 553.679688 145.707031 556.367188 148.089844 C 559.054688 150.46875 561.667969 152.929688 564.203125 155.46875 C 567.25 158.511719 570.183594 161.664062 572.996094 164.925781 C 575.8125 168.183594 578.503906 171.542969 581.074219 175.003906 C 583.640625 178.460938 586.078125 182.011719 588.382812 185.648438 C 590.691406 189.285156 592.859375 193.003906 594.890625 196.804688 C 596.925781 200.601562 598.8125 204.46875 600.5625 208.40625 C 602.308594 212.34375 603.90625 216.339844 605.359375 220.394531 C 606.8125 224.453125 608.113281 228.554688 609.265625 232.707031 C 610.414062 236.855469 611.410156 241.046875 612.25 245.269531 C 613.09375 249.496094 613.777344 253.746094 614.304688 258.019531 C 614.832031 262.292969 615.203125 266.582031 615.414062 270.886719 C 615.628906 275.1875 615.679688 279.492188 615.574219 283.800781 C 615.46875 288.105469 615.207031 292.402344 614.785156 296.6875 C 614.363281 300.976562 613.785156 305.242188 613.046875 309.484375 C 612.3125 313.730469 611.417969 317.941406 610.371094 322.121094 C 609.324219 326.296875 608.125 330.433594 606.773438 334.523438 C 605.421875 338.613281 603.921875 342.648438 602.273438 346.628906 C 600.625 350.605469 598.832031 354.519531 596.894531 358.367188 C 594.957031 362.214844 592.882812 365.984375 590.664062 369.679688 C 588.449219 373.375 586.101562 376.980469 583.621094 380.503906 C 581.140625 384.023438 578.53125 387.449219 575.796875 390.777344 C 573.0625 394.109375 570.210938 397.332031 567.242188 400.449219 C 564.269531 403.570312 561.1875 406.574219 557.992188 409.464844 C 554.800781 412.359375 551.507812 415.128906 548.109375 417.777344 C 544.710938 420.425781 541.222656 422.945312 537.640625 425.335938 C 534.054688 427.726562 530.390625 429.984375 526.640625 432.105469 C 522.890625 434.226562 519.070312 436.207031 515.175781 438.046875 C 511.28125 439.886719 507.320312 441.578125 503.300781 443.128906 C 499.28125 444.675781 495.210938 446.074219 491.085938 447.320312 C 486.964844 448.570312 482.800781 449.664062 478.597656 450.605469 C 474.394531 451.542969 470.160156 452.328125 465.898438 452.957031 C 461.636719 453.585938 457.359375 454.058594 453.0625 454.371094 C 448.765625 454.683594 444.464844 454.839844 440.15625 454.835938 Z M 440.15625 142.648438 C 437.542969 142.644531 434.929688 142.710938 432.320312 142.855469 C 429.707031 143 427.101562 143.21875 424.503906 143.511719 C 421.90625 143.804688 419.320312 144.171875 416.742188 144.613281 C 414.164062 145.054688 411.601562 145.570312 409.054688 146.160156 C 406.503906 146.746094 403.976562 147.410156 401.464844 148.140625 C 398.957031 148.875 396.46875 149.679688 394.003906 150.554688 C 391.542969 151.429688 389.105469 152.378906 386.695312 153.394531 C 384.285156 154.410156 381.90625 155.492188 379.558594 156.644531 C 377.210938 157.796875 374.898438 159.015625 372.621094 160.296875 C 370.34375 161.582031 368.105469 162.929688 365.90625 164.34375 C 363.703125 165.757812 361.546875 167.230469 359.429688 168.769531 C 357.316406 170.304688 355.246094 171.902344 353.21875 173.554688 C 351.195312 175.210938 349.21875 176.921875 347.292969 178.691406 C 345.367188 180.460938 343.492188 182.28125 341.671875 184.15625 C 339.851562 186.03125 338.082031 187.960938 336.371094 189.9375 C 334.660156 191.914062 333.007812 193.9375 331.410156 196.007812 C 329.816406 198.082031 328.28125 200.195312 326.808594 202.355469 C 325.332031 204.515625 323.921875 206.714844 322.574219 208.957031 C 321.226562 211.199219 319.941406 213.476562 318.726562 215.789062 C 317.507812 218.105469 316.359375 220.449219 315.273438 222.832031 C 314.191406 225.210938 313.179688 227.621094 312.234375 230.058594 C 311.289062 232.496094 310.414062 234.960938 309.609375 237.449219 C 308.808594 239.9375 308.074219 242.445312 307.414062 244.976562 C 306.753906 247.507812 306.167969 250.054688 305.65625 252.617188 C 305.140625 255.179688 304.699219 257.757812 304.335938 260.347656 C 303.96875 262.9375 303.675781 265.535156 303.460938 268.140625 C 303.242188 270.746094 303.097656 273.355469 303.03125 275.96875 C 302.964844 278.582031 302.972656 281.195312 303.054688 283.8125 C 303.136719 286.425781 303.292969 289.035156 303.523438 291.636719 C 303.753906 294.242188 304.0625 296.839844 304.441406 299.425781 C 304.820312 302.011719 305.277344 304.585938 305.804688 307.148438 C 306.332031 309.707031 306.933594 312.253906 307.605469 314.777344 C 308.28125 317.304688 309.027344 319.8125 309.84375 322.292969 C 310.660156 324.777344 311.546875 327.238281 312.507812 329.671875 C 313.464844 332.101562 314.492188 334.507812 315.589844 336.878906 C 316.683594 339.253906 317.847656 341.59375 319.078125 343.902344 C 320.308594 346.210938 321.601562 348.480469 322.964844 350.714844 C 324.324219 352.945312 325.746094 355.140625 327.234375 357.292969 C 328.71875 359.441406 330.265625 361.550781 331.871094 363.613281 C 333.480469 365.675781 335.144531 367.691406 336.867188 369.660156 C 338.589844 371.625 340.367188 373.542969 342.199219 375.410156 C 344.03125 377.273438 345.914062 379.085938 347.847656 380.84375 C 349.785156 382.601562 351.769531 384.304688 353.804688 385.945312 C 355.835938 387.589844 357.917969 389.175781 360.039062 390.699219 C 362.164062 392.226562 364.332031 393.6875 366.539062 395.089844 C 368.746094 396.488281 370.992188 397.824219 373.277344 399.097656 C 375.5625 400.367188 377.882812 401.574219 380.234375 402.714844 C 382.589844 403.851562 384.972656 404.921875 387.390625 405.925781 C 389.804688 406.925781 392.246094 407.859375 394.714844 408.722656 C 397.183594 409.585938 399.675781 410.375 402.1875 411.09375 C 404.703125 411.816406 407.234375 412.460938 409.785156 413.035156 C 412.335938 413.609375 414.902344 414.109375 417.484375 414.539062 C 420.0625 414.964844 422.652344 415.320312 425.253906 415.597656 C 427.851562 415.875 430.457031 416.082031 433.070312 416.210938 C 435.679688 416.339844 438.292969 416.394531 440.910156 416.375 C 443.523438 416.355469 446.136719 416.257812 448.746094 416.089844 C 451.355469 415.917969 453.957031 415.675781 456.554688 415.355469 C 459.148438 415.035156 461.730469 414.644531 464.304688 414.175781 C 466.878906 413.707031 469.433594 413.167969 471.976562 412.554688 C 474.519531 411.941406 477.042969 411.253906 479.542969 410.496094 C 482.046875 409.738281 484.523438 408.910156 486.980469 408.007812 C 489.433594 407.109375 491.863281 406.136719 494.261719 405.097656 C 496.660156 404.058594 499.027344 402.953125 501.363281 401.777344 C 503.699219 400.601562 506 399.359375 508.265625 398.050781 C 510.53125 396.746094 512.753906 395.375 514.941406 393.941406 C 517.128906 392.503906 519.269531 391.007812 521.371094 389.453125 C 523.472656 387.894531 525.527344 386.277344 527.535156 384.601562 C 529.542969 382.925781 531.5 381.195312 533.410156 379.40625 C 535.316406 377.621094 537.171875 375.78125 538.976562 373.886719 C 540.777344 371.992188 542.527344 370.046875 544.21875 368.054688 C 545.910156 366.058594 547.542969 364.019531 549.117188 361.933594 C 550.691406 359.84375 552.207031 357.714844 553.65625 355.539062 C 555.109375 353.363281 556.5 351.148438 557.824219 348.894531 C 559.152344 346.640625 560.410156 344.351562 561.605469 342.027344 C 562.800781 339.699219 563.925781 337.339844 564.984375 334.949219 C 566.042969 332.558594 567.035156 330.140625 567.953125 327.691406 C 568.875 325.246094 569.726562 322.773438 570.503906 320.277344 C 571.28125 317.78125 571.988281 315.265625 572.625 312.726562 C 573.257812 310.191406 573.820312 307.636719 574.308594 305.070312 C 574.796875 302.5 575.210938 299.917969 575.550781 297.328125 C 575.890625 294.734375 576.15625 292.132812 576.347656 289.527344 C 576.539062 286.917969 576.65625 284.308594 576.699219 281.691406 C 576.738281 279.078125 576.707031 276.464844 576.597656 273.851562 C 576.488281 271.238281 576.308594 268.632812 576.050781 266.03125 C 575.792969 263.425781 575.460938 260.835938 575.054688 258.25 C 574.648438 255.667969 574.167969 253.097656 573.613281 250.542969 C 573.058594 247.988281 572.433594 245.449219 571.734375 242.929688 C 571.035156 240.410156 570.265625 237.914062 569.421875 235.4375 C 568.582031 232.960938 567.667969 230.511719 566.6875 228.089844 C 565.703125 225.664062 564.652344 223.273438 563.535156 220.910156 C 562.414062 218.546875 561.226562 216.21875 559.972656 213.921875 C 558.722656 211.628906 557.402344 209.371094 556.019531 207.152344 C 554.636719 204.929688 553.191406 202.753906 551.683594 200.617188 C 550.179688 198.480469 548.609375 196.386719 546.984375 194.339844 C 545.355469 192.292969 543.671875 190.296875 541.929688 188.34375 C 540.1875 186.394531 538.390625 184.496094 536.542969 182.648438 C 533.382812 179.492188 530.082031 176.496094 526.628906 173.660156 C 523.179688 170.828125 519.597656 168.167969 515.886719 165.6875 C 512.175781 163.203125 508.351562 160.910156 504.414062 158.800781 C 500.476562 156.695312 496.449219 154.785156 492.324219 153.074219 C 488.199219 151.363281 484 149.855469 479.730469 148.558594 C 475.457031 147.257812 471.132812 146.171875 466.753906 145.296875 C 462.375 144.421875 457.964844 143.761719 453.519531 143.320312 C 449.078125 142.878906 444.621094 142.65625 440.15625 142.648438 Z M 440.15625 142.648438 " fill-opacity="1" fill-rule="nonzero"/><g clip-path="url(#9aa89b5a1d)"><path fill="#000000" d="M 688.828125 547.460938 C 687.5625 547.457031 686.3125 547.328125 685.074219 547.074219 C 683.835938 546.824219 682.632812 546.453125 681.46875 545.96875 C 680.300781 545.480469 679.195312 544.882812 678.144531 544.175781 C 677.097656 543.472656 676.128906 542.671875 675.238281 541.773438 L 536.925781 403.558594 C 536.480469 403.113281 536.054688 402.644531 535.65625 402.15625 C 535.253906 401.667969 534.878906 401.164062 534.527344 400.636719 C 534.175781 400.113281 533.851562 399.570312 533.554688 399.015625 C 533.257812 398.457031 532.988281 397.886719 532.746094 397.304688 C 532.503906 396.71875 532.292969 396.125 532.109375 395.519531 C 531.925781 394.917969 531.769531 394.304688 531.648438 393.683594 C 531.523438 393.066406 531.433594 392.441406 531.371094 391.8125 C 531.308594 391.183594 531.277344 390.554688 531.277344 389.921875 C 531.277344 389.289062 531.308594 388.660156 531.371094 388.03125 C 531.433594 387.402344 531.523438 386.777344 531.648438 386.160156 C 531.769531 385.539062 531.925781 384.925781 532.109375 384.324219 C 532.292969 383.71875 532.503906 383.125 532.746094 382.539062 C 532.988281 381.957031 533.257812 381.386719 533.554688 380.828125 C 533.851562 380.273438 534.175781 379.730469 534.527344 379.207031 C 534.878906 378.679688 535.253906 378.175781 535.65625 377.6875 C 536.054688 377.199219 536.480469 376.730469 536.925781 376.285156 C 537.375 375.835938 537.839844 375.414062 538.328125 375.011719 C 538.816406 374.613281 539.324219 374.234375 539.847656 373.886719 C 540.375 373.535156 540.914062 373.210938 541.472656 372.910156 C 542.03125 372.613281 542.601562 372.34375 543.183594 372.101562 C 543.765625 371.859375 544.363281 371.648438 544.964844 371.464844 C 545.570312 371.28125 546.183594 371.128906 546.800781 371.003906 C 547.421875 370.882812 548.046875 370.789062 548.675781 370.726562 C 549.304688 370.664062 549.933594 370.632812 550.566406 370.632812 C 551.195312 370.632812 551.828125 370.664062 552.457031 370.726562 C 553.082031 370.789062 553.707031 370.882812 554.328125 371.003906 C 554.945312 371.128906 555.558594 371.28125 556.164062 371.464844 C 556.769531 371.648438 557.363281 371.859375 557.945312 372.101562 C 558.53125 372.34375 559.101562 372.613281 559.65625 372.910156 C 560.214844 373.210938 560.753906 373.535156 561.28125 373.886719 C 561.804688 374.234375 562.3125 374.613281 562.800781 375.011719 C 563.289062 375.414062 563.757812 375.835938 564.203125 376.285156 L 702.417969 514.59375 C 703.082031 515.265625 703.695312 515.980469 704.257812 516.738281 C 704.820312 517.5 705.320312 518.296875 705.765625 519.132812 C 706.210938 519.96875 706.589844 520.828125 706.90625 521.71875 C 707.222656 522.609375 707.472656 523.519531 707.65625 524.445312 C 707.839844 525.371094 707.953125 526.308594 708 527.253906 C 708.046875 528.195312 708.023438 529.136719 707.929688 530.078125 C 707.835938 531.019531 707.675781 531.949219 707.445312 532.863281 C 707.214844 533.78125 706.921875 534.675781 706.558594 535.550781 C 706.199219 536.421875 705.777344 537.265625 705.289062 538.078125 C 704.804688 538.886719 704.265625 539.660156 703.664062 540.390625 C 703.066406 541.121094 702.417969 541.804688 701.71875 542.441406 C 701.019531 543.078125 700.277344 543.660156 699.496094 544.1875 C 698.710938 544.714844 697.890625 545.179688 697.039062 545.585938 C 696.183594 545.992188 695.304688 546.335938 694.402344 546.613281 C 693.5 546.890625 692.582031 547.097656 691.644531 547.242188 C 690.710938 547.382812 689.773438 547.457031 688.828125 547.460938 Z M 688.828125 547.460938 " fill-opacity="1" fill-rule="nonzero"/></g></svg>