<svg xmlns="http://www.w3.org/2000/svg" xmlns:xlink="http://www.w3.org/1999/xlink" width="1280" zoomAndPan="magnify" viewBox="0 0 960 599.999999" height="800" preserveAspectRatio="xMidYMid meet" version="1.0"><defs><clipPath id="5d9bbd076a"><path d="M 185.367188 0 L 785.367188 0 L 785.367188 600 L 185.367188 600 Z M 185.367188 0 " clip-rule="nonzero"/></clipPath></defs><path fill="#8c52ff" d="M 573.917969 281.433594 C 573.917969 283.1875 573.875 284.9375 573.789062 286.6875 C 573.703125 288.441406 573.574219 290.1875 573.402344 291.933594 C 573.230469 293.675781 573.015625 295.414062 572.757812 297.148438 C 572.5 298.882812 572.199219 300.609375 571.859375 302.332031 C 571.515625 304.050781 571.132812 305.757812 570.707031 307.460938 C 570.28125 309.160156 569.8125 310.847656 569.304688 312.527344 C 568.796875 314.203125 568.246094 315.867188 567.65625 317.519531 C 567.0625 319.167969 566.433594 320.804688 565.761719 322.425781 C 565.089844 324.042969 564.382812 325.644531 563.632812 327.230469 C 562.882812 328.816406 562.09375 330.382812 561.269531 331.925781 C 560.441406 333.472656 559.578125 334.996094 558.675781 336.5 C 557.777344 338.003906 556.839844 339.484375 555.863281 340.945312 C 554.890625 342.402344 553.882812 343.832031 552.835938 345.242188 C 551.792969 346.648438 550.714844 348.03125 549.601562 349.386719 C 548.488281 350.742188 547.34375 352.070312 546.167969 353.367188 C 544.992188 354.667969 543.78125 355.9375 542.542969 357.175781 C 541.304688 358.414062 540.035156 359.625 538.734375 360.800781 C 537.4375 361.976562 536.109375 363.121094 534.753906 364.234375 C 533.398438 365.347656 532.015625 366.425781 530.609375 367.46875 C 529.199219 368.515625 527.769531 369.523438 526.3125 370.496094 C 524.851562 371.472656 523.371094 372.410156 521.867188 373.308594 C 520.363281 374.210938 518.839844 375.074219 517.292969 375.902344 C 515.75 376.726562 514.183594 377.515625 512.597656 378.265625 C 511.011719 379.015625 509.410156 379.722656 507.792969 380.394531 C 506.171875 381.066406 504.535156 381.695312 502.886719 382.289062 C 501.234375 382.878906 499.570312 383.429688 497.894531 383.9375 C 496.214844 384.445312 494.527344 384.914062 492.828125 385.339844 C 491.125 385.765625 489.417969 386.148438 487.699219 386.492188 C 485.976562 386.832031 484.25 387.132812 482.515625 387.390625 C 480.78125 387.648438 479.042969 387.863281 477.300781 388.035156 C 475.554688 388.207031 473.808594 388.335938 472.054688 388.421875 C 470.304688 388.507812 468.554688 388.550781 466.800781 388.550781 C 465.046875 388.550781 463.296875 388.507812 461.542969 388.421875 C 459.792969 388.335938 458.046875 388.207031 456.300781 388.035156 C 454.554688 387.863281 452.816406 387.648438 451.082031 387.390625 C 449.347656 387.132812 447.621094 386.832031 445.902344 386.492188 C 444.183594 386.148438 442.472656 385.765625 440.773438 385.339844 C 439.074219 384.914062 437.382812 384.445312 435.707031 383.9375 C 434.027344 383.429688 432.363281 382.878906 430.714844 382.289062 C 429.0625 381.695312 427.429688 381.066406 425.808594 380.394531 C 424.1875 379.722656 422.585938 379.015625 421 378.265625 C 419.417969 377.515625 417.851562 376.726562 416.304688 375.902344 C 414.757812 375.074219 413.234375 374.210938 411.730469 373.308594 C 410.226562 372.410156 408.746094 371.472656 407.289062 370.496094 C 405.832031 369.523438 404.398438 368.515625 402.992188 367.46875 C 401.582031 366.425781 400.203125 365.347656 398.847656 364.234375 C 397.492188 363.121094 396.164062 361.976562 394.863281 360.800781 C 393.566406 359.625 392.296875 358.414062 391.058594 357.175781 C 389.816406 355.9375 388.609375 354.667969 387.433594 353.367188 C 386.253906 352.070312 385.109375 350.742188 383.996094 349.386719 C 382.886719 348.03125 381.808594 346.648438 380.761719 345.242188 C 379.71875 343.832031 378.710938 342.402344 377.734375 340.945312 C 376.761719 339.484375 375.824219 338.003906 374.921875 336.5 C 374.023438 334.996094 373.15625 333.472656 372.332031 331.925781 C 371.503906 330.382812 370.71875 328.816406 369.96875 327.230469 C 369.21875 325.644531 368.507812 324.042969 367.835938 322.425781 C 367.167969 320.804688 366.535156 319.167969 365.945312 317.519531 C 365.355469 315.867188 364.804688 314.203125 364.296875 312.527344 C 363.789062 310.847656 363.320312 309.160156 362.894531 307.460938 C 362.46875 305.757812 362.082031 304.050781 361.742188 302.332031 C 361.398438 300.609375 361.101562 298.882812 360.84375 297.148438 C 360.585938 295.414062 360.371094 293.675781 360.199219 291.933594 C 360.027344 290.1875 359.898438 288.441406 359.8125 286.6875 C 359.726562 284.9375 359.683594 283.1875 359.683594 281.433594 C 359.683594 279.679688 359.726562 277.929688 359.8125 276.175781 C 359.898438 274.425781 360.027344 272.679688 360.199219 270.933594 C 360.371094 269.1875 360.585938 267.449219 360.84375 265.714844 C 361.101562 263.980469 361.398438 262.253906 361.742188 260.535156 C 362.082031 258.816406 362.46875 257.105469 362.894531 255.40625 C 363.320312 253.707031 363.789062 252.015625 364.296875 250.339844 C 364.804688 248.660156 365.355469 246.996094 365.945312 245.347656 C 366.535156 243.695312 367.167969 242.0625 367.835938 240.441406 C 368.507812 238.820312 369.21875 237.21875 369.96875 235.632812 C 370.71875 234.050781 371.503906 232.484375 372.332031 230.9375 C 373.15625 229.390625 374.023438 227.867188 374.921875 226.363281 C 375.824219 224.859375 376.761719 223.378906 377.734375 221.921875 C 378.710938 220.464844 379.71875 219.03125 380.761719 217.625 C 381.808594 216.214844 382.886719 214.835938 383.996094 213.480469 C 385.109375 212.125 386.253906 210.796875 387.433594 209.496094 C 388.609375 208.199219 389.816406 206.929688 391.058594 205.691406 C 392.296875 204.449219 393.566406 203.242188 394.863281 202.066406 C 396.164062 200.886719 397.492188 199.742188 398.847656 198.628906 C 400.203125 197.519531 401.582031 196.441406 402.992188 195.394531 C 404.398438 194.351562 405.832031 193.34375 407.289062 192.367188 C 408.746094 191.394531 410.226562 190.457031 411.730469 189.554688 C 413.234375 188.65625 414.757812 187.789062 416.304688 186.964844 C 417.851562 186.136719 419.417969 185.351562 421 184.601562 C 422.585938 183.851562 424.1875 183.140625 425.808594 182.46875 C 427.429688 181.800781 429.0625 181.167969 430.714844 180.578125 C 432.363281 179.988281 434.027344 179.4375 435.707031 178.929688 C 437.382812 178.421875 439.074219 177.953125 440.773438 177.527344 C 442.472656 177.101562 444.183594 176.714844 445.902344 176.375 C 447.621094 176.03125 449.347656 175.734375 451.082031 175.476562 C 452.816406 175.21875 454.554688 175.003906 456.300781 174.832031 C 458.046875 174.660156 459.792969 174.53125 461.542969 174.445312 C 463.296875 174.359375 465.046875 174.316406 466.800781 174.316406 C 468.554688 174.316406 470.304688 174.359375 472.054688 174.445312 C 473.808594 174.53125 475.554688 174.660156 477.300781 174.832031 C 479.042969 175.003906 480.78125 175.21875 482.515625 175.476562 C 484.25 175.734375 485.976562 176.03125 487.699219 176.375 C 489.417969 176.714844 491.125 177.101562 492.828125 177.527344 C 494.527344 177.953125 496.214844 178.421875 497.894531 178.929688 C 499.570312 179.4375 501.234375 179.988281 502.886719 180.578125 C 504.535156 181.167969 506.171875 181.800781 507.792969 182.46875 C 509.410156 183.140625 511.011719 183.851562 512.597656 184.601562 C 514.183594 185.351562 515.75 186.136719 517.292969 186.964844 C 518.839844 187.789062 520.363281 188.65625 521.867188 189.554688 C 523.371094 190.457031 524.851562 191.394531 526.3125 192.367188 C 527.769531 193.34375 529.199219 194.351562 530.609375 195.394531 C 532.015625 196.441406 533.398438 197.519531 534.753906 198.628906 C 536.109375 199.742188 537.4375 200.886719 538.734375 202.066406 C 540.035156 203.242188 541.304688 204.449219 542.542969 205.691406 C 543.78125 206.929688 544.992188 208.199219 546.167969 209.496094 C 547.34375 210.796875 548.488281 212.125 549.601562 213.480469 C 550.714844 214.835938 551.792969 216.214844 552.835938 217.625 C 553.882812 219.03125 554.890625 220.464844 555.863281 221.921875 C 556.839844 223.378906 557.777344 224.859375 558.675781 226.363281 C 559.578125 227.867188 560.441406 229.390625 561.269531 230.9375 C 562.09375 232.484375 562.882812 234.050781 563.632812 235.632812 C 564.382812 237.21875 565.089844 238.820312 565.761719 240.441406 C 566.433594 242.0625 567.0625 243.695312 567.65625 245.347656 C 568.246094 246.996094 568.796875 248.660156 569.304688 250.339844 C 569.8125 252.015625 570.28125 253.707031 570.707031 255.40625 C 571.132812 257.105469 571.515625 258.816406 571.859375 260.535156 C 572.199219 262.253906 572.5 263.980469 572.757812 265.714844 C 573.015625 267.449219 573.230469 269.1875 573.402344 270.933594 C 573.574219 272.679688 573.703125 274.425781 573.789062 276.175781 C 573.875 277.929688 573.917969 279.679688 573.917969 281.433594 Z M 573.917969 281.433594 " fill-opacity="1" fill-rule="nonzero"/><g clip-path="url(#5d9bbd076a)"><path fill="#8c52ff" d="M 485.367188 0 C 319.683594 0 185.367188 134.316406 185.367188 300 C 185.367188 465.6875 319.683594 600 485.367188 600 C 651.054688 600 785.367188 465.6875 785.367188 300 C 785.367188 134.316406 651.054688 0 485.367188 0 Z M 659.8125 474.445312 C 648.660156 485.601562 630.574219 485.601562 619.417969 474.445312 L 560.976562 416.003906 C 534.375 434.65625 501.996094 445.625 467.054688 445.679688 C 377.574219 445.8125 304.023438 373.617188 302.578125 284.148438 C 301.078125 191.289062 376.65625 115.707031 469.515625 117.207031 C 558.984375 118.652344 631.179688 192.207031 631.046875 281.683594 C 630.992188 316.625 620.019531 349.003906 601.371094 375.605469 L 659.8125 434.050781 C 670.96875 445.203125 670.96875 463.292969 659.8125 474.445312 Z M 659.8125 474.445312 " fill-opacity="1" fill-rule="nonzero"/></g></svg>