<svg xmlns="http://www.w3.org/2000/svg" xmlns:xlink="http://www.w3.org/1999/xlink" width="1280" zoomAndPan="magnify" viewBox="0 0 960 599.999999" height="800" preserveAspectRatio="xMidYMid meet" version="1.0"><defs><clipPath id="507259132a"><path d="M 136.285156 139.210938 L 746 139.210938 L 746 460 L 136.285156 460 Z M 136.285156 139.210938 " clip-rule="nonzero"/></clipPath></defs><g clip-path="url(#507259132a)"><path fill="#cb6ce6" d="M 440.683594 459.566406 C 438.558594 459.570312 436.511719 459.167969 434.546875 458.355469 C 432.582031 457.546875 430.847656 456.390625 429.339844 454.886719 L 140.964844 167.152344 C 140.59375 166.78125 140.238281 166.390625 139.90625 165.984375 C 139.574219 165.578125 139.261719 165.160156 138.96875 164.722656 C 138.675781 164.285156 138.40625 163.835938 138.160156 163.371094 C 137.910156 162.90625 137.6875 162.433594 137.488281 161.949219 C 137.285156 161.460938 137.109375 160.96875 136.957031 160.464844 C 136.804688 159.964844 136.675781 159.453125 136.574219 158.9375 C 136.472656 158.421875 136.394531 157.90625 136.34375 157.382812 C 136.292969 156.859375 136.265625 156.335938 136.265625 155.808594 C 136.265625 155.285156 136.292969 154.761719 136.34375 154.238281 C 136.394531 153.714844 136.472656 153.195312 136.574219 152.679688 C 136.675781 152.164062 136.804688 151.65625 136.957031 151.152344 C 137.109375 150.648438 137.285156 150.15625 137.488281 149.671875 C 137.6875 149.183594 137.910156 148.710938 138.160156 148.246094 C 138.40625 147.785156 138.675781 147.335938 138.96875 146.898438 C 139.261719 146.460938 139.574219 146.039062 139.90625 145.632812 C 140.238281 145.226562 140.59375 144.839844 140.964844 144.464844 C 141.335938 144.09375 141.722656 143.742188 142.128906 143.410156 C 142.535156 143.078125 142.957031 142.765625 143.394531 142.472656 C 143.832031 142.179688 144.28125 141.910156 144.746094 141.664062 C 145.207031 141.414062 145.683594 141.191406 146.167969 140.988281 C 146.652344 140.789062 147.148438 140.613281 147.648438 140.460938 C 148.152344 140.304688 148.660156 140.179688 149.175781 140.078125 C 149.691406 139.972656 150.210938 139.898438 150.734375 139.84375 C 151.257812 139.792969 151.78125 139.769531 152.304688 139.769531 C 152.832031 139.769531 153.355469 139.792969 153.878906 139.84375 C 154.402344 139.898438 154.921875 139.972656 155.4375 140.078125 C 155.953125 140.179688 156.460938 140.304688 156.964844 140.460938 C 157.464844 140.613281 157.960938 140.789062 158.445312 140.988281 C 158.929688 141.191406 159.40625 141.414062 159.867188 141.664062 C 160.332031 141.910156 160.78125 142.179688 161.21875 142.472656 C 161.65625 142.765625 162.078125 143.078125 162.484375 143.410156 C 162.890625 143.742188 163.277344 144.09375 163.648438 144.464844 L 440.683594 420.925781 L 717.71875 144.464844 C 718.089844 144.09375 718.476562 143.742188 718.882812 143.410156 C 719.289062 143.078125 719.710938 142.765625 720.148438 142.472656 C 720.585938 142.179688 721.035156 141.910156 721.5 141.664062 C 721.960938 141.414062 722.4375 141.191406 722.921875 140.988281 C 723.40625 140.789062 723.902344 140.613281 724.402344 140.460938 C 724.90625 140.304688 725.414062 140.179688 725.929688 140.078125 C 726.445312 139.972656 726.964844 139.898438 727.488281 139.84375 C 728.011719 139.792969 728.535156 139.769531 729.058594 139.769531 C 729.585938 139.769531 730.109375 139.792969 730.632812 139.84375 C 731.15625 139.898438 731.675781 139.972656 732.191406 140.078125 C 732.707031 140.179688 733.214844 140.304688 733.71875 140.460938 C 734.21875 140.613281 734.714844 140.789062 735.199219 140.988281 C 735.683594 141.191406 736.160156 141.414062 736.621094 141.664062 C 737.085938 141.910156 737.535156 142.179688 737.972656 142.472656 C 738.410156 142.765625 738.832031 143.078125 739.238281 143.410156 C 739.644531 143.742188 740.03125 144.09375 740.402344 144.464844 C 740.773438 144.839844 741.128906 145.226562 741.460938 145.632812 C 741.792969 146.039062 742.105469 146.460938 742.398438 146.898438 C 742.691406 147.335938 742.960938 147.785156 743.207031 148.246094 C 743.457031 148.710938 743.679688 149.183594 743.878906 149.671875 C 744.082031 150.15625 744.257812 150.648438 744.410156 151.152344 C 744.5625 151.65625 744.691406 152.164062 744.792969 152.679688 C 744.894531 153.195312 744.972656 153.714844 745.023438 154.238281 C 745.074219 154.761719 745.101562 155.285156 745.101562 155.808594 C 745.101562 156.335938 745.074219 156.859375 745.023438 157.382812 C 744.972656 157.90625 744.894531 158.421875 744.792969 158.9375 C 744.691406 159.453125 744.5625 159.964844 744.410156 160.464844 C 744.257812 160.96875 744.082031 161.460938 743.878906 161.949219 C 743.679688 162.433594 743.457031 162.90625 743.207031 163.371094 C 742.960938 163.835938 742.691406 164.285156 742.398438 164.722656 C 742.105469 165.160156 741.792969 165.578125 741.460938 165.984375 C 741.128906 166.390625 740.773438 166.78125 740.402344 167.152344 L 452.027344 454.886719 C 450.519531 456.390625 448.785156 457.546875 446.820312 458.355469 C 444.855469 459.167969 442.808594 459.570312 440.683594 459.566406 Z M 440.683594 459.566406 " fill-opacity="1" fill-rule="nonzero"/></g></svg>