<svg xmlns="http://www.w3.org/2000/svg" xmlns:xlink="http://www.w3.org/1999/xlink" width="500" zoomAndPan="magnify" viewBox="0 0 375 374.999991" height="500" preserveAspectRatio="xMidYMid meet" version="1.0"><defs><clipPath id="3968014be6"><path d="M 23.945312 24.546875 L 331.445312 24.546875 L 331.445312 332.046875 L 23.945312 332.046875 Z M 23.945312 24.546875 " clip-rule="nonzero"/></clipPath></defs><g clip-path="url(#3968014be6)"><path fill="#896dd5" d="M 177.703125 24.546875 C 175.1875 24.546875 172.671875 24.609375 170.160156 24.730469 C 167.644531 24.855469 165.136719 25.039062 162.632812 25.289062 C 160.128906 25.535156 157.632812 25.84375 155.140625 26.210938 C 152.652344 26.582031 150.175781 27.011719 147.707031 27.5 C 145.238281 27.992188 142.785156 28.542969 140.34375 29.15625 C 137.902344 29.765625 135.476562 30.4375 133.070312 31.167969 C 130.664062 31.898438 128.273438 32.6875 125.902344 33.535156 C 123.535156 34.382812 121.1875 35.289062 118.863281 36.25 C 116.539062 37.214844 114.238281 38.234375 111.964844 39.308594 C 109.6875 40.386719 107.441406 41.515625 105.222656 42.703125 C 103.003906 43.886719 100.816406 45.128906 98.65625 46.421875 C 96.5 47.714844 94.375 49.0625 92.28125 50.460938 C 90.1875 51.859375 88.132812 53.304688 86.109375 54.804688 C 84.089844 56.304688 82.105469 57.851562 80.160156 59.449219 C 78.214844 61.042969 76.3125 62.6875 74.445312 64.378906 C 72.582031 66.066406 70.761719 67.800781 68.980469 69.582031 C 67.203125 71.359375 65.46875 73.183594 63.777344 75.046875 C 62.085938 76.910156 60.445312 78.816406 58.847656 80.761719 C 57.25 82.707031 55.703125 84.6875 54.207031 86.710938 C 52.707031 88.730469 51.257812 90.789062 49.859375 92.878906 C 48.460938 94.972656 47.117188 97.097656 45.824219 99.257812 C 44.527344 101.414062 43.289062 103.605469 42.101562 105.824219 C 40.917969 108.042969 39.785156 110.289062 38.710938 112.5625 C 37.632812 114.839844 36.613281 117.136719 35.652344 119.464844 C 34.6875 121.789062 33.78125 124.132812 32.933594 126.503906 C 32.085938 128.875 31.296875 131.261719 30.566406 133.667969 C 29.835938 136.078125 29.167969 138.503906 28.554688 140.941406 C 27.945312 143.382812 27.390625 145.839844 26.902344 148.304688 C 26.410156 150.773438 25.980469 153.253906 25.613281 155.742188 C 25.242188 158.230469 24.933594 160.726562 24.6875 163.230469 C 24.441406 165.734375 24.257812 168.246094 24.132812 170.757812 C 24.007812 173.273438 23.945312 175.785156 23.945312 178.304688 C 23.945312 180.820312 24.007812 183.332031 24.132812 185.847656 C 24.257812 188.359375 24.441406 190.871094 24.6875 193.375 C 24.933594 195.878906 25.242188 198.375 25.613281 200.863281 C 25.980469 203.351562 26.410156 205.832031 26.902344 208.300781 C 27.390625 210.765625 27.945312 213.222656 28.554688 215.664062 C 29.167969 218.101562 29.835938 220.527344 30.566406 222.9375 C 31.296875 225.34375 32.085938 227.730469 32.933594 230.101562 C 33.78125 232.472656 34.6875 234.816406 35.652344 237.140625 C 36.613281 239.46875 37.632812 241.765625 38.710938 244.042969 C 39.785156 246.316406 40.917969 248.5625 42.101562 250.78125 C 43.289062 253.003906 44.527344 255.191406 45.824219 257.347656 C 47.117188 259.507812 48.460938 261.632812 49.859375 263.726562 C 51.257812 265.816406 52.707031 267.875 54.207031 269.894531 C 55.703125 271.917969 57.25 273.898438 58.847656 275.84375 C 60.445312 277.789062 62.085938 279.695312 63.777344 281.558594 C 65.46875 283.421875 67.203125 285.246094 68.980469 287.023438 C 70.761719 288.804688 72.582031 290.539062 74.445312 292.226562 C 76.3125 293.917969 78.214844 295.5625 80.160156 297.15625 C 82.105469 298.753906 84.089844 300.300781 86.109375 301.800781 C 88.132812 303.300781 90.1875 304.75 92.28125 306.144531 C 94.375 307.542969 96.5 308.890625 98.65625 310.183594 C 100.816406 311.476562 103.003906 312.71875 105.222656 313.902344 C 107.441406 315.089844 109.6875 316.21875 111.964844 317.296875 C 114.238281 318.371094 116.539062 319.390625 118.863281 320.355469 C 121.1875 321.316406 123.535156 322.222656 125.902344 323.070312 C 128.273438 323.917969 130.664062 324.707031 133.070312 325.4375 C 135.476562 326.167969 137.902344 326.839844 140.34375 327.449219 C 142.785156 328.0625 145.238281 328.613281 147.707031 329.105469 C 150.175781 329.59375 152.652344 330.023438 155.140625 330.394531 C 157.632812 330.761719 160.128906 331.070312 162.632812 331.316406 C 165.136719 331.566406 167.644531 331.75 170.160156 331.875 C 172.671875 331.996094 175.1875 332.058594 177.703125 332.058594 C 180.21875 332.058594 182.734375 331.996094 185.246094 331.875 C 187.761719 331.75 190.269531 331.566406 192.773438 331.316406 C 195.277344 331.070312 197.773438 330.761719 200.265625 330.394531 C 202.753906 330.023438 205.230469 329.59375 207.699219 329.105469 C 210.167969 328.613281 212.621094 328.0625 215.0625 327.449219 C 217.503906 326.839844 219.929688 326.167969 222.335938 325.4375 C 224.742188 324.707031 227.132812 323.917969 229.5 323.070312 C 231.871094 322.222656 234.21875 321.316406 236.542969 320.355469 C 238.867188 319.390625 241.167969 318.371094 243.441406 317.296875 C 245.71875 316.21875 247.964844 315.089844 250.183594 313.902344 C 252.402344 312.71875 254.589844 311.476562 256.75 310.183594 C 258.90625 308.890625 261.03125 307.542969 263.125 306.144531 C 265.21875 304.75 267.273438 303.300781 269.296875 301.800781 C 271.316406 300.300781 273.300781 298.753906 275.246094 297.15625 C 277.191406 295.5625 279.09375 293.917969 280.960938 292.226562 C 282.824219 290.539062 284.644531 288.804688 286.425781 287.023438 C 288.203125 285.246094 289.9375 283.421875 291.628906 281.558594 C 293.320312 279.695312 294.960938 277.789062 296.558594 275.84375 C 298.15625 273.898438 299.703125 271.917969 301.199219 269.894531 C 302.699219 267.875 304.148438 265.816406 305.546875 263.726562 C 306.945312 261.632812 308.289062 259.507812 309.582031 257.347656 C 310.878906 255.191406 312.117188 253.003906 313.304688 250.78125 C 314.488281 248.5625 315.621094 246.316406 316.695312 244.042969 C 317.773438 241.765625 318.792969 239.46875 319.753906 237.140625 C 320.71875 234.816406 321.625 232.472656 322.472656 230.101562 C 323.320312 227.730469 324.109375 225.34375 324.839844 222.9375 C 325.570312 220.527344 326.238281 218.101562 326.851562 215.664062 C 327.460938 213.222656 328.011719 210.765625 328.503906 208.300781 C 328.996094 205.832031 329.425781 203.351562 329.792969 200.863281 C 330.164062 198.375 330.472656 195.878906 330.71875 193.375 C 330.964844 190.871094 331.148438 188.359375 331.273438 185.847656 C 331.398438 183.332031 331.457031 180.820312 331.457031 178.304688 C 331.457031 175.785156 331.398438 173.273438 331.273438 170.757812 C 331.148438 168.246094 330.964844 165.738281 330.71875 163.234375 C 330.46875 160.730469 330.160156 158.230469 329.792969 155.742188 C 329.421875 153.253906 328.992188 150.777344 328.5 148.308594 C 328.011719 145.839844 327.457031 143.386719 326.847656 140.945312 C 326.234375 138.503906 325.566406 136.078125 324.832031 133.671875 C 324.101562 131.265625 323.3125 128.875 322.464844 126.507812 C 321.617188 124.136719 320.710938 121.789062 319.75 119.464844 C 318.785156 117.140625 317.765625 114.839844 316.691406 112.566406 C 315.617188 110.292969 314.484375 108.046875 313.296875 105.828125 C 312.113281 103.609375 310.871094 101.417969 309.578125 99.261719 C 308.285156 97.101562 306.9375 94.976562 305.539062 92.886719 C 304.140625 90.792969 302.695312 88.738281 301.195312 86.714844 C 299.695312 84.695312 298.148438 82.710938 296.550781 80.765625 C 294.957031 78.820312 293.3125 76.917969 291.621094 75.050781 C 289.933594 73.1875 288.199219 71.367188 286.417969 69.585938 C 284.640625 67.808594 282.816406 66.074219 280.953125 64.382812 C 279.089844 62.691406 277.183594 61.050781 275.238281 59.453125 C 273.292969 57.859375 271.3125 56.308594 269.289062 54.8125 C 267.269531 53.3125 265.210938 51.863281 263.121094 50.464844 C 261.027344 49.066406 258.902344 47.722656 256.746094 46.429688 C 254.585938 45.132812 252.398438 43.894531 250.179688 42.707031 C 247.960938 41.523438 245.714844 40.390625 243.4375 39.316406 C 241.164062 38.238281 238.863281 37.21875 236.539062 36.257812 C 234.214844 35.292969 231.867188 34.386719 229.5 33.539062 C 227.128906 32.691406 224.742188 31.902344 222.332031 31.171875 C 219.925781 30.441406 217.5 29.769531 215.0625 29.160156 C 212.621094 28.546875 210.164062 27.996094 207.699219 27.503906 C 205.230469 27.011719 202.75 26.582031 200.261719 26.214844 C 197.773438 25.84375 195.277344 25.535156 192.773438 25.289062 C 190.269531 25.042969 187.761719 24.855469 185.246094 24.734375 C 182.734375 24.609375 180.21875 24.546875 177.703125 24.546875 Z M 231.230469 176.1875 C 229.902344 176.195312 228.589844 176.074219 227.289062 175.816406 C 225.984375 175.5625 224.722656 175.183594 223.496094 174.675781 C 222.273438 174.167969 221.109375 173.542969 220.007812 172.804688 C 218.90625 172.0625 217.890625 171.222656 216.957031 170.277344 L 197.929688 151.300781 L 197.929688 254.171875 C 197.929688 254.835938 197.898438 255.496094 197.835938 256.15625 C 197.769531 256.8125 197.671875 257.46875 197.542969 258.117188 C 197.414062 258.769531 197.253906 259.410156 197.058594 260.042969 C 196.867188 260.675781 196.644531 261.300781 196.390625 261.914062 C 196.136719 262.523438 195.855469 263.121094 195.542969 263.707031 C 195.230469 264.292969 194.890625 264.859375 194.523438 265.410156 C 194.15625 265.960938 193.761719 266.492188 193.339844 267.003906 C 192.917969 267.515625 192.476562 268.007812 192.007812 268.476562 C 191.539062 268.945312 191.046875 269.386719 190.535156 269.808594 C 190.023438 270.230469 189.492188 270.621094 188.941406 270.992188 C 188.390625 271.359375 187.824219 271.699219 187.238281 272.011719 C 186.65625 272.324219 186.054688 272.605469 185.445312 272.859375 C 184.832031 273.113281 184.210938 273.335938 183.574219 273.527344 C 182.941406 273.722656 182.300781 273.882812 181.648438 274.011719 C 181 274.140625 180.34375 274.238281 179.6875 274.304688 C 179.027344 274.367188 178.367188 274.398438 177.703125 274.398438 C 177.039062 274.398438 176.378906 274.367188 175.71875 274.304688 C 175.0625 274.238281 174.40625 274.140625 173.757812 274.011719 C 173.105469 273.882812 172.464844 273.722656 171.832031 273.527344 C 171.195312 273.335938 170.574219 273.113281 169.960938 272.859375 C 169.351562 272.605469 168.75 272.324219 168.167969 272.011719 C 167.582031 271.699219 167.015625 271.359375 166.464844 270.992188 C 165.914062 270.621094 165.382812 270.230469 164.871094 269.808594 C 164.359375 269.386719 163.867188 268.945312 163.398438 268.476562 C 162.929688 268.007812 162.488281 267.515625 162.066406 267.003906 C 161.644531 266.492188 161.25 265.960938 160.882812 265.410156 C 160.515625 264.859375 160.175781 264.292969 159.863281 263.707031 C 159.550781 263.121094 159.269531 262.523438 159.015625 261.914062 C 158.761719 261.300781 158.539062 260.675781 158.34375 260.042969 C 158.152344 259.410156 157.992188 258.769531 157.863281 258.117188 C 157.734375 257.46875 157.636719 256.8125 157.570312 256.15625 C 157.507812 255.496094 157.472656 254.835938 157.472656 254.171875 L 157.472656 151.300781 L 138.449219 170.277344 C 137.515625 171.222656 136.5 172.0625 135.398438 172.804688 C 134.296875 173.542969 133.132812 174.167969 131.910156 174.675781 C 130.683594 175.179688 129.421875 175.5625 128.117188 175.816406 C 126.816406 176.074219 125.503906 176.195312 124.175781 176.1875 C 123.1875 176.179688 122.203125 176.097656 121.226562 175.945312 C 120.246094 175.792969 119.285156 175.570312 118.339844 175.273438 C 117.394531 174.980469 116.476562 174.621094 115.585938 174.191406 C 114.691406 173.765625 113.835938 173.273438 113.015625 172.71875 C 112.195312 172.167969 111.417969 171.554688 110.6875 170.890625 C 109.957031 170.222656 109.277344 169.503906 108.652344 168.738281 C 108.023438 167.972656 107.457031 167.164062 106.949219 166.316406 C 106.441406 165.46875 105.996094 164.585938 105.617188 163.671875 C 105.238281 162.757812 104.925781 161.820312 104.683594 160.859375 C 104.441406 159.902344 104.269531 158.929688 104.171875 157.945312 C 104.070312 156.960938 104.042969 155.972656 104.085938 154.984375 C 104.128906 153.996094 104.246094 153.015625 104.433594 152.042969 C 104.621094 151.070312 104.878906 150.117188 105.207031 149.183594 C 105.53125 148.25 105.925781 147.34375 106.382812 146.46875 C 106.84375 145.589844 107.363281 144.753906 107.945312 143.953125 C 108.527344 143.152344 109.164062 142.398438 109.859375 141.691406 L 163.382812 88.164062 C 163.851562 87.691406 164.34375 87.246094 164.855469 86.824219 C 165.367188 86.402344 165.898438 86.003906 166.449219 85.632812 C 167 85.265625 167.566406 84.921875 168.152344 84.609375 C 168.738281 84.292969 169.335938 84.007812 169.949219 83.753906 C 170.5625 83.5 171.183594 83.273438 171.820312 83.082031 C 172.457031 82.886719 173.097656 82.726562 173.75 82.597656 C 174.398438 82.464844 175.054688 82.367188 175.714844 82.304688 C 176.378906 82.238281 177.039062 82.207031 177.703125 82.207031 C 178.367188 82.207031 179.027344 82.238281 179.691406 82.304688 C 180.351562 82.367188 181.007812 82.464844 181.65625 82.597656 C 182.308594 82.726562 182.949219 82.886719 183.585938 83.082031 C 184.21875 83.273438 184.84375 83.5 185.457031 83.753906 C 186.070312 84.007812 186.667969 84.292969 187.253906 84.609375 C 187.839844 84.921875 188.40625 85.265625 188.957031 85.632812 C 189.507812 86.003906 190.039062 86.402344 190.550781 86.824219 C 191.0625 87.246094 191.554688 87.691406 192.023438 88.164062 L 245.546875 141.691406 C 246.238281 142.398438 246.878906 143.152344 247.460938 143.953125 C 248.042969 144.753906 248.5625 145.589844 249.023438 146.46875 C 249.480469 147.34375 249.875 148.25 250.199219 149.183594 C 250.527344 150.117188 250.785156 151.070312 250.972656 152.042969 C 251.160156 153.015625 251.277344 153.996094 251.320312 154.984375 C 251.363281 155.972656 251.335938 156.960938 251.234375 157.945312 C 251.136719 158.929688 250.964844 159.902344 250.722656 160.859375 C 250.480469 161.820312 250.167969 162.757812 249.789062 163.671875 C 249.410156 164.585938 248.964844 165.46875 248.457031 166.316406 C 247.949219 167.164062 247.382812 167.972656 246.753906 168.738281 C 246.128906 169.503906 245.449219 170.222656 244.71875 170.890625 C 243.988281 171.554688 243.210938 172.167969 242.390625 172.71875 C 241.570312 173.273438 240.714844 173.765625 239.820312 174.191406 C 238.929688 174.621094 238.011719 174.980469 237.066406 175.273438 C 236.121094 175.570312 235.160156 175.792969 234.179688 175.945312 C 233.203125 176.097656 232.21875 176.179688 231.230469 176.1875 Z M 231.230469 176.1875 " fill-opacity="1" fill-rule="nonzero"/></g></svg>