<svg xmlns="http://www.w3.org/2000/svg" xmlns:xlink="http://www.w3.org/1999/xlink" width="1280" zoomAndPan="magnify" viewBox="0 0 960 599.999999" height="800" preserveAspectRatio="xMidYMid meet" version="1.0"><defs><clipPath id="eb1c80f6c3"><path d="M 256.789062 100.503906 L 703.039062 100.503906 L 703.039062 546.753906 L 256.789062 546.753906 Z M 256.789062 100.503906 " clip-rule="nonzero"/></clipPath></defs><g clip-path="url(#eb1c80f6c3)"><path fill="#000000" d="M 256.789062 323.628906 C 256.789062 446.664062 356.875 546.753906 479.914062 546.753906 C 602.949219 546.753906 703.039062 446.664062 703.039062 323.628906 C 703.039062 200.589844 602.949219 100.503906 479.914062 100.503906 C 356.875 100.503906 256.789062 200.589844 256.789062 323.628906 Z M 487.800781 200.589844 L 582.789062 295.496094 C 585.898438 298.605469 587.410156 302.667969 587.410156 306.734375 C 587.410156 310.878906 585.898438 314.941406 582.789062 318.050781 C 576.492188 324.265625 566.453125 324.265625 560.238281 318.050781 L 492.503906 250.316406 L 492.503906 435.429688 C 492.503906 444.195312 485.332031 451.367188 476.566406 451.367188 C 467.800781 451.367188 460.628906 444.195312 460.628906 435.429688 L 460.628906 250.316406 L 399.585938 311.355469 C 393.371094 317.570312 383.332031 317.570312 377.035156 311.355469 C 370.820312 305.140625 370.820312 295.019531 377.035156 288.804688 L 465.328125 200.589844 C 471.546875 194.375 481.585938 194.375 487.800781 200.589844 Z M 487.800781 200.589844 " fill-opacity="1" fill-rule="nonzero"/></g></svg>