<svg xmlns="http://www.w3.org/2000/svg" xmlns:xlink="http://www.w3.org/1999/xlink" width="500" zoomAndPan="magnify" viewBox="0 0 375 374.999991" height="500" preserveAspectRatio="xMidYMid meet" version="1.0"><defs><clipPath id="d7355d726f"><path d="M 28.304688 28.304688 L 337.5 28.304688 L 337.5 337.5 L 28.304688 337.5 Z M 28.304688 28.304688 " clip-rule="nonzero"/></clipPath><clipPath id="d4c124db49"><path d="M 182.902344 28.304688 C 97.519531 28.304688 28.304688 97.519531 28.304688 182.902344 C 28.304688 268.285156 97.519531 337.5 182.902344 337.5 C 268.285156 337.5 337.5 268.285156 337.5 182.902344 C 337.5 97.519531 268.285156 28.304688 182.902344 28.304688 Z M 182.902344 28.304688 " clip-rule="nonzero"/></clipPath><clipPath id="8b842c6a8b"><path d="M 129.359375 107.902344 L 245.609375 107.902344 L 245.609375 257.902344 L 129.359375 257.902344 Z M 129.359375 107.902344 " clip-rule="nonzero"/></clipPath></defs><g clip-path="url(#d7355d726f)"><g clip-path="url(#d4c124db49)"><path fill="#302b3b" d="M 28.304688 28.304688 L 337.5 28.304688 L 337.5 337.5 L 28.304688 337.5 Z M 28.304688 28.304688 " fill-opacity="1" fill-rule="nonzero"/></g></g><g clip-path="url(#8b842c6a8b)"><path fill="#896dd5" d="M 245.632812 246.566406 C 245.632812 206.542969 219.582031 174.117188 187.496094 174.117188 C 155.410156 174.117188 129.359375 206.542969 129.359375 246.566406 C 129.359375 252.808594 155.410156 257.898438 187.496094 257.898438 C 219.582031 257.898438 245.632812 252.808594 245.632812 246.566406 Z M 187.496094 107.90625 C 204.996094 107.90625 219.175781 122.085938 219.175781 139.589844 C 219.175781 157.089844 204.996094 171.269531 187.496094 171.269531 C 169.992188 171.269531 155.816406 157.089844 155.816406 139.589844 C 155.816406 122.085938 169.992188 107.90625 187.496094 107.90625 Z M 187.496094 107.90625 " fill-opacity="1" fill-rule="evenodd"/></g></svg>