<svg xmlns="http://www.w3.org/2000/svg" xmlns:xlink="http://www.w3.org/1999/xlink" width="1280" zoomAndPan="magnify" viewBox="0 0 960 599.999999" height="800" preserveAspectRatio="xMidYMid meet" version="1.0"><defs><clipPath id="076ad9953e"><path d="M 176.199219 0 L 745.449219 0 L 745.449219 600 L 176.199219 600 Z M 176.199219 0 " clip-rule="nonzero"/></clipPath></defs><g clip-path="url(#076ad9953e)"><path fill="#98e8cd" d="M 745.210938 563.046875 L 745.210938 556.792969 C 745.210938 518.40625 737.683594 481.144531 722.839844 446.050781 C 708.511719 412.171875 688.003906 381.75 661.886719 355.636719 C 635.773438 329.519531 605.351562 309.015625 571.472656 294.683594 C 569.246094 293.742188 567.003906 292.832031 564.746094 291.949219 C 569.011719 288.460938 573.117188 284.753906 577.050781 280.820312 C 592.144531 265.722656 604 248.132812 612.289062 228.539062 C 620.875 208.238281 625.230469 186.691406 625.230469 164.5 C 625.230469 142.308594 620.878906 120.757812 612.289062 100.457031 C 604.003906 80.863281 592.144531 63.277344 577.050781 48.179688 C 561.953125 33.082031 544.363281 21.226562 524.769531 12.9375 C 504.46875 4.351562 482.921875 0 460.730469 0 C 438.535156 0 416.988281 4.351562 396.6875 12.9375 C 377.09375 21.226562 359.507812 33.082031 344.410156 48.179688 C 329.3125 63.277344 317.453125 80.863281 309.167969 100.457031 C 300.582031 120.757812 296.226562 142.308594 296.226562 164.5 C 296.226562 186.691406 300.582031 208.238281 309.167969 228.539062 C 317.453125 248.132812 329.3125 265.722656 344.410156 280.820312 C 348.34375 284.753906 352.449219 288.457031 356.710938 291.945312 C 354.453125 292.832031 352.210938 293.742188 349.984375 294.683594 C 316.105469 309.015625 285.683594 329.519531 259.570312 355.636719 C 233.457031 381.75 212.949219 412.171875 198.617188 446.050781 C 183.773438 481.144531 176.25 518.40625 176.25 556.792969 L 176.25 563.046875 C 176.25 592.242188 198.660156 616.304688 227.183594 618.941406 L 698.144531 618.449219 L 698.316406 618.429688 C 703.214844 617.925781 707.964844 616.46875 712.308594 614.144531 C 731.699219 605.292969 745.210938 585.71875 745.210938 563.046875 Z M 339.484375 215.71875 C 332.621094 199.496094 329.144531 182.261719 329.144531 164.5 C 329.144531 146.734375 332.621094 129.503906 339.484375 113.28125 C 346.113281 97.609375 355.601562 83.539062 367.683594 71.453125 C 379.769531 59.371094 393.839844 49.882812 409.507812 43.253906 C 425.734375 36.394531 442.964844 32.914062 460.730469 32.914062 C 478.492188 32.914062 495.726562 36.394531 511.949219 43.253906 C 527.617188 49.882812 541.691406 59.371094 553.773438 71.453125 C 565.859375 83.539062 575.347656 97.609375 581.972656 113.28125 C 588.835938 129.503906 592.3125 146.734375 592.3125 164.5 C 592.3125 182.261719 588.832031 199.496094 581.972656 215.71875 C 575.34375 231.386719 565.859375 245.457031 553.773438 257.542969 C 541.691406 269.625 527.617188 279.113281 511.949219 285.742188 C 495.726562 292.601562 478.492188 296.082031 460.730469 296.082031 C 442.964844 296.082031 425.734375 292.601562 409.507812 285.742188 C 393.839844 279.113281 379.769531 269.625 367.683594 257.542969 C 355.601562 245.457031 346.113281 231.386719 339.484375 215.71875 Z M 712.292969 563.046875 C 712.292969 575.851562 701.875 586.269531 689.070312 586.269531 L 232.386719 586.269531 C 219.578125 586.269531 209.164062 575.851562 209.164062 563.046875 L 209.164062 556.792969 C 209.164062 522.835938 215.816406 489.890625 228.933594 458.871094 C 241.601562 428.917969 259.742188 402.011719 282.84375 378.910156 C 305.945312 355.808594 332.847656 337.667969 362.808594 325 C 369.410156 322.207031 376.191406 319.671875 382.96875 317.46875 C 382.972656 317.46875 382.972656 317.46875 382.972656 317.46875 C 385.332031 316.699219 387.738281 315.957031 390.121094 315.261719 C 391.007812 315.003906 391.851562 314.671875 392.65625 314.285156 C 393.992188 314.890625 395.332031 315.484375 396.6875 316.058594 C 416.988281 324.644531 438.535156 329 460.726562 329 C 482.917969 329 504.464844 324.644531 524.769531 316.058594 C 526.121094 315.484375 527.464844 314.890625 528.800781 314.285156 C 529.605469 314.671875 530.453125 315.003906 531.335938 315.261719 C 540.550781 317.957031 549.742188 321.230469 558.648438 325 C 588.605469 337.667969 615.511719 355.808594 638.613281 378.910156 C 661.714844 402.011719 679.851562 428.917969 692.523438 458.871094 C 705.640625 489.886719 712.292969 522.835938 712.292969 556.792969 Z M 712.292969 563.046875 " fill-opacity="1" fill-rule="nonzero"/></g></svg>