<svg xmlns="http://www.w3.org/2000/svg" xmlns:xlink="http://www.w3.org/1999/xlink" width="1280" zoomAndPan="magnify" viewBox="0 0 960 599.999999" height="800" preserveAspectRatio="xMidYMid meet" version="1.0"><defs><clipPath id="179c6a071c"><path d="M 168.941406 30.519531 L 707.90625 30.519531 L 707.90625 569.480469 L 168.941406 569.480469 Z M 168.941406 30.519531 " clip-rule="nonzero"/></clipPath><clipPath id="92d9bb4ace"><path d="M 438.425781 30.519531 C 289.59375 30.519531 168.941406 151.167969 168.941406 300 C 168.941406 448.832031 289.59375 569.480469 438.425781 569.480469 C 587.253906 569.480469 707.90625 448.832031 707.90625 300 C 707.90625 151.167969 587.253906 30.519531 438.425781 30.519531 Z M 438.425781 30.519531 " clip-rule="nonzero"/></clipPath><linearGradient x1="-0.000000873617" gradientTransform="matrix(2.10533, 0, 0, 2.10533, 168.94205, 30.51778)" y1="0" x2="255.999985" gradientUnits="userSpaceOnUse" y2="0" id="0ba8751246"><stop stop-opacity="1" stop-color="rgb(0%, 9.399414%, 59.999084%)" offset="0"/><stop stop-opacity="1" stop-color="rgb(0.309753%, 9.527588%, 60.116577%)" offset="0.00390625"/><stop stop-opacity="1" stop-color="rgb(0.621033%, 9.657288%, 60.235596%)" offset="0.0078125"/><stop stop-opacity="1" stop-color="rgb(0.932312%, 9.785461%, 60.353088%)" offset="0.0117188"/><stop stop-opacity="1" stop-color="rgb(1.243591%, 9.915161%, 60.470581%)" offset="0.015625"/><stop stop-opacity="1" stop-color="rgb(1.553345%, 10.043335%, 60.588074%)" offset="0.0195313"/><stop stop-opacity="1" stop-color="rgb(1.864624%, 10.173035%, 60.707092%)" offset="0.0234375"/><stop stop-opacity="1" stop-color="rgb(2.175903%, 10.301208%, 60.824585%)" offset="0.0273437"/><stop stop-opacity="1" stop-color="rgb(2.487183%, 10.430908%, 60.943604%)" offset="0.03125"/><stop stop-opacity="1" stop-color="rgb(2.796936%, 10.559082%, 61.061096%)" offset="0.0351562"/><stop stop-opacity="1" stop-color="rgb(3.108215%, 10.688782%, 61.178589%)" offset="0.0390625"/><stop stop-opacity="1" stop-color="rgb(3.419495%, 10.816956%, 61.296082%)" offset="0.0429688"/><stop stop-opacity="1" stop-color="rgb(3.730774%, 10.946655%, 61.4151%)" offset="0.046875"/><stop stop-opacity="1" stop-color="rgb(4.040527%, 11.074829%, 61.532593%)" offset="0.0507812"/><stop stop-opacity="1" stop-color="rgb(4.351807%, 11.204529%, 61.650085%)" offset="0.0546875"/><stop stop-opacity="1" stop-color="rgb(4.663086%, 11.332703%, 61.767578%)" offset="0.0585938"/><stop stop-opacity="1" stop-color="rgb(4.974365%, 11.462402%, 61.886597%)" offset="0.0625"/><stop stop-opacity="1" stop-color="rgb(5.284119%, 11.590576%, 62.004089%)" offset="0.0664062"/><stop stop-opacity="1" stop-color="rgb(5.595398%, 11.720276%, 62.123108%)" offset="0.0703125"/><stop stop-opacity="1" stop-color="rgb(5.906677%, 11.84845%, 62.240601%)" offset="0.0742188"/><stop stop-opacity="1" stop-color="rgb(6.217957%, 11.976624%, 62.358093%)" offset="0.078125"/><stop stop-opacity="1" stop-color="rgb(6.529236%, 12.104797%, 62.475586%)" offset="0.0820312"/><stop stop-opacity="1" stop-color="rgb(6.840515%, 12.234497%, 62.594604%)" offset="0.0859375"/><stop stop-opacity="1" stop-color="rgb(7.150269%, 12.362671%, 62.712097%)" offset="0.0898437"/><stop stop-opacity="1" stop-color="rgb(7.461548%, 12.492371%, 62.831116%)" offset="0.09375"/><stop stop-opacity="1" stop-color="rgb(7.772827%, 12.620544%, 62.948608%)" offset="0.0976563"/><stop stop-opacity="1" stop-color="rgb(8.084106%, 12.750244%, 63.066101%)" offset="0.101562"/><stop stop-opacity="1" stop-color="rgb(8.39386%, 12.878418%, 63.183594%)" offset="0.105469"/><stop stop-opacity="1" stop-color="rgb(8.705139%, 13.008118%, 63.302612%)" offset="0.109375"/><stop stop-opacity="1" stop-color="rgb(9.016418%, 13.136292%, 63.420105%)" offset="0.113281"/><stop stop-opacity="1" stop-color="rgb(9.327698%, 13.265991%, 63.537598%)" offset="0.117188"/><stop stop-opacity="1" stop-color="rgb(9.637451%, 13.394165%, 63.65509%)" offset="0.121094"/><stop stop-opacity="1" stop-color="rgb(9.94873%, 13.523865%, 63.774109%)" offset="0.125"/><stop stop-opacity="1" stop-color="rgb(10.26001%, 13.652039%, 63.891602%)" offset="0.128906"/><stop stop-opacity="1" stop-color="rgb(10.571289%, 13.781738%, 64.01062%)" offset="0.132812"/><stop stop-opacity="1" stop-color="rgb(10.881042%, 13.909912%, 64.128113%)" offset="0.136719"/><stop stop-opacity="1" stop-color="rgb(11.192322%, 14.039612%, 64.245605%)" offset="0.140625"/><stop stop-opacity="1" stop-color="rgb(11.503601%, 14.167786%, 64.363098%)" offset="0.144531"/><stop stop-opacity="1" stop-color="rgb(11.81488%, 14.297485%, 64.482117%)" offset="0.148438"/><stop stop-opacity="1" stop-color="rgb(12.12616%, 14.425659%, 64.599609%)" offset="0.152344"/><stop stop-opacity="1" stop-color="rgb(12.437439%, 14.555359%, 64.718628%)" offset="0.15625"/><stop stop-opacity="1" stop-color="rgb(12.747192%, 14.683533%, 64.836121%)" offset="0.160156"/><stop stop-opacity="1" stop-color="rgb(13.058472%, 14.813232%, 64.953613%)" offset="0.164062"/><stop stop-opacity="1" stop-color="rgb(13.369751%, 14.941406%, 65.071106%)" offset="0.167969"/><stop stop-opacity="1" stop-color="rgb(13.68103%, 15.071106%, 65.190125%)" offset="0.171875"/><stop stop-opacity="1" stop-color="rgb(13.990784%, 15.19928%, 65.307617%)" offset="0.175781"/><stop stop-opacity="1" stop-color="rgb(14.302063%, 15.328979%, 65.42511%)" offset="0.179687"/><stop stop-opacity="1" stop-color="rgb(14.613342%, 15.457153%, 65.542603%)" offset="0.183594"/><stop stop-opacity="1" stop-color="rgb(14.924622%, 15.586853%, 65.661621%)" offset="0.1875"/><stop stop-opacity="1" stop-color="rgb(15.234375%, 15.715027%, 65.779114%)" offset="0.191406"/><stop stop-opacity="1" stop-color="rgb(15.545654%, 15.844727%, 65.898132%)" offset="0.195313"/><stop stop-opacity="1" stop-color="rgb(15.856934%, 15.9729%, 66.015625%)" offset="0.199219"/><stop stop-opacity="1" stop-color="rgb(16.168213%, 16.1026%, 66.133118%)" offset="0.203125"/><stop stop-opacity="1" stop-color="rgb(16.477966%, 16.230774%, 66.25061%)" offset="0.207031"/><stop stop-opacity="1" stop-color="rgb(16.789246%, 16.360474%, 66.369629%)" offset="0.210938"/><stop stop-opacity="1" stop-color="rgb(17.100525%, 16.488647%, 66.487122%)" offset="0.214844"/><stop stop-opacity="1" stop-color="rgb(17.411804%, 16.618347%, 66.60614%)" offset="0.21875"/><stop stop-opacity="1" stop-color="rgb(17.723083%, 16.746521%, 66.723633%)" offset="0.222656"/><stop stop-opacity="1" stop-color="rgb(18.034363%, 16.876221%, 66.841125%)" offset="0.226562"/><stop stop-opacity="1" stop-color="rgb(18.344116%, 17.004395%, 66.958618%)" offset="0.230469"/><stop stop-opacity="1" stop-color="rgb(18.655396%, 17.134094%, 67.077637%)" offset="0.234375"/><stop stop-opacity="1" stop-color="rgb(18.966675%, 17.262268%, 67.195129%)" offset="0.238281"/><stop stop-opacity="1" stop-color="rgb(19.277954%, 17.391968%, 67.312622%)" offset="0.242188"/><stop stop-opacity="1" stop-color="rgb(19.587708%, 17.520142%, 67.430115%)" offset="0.246094"/><stop stop-opacity="1" stop-color="rgb(19.898987%, 17.649841%, 67.549133%)" offset="0.25"/><stop stop-opacity="1" stop-color="rgb(20.210266%, 17.778015%, 67.666626%)" offset="0.253906"/><stop stop-opacity="1" stop-color="rgb(20.521545%, 17.907715%, 67.785645%)" offset="0.257812"/><stop stop-opacity="1" stop-color="rgb(20.831299%, 18.035889%, 67.903137%)" offset="0.261719"/><stop stop-opacity="1" stop-color="rgb(21.142578%, 18.165588%, 68.02063%)" offset="0.265625"/><stop stop-opacity="1" stop-color="rgb(21.453857%, 18.293762%, 68.138123%)" offset="0.269531"/><stop stop-opacity="1" stop-color="rgb(21.765137%, 18.421936%, 68.257141%)" offset="0.273437"/><stop stop-opacity="1" stop-color="rgb(22.07489%, 18.55011%, 68.374634%)" offset="0.277344"/><stop stop-opacity="1" stop-color="rgb(22.386169%, 18.67981%, 68.493652%)" offset="0.28125"/><stop stop-opacity="1" stop-color="rgb(22.697449%, 18.807983%, 68.611145%)" offset="0.285156"/><stop stop-opacity="1" stop-color="rgb(23.008728%, 18.937683%, 68.728638%)" offset="0.289063"/><stop stop-opacity="1" stop-color="rgb(23.318481%, 19.065857%, 68.84613%)" offset="0.292969"/><stop stop-opacity="1" stop-color="rgb(23.629761%, 19.195557%, 68.965149%)" offset="0.296875"/><stop stop-opacity="1" stop-color="rgb(23.94104%, 19.32373%, 69.082642%)" offset="0.300781"/><stop stop-opacity="1" stop-color="rgb(24.252319%, 19.45343%, 69.200134%)" offset="0.304688"/><stop stop-opacity="1" stop-color="rgb(24.563599%, 19.581604%, 69.317627%)" offset="0.308594"/><stop stop-opacity="1" stop-color="rgb(24.874878%, 19.711304%, 69.436646%)" offset="0.3125"/><stop stop-opacity="1" stop-color="rgb(25.184631%, 19.839478%, 69.554138%)" offset="0.316406"/><stop stop-opacity="1" stop-color="rgb(25.495911%, 19.969177%, 69.673157%)" offset="0.320312"/><stop stop-opacity="1" stop-color="rgb(25.80719%, 20.097351%, 69.790649%)" offset="0.324219"/><stop stop-opacity="1" stop-color="rgb(26.118469%, 20.227051%, 69.908142%)" offset="0.328125"/><stop stop-opacity="1" stop-color="rgb(26.428223%, 20.355225%, 70.025635%)" offset="0.332031"/><stop stop-opacity="1" stop-color="rgb(26.739502%, 20.484924%, 70.144653%)" offset="0.335938"/><stop stop-opacity="1" stop-color="rgb(27.050781%, 20.613098%, 70.262146%)" offset="0.339844"/><stop stop-opacity="1" stop-color="rgb(27.362061%, 20.742798%, 70.381165%)" offset="0.34375"/><stop stop-opacity="1" stop-color="rgb(27.671814%, 20.870972%, 70.498657%)" offset="0.347656"/><stop stop-opacity="1" stop-color="rgb(27.983093%, 21.000671%, 70.61615%)" offset="0.351562"/><stop stop-opacity="1" stop-color="rgb(28.294373%, 21.128845%, 70.733643%)" offset="0.355469"/><stop stop-opacity="1" stop-color="rgb(28.605652%, 21.258545%, 70.852661%)" offset="0.359375"/><stop stop-opacity="1" stop-color="rgb(28.915405%, 21.386719%, 70.970154%)" offset="0.363281"/><stop stop-opacity="1" stop-color="rgb(29.226685%, 21.516418%, 71.087646%)" offset="0.367187"/><stop stop-opacity="1" stop-color="rgb(29.537964%, 21.644592%, 71.205139%)" offset="0.371094"/><stop stop-opacity="1" stop-color="rgb(29.849243%, 21.774292%, 71.324158%)" offset="0.375"/><stop stop-opacity="1" stop-color="rgb(30.160522%, 21.902466%, 71.44165%)" offset="0.378906"/><stop stop-opacity="1" stop-color="rgb(30.471802%, 22.032166%, 71.560669%)" offset="0.382813"/><stop stop-opacity="1" stop-color="rgb(30.781555%, 22.160339%, 71.678162%)" offset="0.386719"/><stop stop-opacity="1" stop-color="rgb(31.092834%, 22.290039%, 71.795654%)" offset="0.390625"/><stop stop-opacity="1" stop-color="rgb(31.404114%, 22.418213%, 71.913147%)" offset="0.394531"/><stop stop-opacity="1" stop-color="rgb(31.715393%, 22.547913%, 72.032166%)" offset="0.398438"/><stop stop-opacity="1" stop-color="rgb(32.025146%, 22.676086%, 72.149658%)" offset="0.402344"/><stop stop-opacity="1" stop-color="rgb(32.336426%, 22.805786%, 72.268677%)" offset="0.40625"/><stop stop-opacity="1" stop-color="rgb(32.647705%, 22.93396%, 72.386169%)" offset="0.410156"/><stop stop-opacity="1" stop-color="rgb(32.958984%, 23.06366%, 72.503662%)" offset="0.414062"/><stop stop-opacity="1" stop-color="rgb(33.268738%, 23.191833%, 72.621155%)" offset="0.417969"/><stop stop-opacity="1" stop-color="rgb(33.580017%, 23.321533%, 72.740173%)" offset="0.421875"/><stop stop-opacity="1" stop-color="rgb(33.891296%, 23.449707%, 72.857666%)" offset="0.425781"/><stop stop-opacity="1" stop-color="rgb(34.202576%, 23.579407%, 72.975159%)" offset="0.429688"/><stop stop-opacity="1" stop-color="rgb(34.512329%, 23.707581%, 73.092651%)" offset="0.433594"/><stop stop-opacity="1" stop-color="rgb(34.823608%, 23.83728%, 73.21167%)" offset="0.4375"/><stop stop-opacity="1" stop-color="rgb(35.134888%, 23.965454%, 73.329163%)" offset="0.441406"/><stop stop-opacity="1" stop-color="rgb(35.446167%, 24.095154%, 73.448181%)" offset="0.445312"/><stop stop-opacity="1" stop-color="rgb(35.757446%, 24.223328%, 73.565674%)" offset="0.449219"/><stop stop-opacity="1" stop-color="rgb(36.068726%, 24.353027%, 73.683167%)" offset="0.453125"/><stop stop-opacity="1" stop-color="rgb(36.378479%, 24.481201%, 73.800659%)" offset="0.457031"/><stop stop-opacity="1" stop-color="rgb(36.689758%, 24.610901%, 73.919678%)" offset="0.460937"/><stop stop-opacity="1" stop-color="rgb(37.001038%, 24.739075%, 74.03717%)" offset="0.464844"/><stop stop-opacity="1" stop-color="rgb(37.312317%, 24.867249%, 74.156189%)" offset="0.46875"/><stop stop-opacity="1" stop-color="rgb(37.62207%, 24.995422%, 74.273682%)" offset="0.472656"/><stop stop-opacity="1" stop-color="rgb(37.93335%, 25.125122%, 74.391174%)" offset="0.476563"/><stop stop-opacity="1" stop-color="rgb(38.244629%, 25.253296%, 74.508667%)" offset="0.480469"/><stop stop-opacity="1" stop-color="rgb(38.555908%, 25.382996%, 74.627686%)" offset="0.484375"/><stop stop-opacity="1" stop-color="rgb(38.865662%, 25.511169%, 74.745178%)" offset="0.488281"/><stop stop-opacity="1" stop-color="rgb(39.176941%, 25.640869%, 74.862671%)" offset="0.492188"/><stop stop-opacity="1" stop-color="rgb(39.48822%, 25.769043%, 74.980164%)" offset="0.496094"/><stop stop-opacity="1" stop-color="rgb(39.7995%, 25.898743%, 75.099182%)" offset="0.5"/><stop stop-opacity="1" stop-color="rgb(40.109253%, 26.026917%, 75.216675%)" offset="0.503906"/><stop stop-opacity="1" stop-color="rgb(40.420532%, 26.156616%, 75.335693%)" offset="0.507812"/><stop stop-opacity="1" stop-color="rgb(40.731812%, 26.28479%, 75.453186%)" offset="0.511719"/><stop stop-opacity="1" stop-color="rgb(41.043091%, 26.41449%, 75.570679%)" offset="0.515625"/><stop stop-opacity="1" stop-color="rgb(41.352844%, 26.542664%, 75.688171%)" offset="0.519531"/><stop stop-opacity="1" stop-color="rgb(41.664124%, 26.672363%, 75.80719%)" offset="0.523438"/><stop stop-opacity="1" stop-color="rgb(41.975403%, 26.800537%, 75.924683%)" offset="0.527344"/><stop stop-opacity="1" stop-color="rgb(42.286682%, 26.930237%, 76.043701%)" offset="0.53125"/><stop stop-opacity="1" stop-color="rgb(42.597961%, 27.058411%, 76.161194%)" offset="0.535156"/><stop stop-opacity="1" stop-color="rgb(42.909241%, 27.18811%, 76.278687%)" offset="0.539062"/><stop stop-opacity="1" stop-color="rgb(43.218994%, 27.316284%, 76.396179%)" offset="0.542969"/><stop stop-opacity="1" stop-color="rgb(43.530273%, 27.445984%, 76.515198%)" offset="0.546875"/><stop stop-opacity="1" stop-color="rgb(43.841553%, 27.574158%, 76.63269%)" offset="0.550781"/><stop stop-opacity="1" stop-color="rgb(44.152832%, 27.703857%, 76.750183%)" offset="0.554687"/><stop stop-opacity="1" stop-color="rgb(44.462585%, 27.832031%, 76.867676%)" offset="0.558594"/><stop stop-opacity="1" stop-color="rgb(44.773865%, 27.961731%, 76.986694%)" offset="0.5625"/><stop stop-opacity="1" stop-color="rgb(45.085144%, 28.089905%, 77.104187%)" offset="0.566406"/><stop stop-opacity="1" stop-color="rgb(45.396423%, 28.219604%, 77.223206%)" offset="0.570313"/><stop stop-opacity="1" stop-color="rgb(45.706177%, 28.347778%, 77.340698%)" offset="0.574219"/><stop stop-opacity="1" stop-color="rgb(46.017456%, 28.477478%, 77.458191%)" offset="0.578125"/><stop stop-opacity="1" stop-color="rgb(46.328735%, 28.605652%, 77.575684%)" offset="0.582031"/><stop stop-opacity="1" stop-color="rgb(46.640015%, 28.735352%, 77.694702%)" offset="0.585938"/><stop stop-opacity="1" stop-color="rgb(46.949768%, 28.863525%, 77.812195%)" offset="0.589844"/><stop stop-opacity="1" stop-color="rgb(47.261047%, 28.993225%, 77.931213%)" offset="0.59375"/><stop stop-opacity="1" stop-color="rgb(47.572327%, 29.121399%, 78.048706%)" offset="0.597656"/><stop stop-opacity="1" stop-color="rgb(47.883606%, 29.251099%, 78.166199%)" offset="0.601563"/><stop stop-opacity="1" stop-color="rgb(48.194885%, 29.379272%, 78.283691%)" offset="0.605469"/><stop stop-opacity="1" stop-color="rgb(48.506165%, 29.508972%, 78.40271%)" offset="0.609375"/><stop stop-opacity="1" stop-color="rgb(48.815918%, 29.637146%, 78.520203%)" offset="0.613281"/><stop stop-opacity="1" stop-color="rgb(49.127197%, 29.766846%, 78.637695%)" offset="0.617188"/><stop stop-opacity="1" stop-color="rgb(49.438477%, 29.89502%, 78.755188%)" offset="0.621094"/><stop stop-opacity="1" stop-color="rgb(49.749756%, 30.024719%, 78.874207%)" offset="0.625"/><stop stop-opacity="1" stop-color="rgb(50.059509%, 30.152893%, 78.991699%)" offset="0.628906"/><stop stop-opacity="1" stop-color="rgb(50.370789%, 30.282593%, 79.110718%)" offset="0.632812"/><stop stop-opacity="1" stop-color="rgb(50.682068%, 30.410767%, 79.22821%)" offset="0.636719"/><stop stop-opacity="1" stop-color="rgb(50.993347%, 30.540466%, 79.345703%)" offset="0.640625"/><stop stop-opacity="1" stop-color="rgb(51.303101%, 30.66864%, 79.463196%)" offset="0.644531"/><stop stop-opacity="1" stop-color="rgb(51.61438%, 30.79834%, 79.582214%)" offset="0.648438"/><stop stop-opacity="1" stop-color="rgb(51.925659%, 30.926514%, 79.699707%)" offset="0.652344"/><stop stop-opacity="1" stop-color="rgb(52.236938%, 31.056213%, 79.818726%)" offset="0.65625"/><stop stop-opacity="1" stop-color="rgb(52.546692%, 31.184387%, 79.936218%)" offset="0.660156"/><stop stop-opacity="1" stop-color="rgb(52.857971%, 31.312561%, 80.053711%)" offset="0.664062"/><stop stop-opacity="1" stop-color="rgb(53.16925%, 31.440735%, 80.171204%)" offset="0.667969"/><stop stop-opacity="1" stop-color="rgb(53.48053%, 31.570435%, 80.290222%)" offset="0.671875"/><stop stop-opacity="1" stop-color="rgb(53.791809%, 31.698608%, 80.407715%)" offset="0.675781"/><stop stop-opacity="1" stop-color="rgb(54.103088%, 31.828308%, 80.525208%)" offset="0.679688"/><stop stop-opacity="1" stop-color="rgb(54.412842%, 31.956482%, 80.6427%)" offset="0.683594"/><stop stop-opacity="1" stop-color="rgb(54.724121%, 32.086182%, 80.761719%)" offset="0.6875"/><stop stop-opacity="1" stop-color="rgb(55.0354%, 32.214355%, 80.879211%)" offset="0.691406"/><stop stop-opacity="1" stop-color="rgb(55.34668%, 32.344055%, 80.99823%)" offset="0.695312"/><stop stop-opacity="1" stop-color="rgb(55.656433%, 32.472229%, 81.115723%)" offset="0.699219"/><stop stop-opacity="1" stop-color="rgb(55.967712%, 32.601929%, 81.233215%)" offset="0.703125"/><stop stop-opacity="1" stop-color="rgb(56.278992%, 32.730103%, 81.350708%)" offset="0.707031"/><stop stop-opacity="1" stop-color="rgb(56.590271%, 32.859802%, 81.469727%)" offset="0.710937"/><stop stop-opacity="1" stop-color="rgb(56.900024%, 32.987976%, 81.587219%)" offset="0.714844"/><stop stop-opacity="1" stop-color="rgb(57.211304%, 33.117676%, 81.706238%)" offset="0.71875"/><stop stop-opacity="1" stop-color="rgb(57.522583%, 33.24585%, 81.82373%)" offset="0.722656"/><stop stop-opacity="1" stop-color="rgb(57.833862%, 33.375549%, 81.941223%)" offset="0.726562"/><stop stop-opacity="1" stop-color="rgb(58.143616%, 33.503723%, 82.058716%)" offset="0.730469"/><stop stop-opacity="1" stop-color="rgb(58.454895%, 33.633423%, 82.177734%)" offset="0.734375"/><stop stop-opacity="1" stop-color="rgb(58.766174%, 33.761597%, 82.295227%)" offset="0.738281"/><stop stop-opacity="1" stop-color="rgb(59.077454%, 33.891296%, 82.41272%)" offset="0.742187"/><stop stop-opacity="1" stop-color="rgb(59.387207%, 34.01947%, 82.530212%)" offset="0.746094"/><stop stop-opacity="1" stop-color="rgb(59.698486%, 34.14917%, 82.649231%)" offset="0.75"/><stop stop-opacity="1" stop-color="rgb(60.009766%, 34.277344%, 82.766724%)" offset="0.753906"/><stop stop-opacity="1" stop-color="rgb(60.321045%, 34.407043%, 82.885742%)" offset="0.757813"/><stop stop-opacity="1" stop-color="rgb(60.632324%, 34.535217%, 83.003235%)" offset="0.761719"/><stop stop-opacity="1" stop-color="rgb(60.943604%, 34.664917%, 83.120728%)" offset="0.765625"/><stop stop-opacity="1" stop-color="rgb(61.253357%, 34.793091%, 83.23822%)" offset="0.769531"/><stop stop-opacity="1" stop-color="rgb(61.564636%, 34.922791%, 83.357239%)" offset="0.773438"/><stop stop-opacity="1" stop-color="rgb(61.875916%, 35.050964%, 83.474731%)" offset="0.777344"/><stop stop-opacity="1" stop-color="rgb(62.187195%, 35.180664%, 83.592224%)" offset="0.78125"/><stop stop-opacity="1" stop-color="rgb(62.496948%, 35.308838%, 83.709717%)" offset="0.785156"/><stop stop-opacity="1" stop-color="rgb(62.808228%, 35.438538%, 83.828735%)" offset="0.789063"/><stop stop-opacity="1" stop-color="rgb(63.119507%, 35.566711%, 83.946228%)" offset="0.792969"/><stop stop-opacity="1" stop-color="rgb(63.430786%, 35.696411%, 84.065247%)" offset="0.796875"/><stop stop-opacity="1" stop-color="rgb(63.74054%, 35.824585%, 84.182739%)" offset="0.800781"/><stop stop-opacity="1" stop-color="rgb(64.051819%, 35.954285%, 84.300232%)" offset="0.804688"/><stop stop-opacity="1" stop-color="rgb(64.363098%, 36.082458%, 84.417725%)" offset="0.808594"/><stop stop-opacity="1" stop-color="rgb(64.674377%, 36.212158%, 84.536743%)" offset="0.8125"/><stop stop-opacity="1" stop-color="rgb(64.984131%, 36.340332%, 84.654236%)" offset="0.816406"/><stop stop-opacity="1" stop-color="rgb(65.29541%, 36.470032%, 84.773254%)" offset="0.820312"/><stop stop-opacity="1" stop-color="rgb(65.606689%, 36.598206%, 84.890747%)" offset="0.824219"/><stop stop-opacity="1" stop-color="rgb(65.917969%, 36.727905%, 85.00824%)" offset="0.828125"/><stop stop-opacity="1" stop-color="rgb(66.229248%, 36.856079%, 85.125732%)" offset="0.832031"/><stop stop-opacity="1" stop-color="rgb(66.540527%, 36.985779%, 85.244751%)" offset="0.835938"/><stop stop-opacity="1" stop-color="rgb(66.850281%, 37.113953%, 85.362244%)" offset="0.839844"/><stop stop-opacity="1" stop-color="rgb(67.16156%, 37.243652%, 85.479736%)" offset="0.84375"/><stop stop-opacity="1" stop-color="rgb(67.472839%, 37.371826%, 85.597229%)" offset="0.847656"/><stop stop-opacity="1" stop-color="rgb(67.784119%, 37.501526%, 85.716248%)" offset="0.851562"/><stop stop-opacity="1" stop-color="rgb(68.093872%, 37.6297%, 85.83374%)" offset="0.855469"/><stop stop-opacity="1" stop-color="rgb(68.405151%, 37.757874%, 85.952759%)" offset="0.859375"/><stop stop-opacity="1" stop-color="rgb(68.716431%, 37.886047%, 86.070251%)" offset="0.863281"/><stop stop-opacity="1" stop-color="rgb(69.02771%, 38.015747%, 86.187744%)" offset="0.867188"/><stop stop-opacity="1" stop-color="rgb(69.337463%, 38.143921%, 86.305237%)" offset="0.871094"/><stop stop-opacity="1" stop-color="rgb(69.648743%, 38.273621%, 86.424255%)" offset="0.875"/><stop stop-opacity="1" stop-color="rgb(69.960022%, 38.401794%, 86.541748%)" offset="0.878906"/><stop stop-opacity="1" stop-color="rgb(70.271301%, 38.531494%, 86.660767%)" offset="0.882812"/><stop stop-opacity="1" stop-color="rgb(70.581055%, 38.659668%, 86.778259%)" offset="0.886719"/><stop stop-opacity="1" stop-color="rgb(70.892334%, 38.789368%, 86.895752%)" offset="0.890625"/><stop stop-opacity="1" stop-color="rgb(71.203613%, 38.917542%, 87.013245%)" offset="0.894531"/><stop stop-opacity="1" stop-color="rgb(71.514893%, 39.047241%, 87.132263%)" offset="0.898437"/><stop stop-opacity="1" stop-color="rgb(71.826172%, 39.175415%, 87.249756%)" offset="0.902344"/><stop stop-opacity="1" stop-color="rgb(72.137451%, 39.305115%, 87.367249%)" offset="0.90625"/><stop stop-opacity="1" stop-color="rgb(72.447205%, 39.433289%, 87.484741%)" offset="0.910156"/><stop stop-opacity="1" stop-color="rgb(72.758484%, 39.562988%, 87.60376%)" offset="0.914062"/><stop stop-opacity="1" stop-color="rgb(73.069763%, 39.691162%, 87.721252%)" offset="0.917969"/><stop stop-opacity="1" stop-color="rgb(73.381042%, 39.820862%, 87.840271%)" offset="0.921875"/><stop stop-opacity="1" stop-color="rgb(73.690796%, 39.949036%, 87.957764%)" offset="0.925781"/><stop stop-opacity="1" stop-color="rgb(74.002075%, 40.078735%, 88.075256%)" offset="0.929687"/><stop stop-opacity="1" stop-color="rgb(74.313354%, 40.206909%, 88.192749%)" offset="0.933594"/><stop stop-opacity="1" stop-color="rgb(74.624634%, 40.336609%, 88.311768%)" offset="0.9375"/><stop stop-opacity="1" stop-color="rgb(74.934387%, 40.464783%, 88.42926%)" offset="0.941406"/><stop stop-opacity="1" stop-color="rgb(75.245667%, 40.594482%, 88.548279%)" offset="0.945313"/><stop stop-opacity="1" stop-color="rgb(75.556946%, 40.722656%, 88.665771%)" offset="0.949219"/><stop stop-opacity="1" stop-color="rgb(75.868225%, 40.852356%, 88.783264%)" offset="0.953125"/><stop stop-opacity="1" stop-color="rgb(76.177979%, 40.98053%, 88.900757%)" offset="0.957031"/><stop stop-opacity="1" stop-color="rgb(76.489258%, 41.110229%, 89.019775%)" offset="0.960938"/><stop stop-opacity="1" stop-color="rgb(76.800537%, 41.238403%, 89.137268%)" offset="0.964844"/><stop stop-opacity="1" stop-color="rgb(77.111816%, 41.368103%, 89.254761%)" offset="0.96875"/><stop stop-opacity="1" stop-color="rgb(77.42157%, 41.496277%, 89.372253%)" offset="0.972656"/><stop stop-opacity="1" stop-color="rgb(77.732849%, 41.625977%, 89.491272%)" offset="0.976562"/><stop stop-opacity="1" stop-color="rgb(78.044128%, 41.75415%, 89.608765%)" offset="0.980469"/><stop stop-opacity="1" stop-color="rgb(78.355408%, 41.88385%, 89.727783%)" offset="0.984375"/><stop stop-opacity="1" stop-color="rgb(78.666687%, 42.012024%, 89.845276%)" offset="0.988281"/><stop stop-opacity="1" stop-color="rgb(78.977966%, 42.141724%, 89.962769%)" offset="0.992188"/><stop stop-opacity="1" stop-color="rgb(79.28772%, 42.269897%, 90.080261%)" offset="0.996094"/><stop stop-opacity="1" stop-color="rgb(79.598999%, 42.399597%, 90.19928%)" offset="1"/></linearGradient><clipPath id="d4e89fd81a"><path d="M 298.722656 139.421875 L 578.472656 139.421875 L 578.472656 460.421875 L 298.722656 460.421875 Z M 298.722656 139.421875 " clip-rule="nonzero"/></clipPath></defs><g clip-path="url(#179c6a071c)"><g clip-path="url(#92d9bb4ace)"><path fill="url(#0ba8751246)" d="M 168.941406 30.519531 L 168.941406 569.480469 L 707.90625 569.480469 L 707.90625 30.519531 Z M 168.941406 30.519531 " fill-rule="nonzero"/></g></g><g clip-path="url(#d4e89fd81a)"><path fill="#000000" d="M 475.785156 298.109375 C 477.1875 297.417969 478.566406 296.6875 479.929688 295.917969 C 481.289062 295.148438 482.625 294.34375 483.941406 293.5 C 485.253906 292.65625 486.546875 291.777344 487.8125 290.863281 C 489.078125 289.945312 490.316406 288.996094 491.527344 288.011719 C 492.742188 287.027344 493.925781 286.011719 495.082031 284.960938 C 496.234375 283.910156 497.359375 282.828125 498.457031 281.714844 C 499.550781 280.601562 500.613281 279.457031 501.644531 278.285156 C 502.675781 277.113281 503.671875 275.914062 504.636719 274.683594 C 505.601562 273.457031 506.527344 272.203125 507.421875 270.921875 C 508.316406 269.640625 509.171875 268.335938 509.992188 267.007812 C 510.8125 265.679688 511.597656 264.332031 512.339844 262.960938 C 513.085938 261.589844 513.792969 260.195312 514.460938 258.785156 C 515.125 257.375 515.753906 255.945312 516.339844 254.5 C 516.925781 253.054688 517.472656 251.59375 517.980469 250.117188 C 518.484375 248.640625 518.949219 247.152344 519.371094 245.648438 C 519.792969 244.144531 520.171875 242.632812 520.507812 241.109375 C 520.84375 239.585938 521.140625 238.054688 521.390625 236.515625 C 521.640625 234.976562 521.851562 233.429688 522.015625 231.878906 C 522.179688 230.328125 522.300781 228.769531 522.378906 227.214844 C 522.457031 225.65625 522.488281 224.09375 522.480469 222.535156 C 522.472656 220.976562 522.417969 219.417969 522.320312 217.859375 C 522.222656 216.300781 522.082031 214.75 521.898438 213.199219 C 521.714844 211.648438 521.488281 210.105469 521.21875 208.570312 C 520.949219 207.035156 520.636719 205.503906 520.28125 203.988281 C 519.921875 202.46875 519.527344 200.957031 519.085938 199.460938 C 518.644531 197.964844 518.164062 196.480469 517.640625 195.011719 C 517.117188 193.539062 516.554688 192.085938 515.949219 190.648438 C 515.34375 189.210938 514.699219 187.789062 514.015625 186.386719 C 513.332031 184.984375 512.605469 183.601562 511.84375 182.238281 C 511.082031 180.875 510.285156 179.535156 509.449219 178.21875 C 508.609375 176.898438 507.738281 175.605469 506.828125 174.335938 C 505.921875 173.070312 504.976562 171.824219 503.996094 170.609375 C 503.019531 169.394531 502.007812 168.203125 500.960938 167.042969 C 499.917969 165.886719 498.839844 164.753906 497.730469 163.65625 C 496.621094 162.554688 495.484375 161.488281 494.316406 160.449219 C 493.148438 159.414062 491.949219 158.410156 490.726562 157.441406 C 489.5 156.472656 488.25 155.539062 486.972656 154.636719 C 485.699219 153.738281 484.394531 152.875 483.070312 152.046875 C 481.746094 151.21875 480.398438 150.429688 479.03125 149.679688 C 477.660156 148.925781 476.269531 148.214844 474.859375 147.539062 C 473.453125 146.863281 472.023438 146.230469 470.578125 145.636719 C 469.136719 145.039062 467.675781 144.484375 466.199219 143.972656 C 464.722656 143.460938 463.234375 142.988281 461.730469 142.558594 C 460.230469 142.128906 458.714844 141.738281 457.191406 141.394531 C 455.667969 141.046875 454.136719 140.746094 452.59375 140.484375 C 451.054688 140.222656 449.507812 140.007812 447.953125 139.832031 C 446.398438 139.660156 444.84375 139.527344 443.28125 139.441406 C 441.722656 139.351562 440.160156 139.308594 438.597656 139.308594 C 437.035156 139.308594 435.472656 139.351562 433.914062 139.441406 C 432.351562 139.527344 430.796875 139.660156 429.242188 139.832031 C 427.6875 140.007812 426.140625 140.222656 424.601562 140.484375 C 423.058594 140.746094 421.527344 141.046875 420.003906 141.394531 C 418.480469 141.738281 416.964844 142.128906 415.464844 142.558594 C 413.960938 142.988281 412.472656 143.460938 410.996094 143.972656 C 409.519531 144.484375 408.058594 145.039062 406.617188 145.636719 C 405.171875 146.230469 403.742188 146.863281 402.335938 147.539062 C 400.925781 148.214844 399.535156 148.925781 398.167969 149.679688 C 396.796875 150.429688 395.449219 151.21875 394.125 152.046875 C 392.800781 152.875 391.5 153.738281 390.222656 154.636719 C 388.945312 155.539062 387.695312 156.472656 386.46875 157.441406 C 385.246094 158.410156 384.046875 159.414062 382.878906 160.449219 C 381.710938 161.488281 380.574219 162.554688 379.464844 163.65625 C 378.355469 164.753906 377.28125 165.886719 376.234375 167.042969 C 375.1875 168.203125 374.175781 169.394531 373.199219 170.609375 C 372.21875 171.824219 371.273438 173.070312 370.367188 174.335938 C 369.457031 175.605469 368.585938 176.898438 367.746094 178.21875 C 366.910156 179.535156 366.113281 180.875 365.351562 182.238281 C 364.589844 183.601562 363.863281 184.984375 363.179688 186.386719 C 362.496094 187.789062 361.851562 189.210938 361.246094 190.648438 C 360.640625 192.085938 360.078125 193.539062 359.554688 195.011719 C 359.03125 196.480469 358.550781 197.964844 358.109375 199.460938 C 357.667969 200.957031 357.273438 202.46875 356.914062 203.984375 C 356.558594 205.503906 356.246094 207.035156 355.976562 208.570312 C 355.707031 210.105469 355.480469 211.648438 355.296875 213.199219 C 355.113281 214.75 354.972656 216.300781 354.875 217.859375 C 354.777344 219.417969 354.722656 220.976562 354.714844 222.535156 C 354.707031 224.09375 354.738281 225.65625 354.816406 227.214844 C 354.894531 228.769531 355.015625 230.328125 355.179688 231.878906 C 355.347656 233.429688 355.554688 234.976562 355.804688 236.515625 C 356.054688 238.054688 356.351562 239.585938 356.6875 241.109375 C 357.023438 242.632812 357.402344 244.144531 357.824219 245.648438 C 358.246094 247.152344 358.710938 248.640625 359.214844 250.117188 C 359.722656 251.59375 360.269531 253.054688 360.855469 254.5 C 361.441406 255.945312 362.070312 257.375 362.734375 258.785156 C 363.402344 260.195312 364.109375 261.589844 364.855469 262.960938 C 365.597656 264.332031 366.382812 265.679688 367.203125 267.007812 C 368.023438 268.335938 368.878906 269.640625 369.773438 270.921875 C 370.667969 272.203125 371.59375 273.457031 372.558594 274.683594 C 373.523438 275.914062 374.519531 277.113281 375.550781 278.285156 C 376.582031 279.457031 377.644531 280.601562 378.738281 281.714844 C 379.835938 282.828125 380.960938 283.910156 382.113281 284.960938 C 383.269531 286.011719 384.453125 287.027344 385.667969 288.011719 C 386.878906 288.996094 388.117188 289.945312 389.382812 290.863281 C 390.648438 291.777344 391.941406 292.65625 393.253906 293.5 C 394.570312 294.34375 395.90625 295.148438 397.265625 295.917969 C 398.628906 296.6875 400.007812 297.417969 401.410156 298.109375 C 397.753906 299.117188 394.148438 300.269531 390.589844 301.566406 C 387.027344 302.867188 383.527344 304.308594 380.085938 305.890625 C 376.644531 307.476562 373.269531 309.195312 369.96875 311.054688 C 366.667969 312.910156 363.445312 314.898438 360.304688 317.015625 C 357.164062 319.136719 354.117188 321.378906 351.160156 323.746094 C 348.203125 326.113281 345.34375 328.59375 342.589844 331.191406 C 339.835938 333.789062 337.191406 336.496094 334.65625 339.308594 C 332.121094 342.121094 329.703125 345.035156 327.40625 348.042969 C 325.109375 351.050781 322.9375 354.148438 320.890625 357.335938 C 318.847656 360.519531 316.933594 363.785156 315.15625 367.125 C 313.375 370.464844 311.734375 373.871094 310.234375 377.347656 C 308.730469 380.820312 307.375 384.351562 306.160156 387.933594 C 304.945312 391.519531 303.878906 395.144531 302.960938 398.816406 C 302.042969 402.488281 301.273438 406.1875 300.65625 409.921875 C 300.039062 413.65625 299.574219 417.40625 299.261719 421.179688 C 298.953125 424.949219 298.792969 428.726562 298.789062 432.511719 L 298.789062 446.46875 C 298.789062 447.382812 298.878906 448.289062 299.058594 449.191406 C 299.238281 450.089844 299.503906 450.960938 299.855469 451.808594 C 300.207031 452.65625 300.636719 453.457031 301.148438 454.222656 C 301.65625 454.984375 302.234375 455.6875 302.886719 456.335938 C 303.535156 456.984375 304.242188 457.5625 305.003906 458.070312 C 305.765625 458.582031 306.574219 459.011719 307.421875 459.359375 C 308.269531 459.710938 309.144531 459.976562 310.042969 460.15625 C 310.945312 460.335938 311.851562 460.421875 312.769531 460.421875 L 564.425781 460.421875 C 565.34375 460.421875 566.25 460.335938 567.152344 460.15625 C 568.050781 459.976562 568.925781 459.710938 569.773438 459.359375 C 570.621094 459.011719 571.429688 458.582031 572.191406 458.070312 C 572.953125 457.5625 573.660156 456.984375 574.308594 456.335938 C 574.960938 455.6875 575.539062 454.984375 576.046875 454.222656 C 576.558594 453.457031 576.988281 452.65625 577.339844 451.808594 C 577.691406 450.960938 577.957031 450.089844 578.136719 449.191406 C 578.316406 448.289062 578.40625 447.382812 578.40625 446.46875 L 578.40625 432.511719 C 578.402344 428.726562 578.242188 424.949219 577.933594 421.179688 C 577.621094 417.40625 577.15625 413.65625 576.539062 409.921875 C 575.921875 406.1875 575.152344 402.488281 574.234375 398.816406 C 573.316406 395.144531 572.25 391.519531 571.035156 387.933594 C 569.820312 384.351562 568.464844 380.820312 566.960938 377.347656 C 565.460938 373.871094 563.820312 370.464844 562.039062 367.125 C 560.261719 363.785156 558.347656 360.519531 556.304688 357.335938 C 554.257812 354.148438 552.085938 351.050781 549.789062 348.042969 C 547.492188 345.035156 545.074219 342.121094 542.539062 339.308594 C 540.003906 336.496094 537.359375 333.789062 534.605469 331.191406 C 531.851562 328.59375 528.992188 326.113281 526.035156 323.746094 C 523.078125 321.378906 520.03125 319.136719 516.890625 317.015625 C 513.75 314.898438 510.527344 312.910156 507.226562 311.054688 C 503.925781 309.195312 500.550781 307.476562 497.109375 305.890625 C 493.667969 304.308594 490.167969 302.867188 486.605469 301.566406 C 483.046875 300.269531 479.441406 299.117188 475.785156 298.109375 Z M 475.785156 298.109375 " fill-opacity="1" fill-rule="nonzero"/></g></svg>