<svg xmlns="http://www.w3.org/2000/svg" xmlns:xlink="http://www.w3.org/1999/xlink" width="1280" zoomAndPan="magnify" viewBox="0 0 960 599.999999" height="800" preserveAspectRatio="xMidYMid meet" version="1.0"><defs><clipPath id="cbe086b99c"><path d="M 219 26.871094 L 753.128906 26.871094 L 753.128906 561 L 219 561 Z M 219 26.871094 " clip-rule="nonzero"/></clipPath><clipPath id="45ad473f3b"><path d="M 486.0625 26.871094 C 338.566406 26.871094 219 146.441406 219 293.9375 C 219 441.433594 338.566406 561 486.0625 561 C 633.558594 561 753.128906 441.433594 753.128906 293.9375 C 753.128906 146.441406 633.558594 26.871094 486.0625 26.871094 Z M 486.0625 26.871094 " clip-rule="nonzero"/></clipPath><linearGradient x1="-0.00000686572" gradientTransform="matrix(2.086444, 0, 0, 2.086444, 218.99857, 26.87172)" y1="0" x2="255.99996" gradientUnits="userSpaceOnUse" y2="0" id="19a979d43a"><stop stop-opacity="1" stop-color="rgb(1.199341%, 39.99939%, 92.199707%)" offset="0"/><stop stop-opacity="1" stop-color="rgb(1.483154%, 39.910889%, 92.190552%)" offset="0.00390625"/><stop stop-opacity="1" stop-color="rgb(1.768494%, 39.823914%, 92.182922%)" offset="0.0078125"/><stop stop-opacity="1" stop-color="rgb(2.052307%, 39.736938%, 92.175293%)" offset="0.0117188"/><stop stop-opacity="1" stop-color="rgb(2.337646%, 39.649963%, 92.167664%)" offset="0.015625"/><stop stop-opacity="1" stop-color="rgb(2.622986%, 39.561462%, 92.160034%)" offset="0.0195313"/><stop stop-opacity="1" stop-color="rgb(2.908325%, 39.474487%, 92.152405%)" offset="0.0234375"/><stop stop-opacity="1" stop-color="rgb(3.192139%, 39.385986%, 92.144775%)" offset="0.0273437"/><stop stop-opacity="1" stop-color="rgb(3.477478%, 39.299011%, 92.137146%)" offset="0.03125"/><stop stop-opacity="1" stop-color="rgb(3.761292%, 39.21051%, 92.127991%)" offset="0.0351562"/><stop stop-opacity="1" stop-color="rgb(4.046631%, 39.123535%, 92.120361%)" offset="0.0390625"/><stop stop-opacity="1" stop-color="rgb(4.330444%, 39.03656%, 92.112732%)" offset="0.0429688"/><stop stop-opacity="1" stop-color="rgb(4.615784%, 38.949585%, 92.105103%)" offset="0.046875"/><stop stop-opacity="1" stop-color="rgb(4.901123%, 38.861084%, 92.097473%)" offset="0.0507812"/><stop stop-opacity="1" stop-color="rgb(5.186462%, 38.774109%, 92.089844%)" offset="0.0546875"/><stop stop-opacity="1" stop-color="rgb(5.470276%, 38.685608%, 92.082214%)" offset="0.0585938"/><stop stop-opacity="1" stop-color="rgb(5.755615%, 38.598633%, 92.074585%)" offset="0.0625"/><stop stop-opacity="1" stop-color="rgb(6.039429%, 38.511658%, 92.066956%)" offset="0.0664062"/><stop stop-opacity="1" stop-color="rgb(6.324768%, 38.424683%, 92.059326%)" offset="0.0703125"/><stop stop-opacity="1" stop-color="rgb(6.608582%, 38.336182%, 92.050171%)" offset="0.0742188"/><stop stop-opacity="1" stop-color="rgb(6.893921%, 38.249207%, 92.042542%)" offset="0.078125"/><stop stop-opacity="1" stop-color="rgb(7.17926%, 38.160706%, 92.034912%)" offset="0.0820312"/><stop stop-opacity="1" stop-color="rgb(7.4646%, 38.07373%, 92.027283%)" offset="0.0859375"/><stop stop-opacity="1" stop-color="rgb(7.748413%, 37.986755%, 92.019653%)" offset="0.0898437"/><stop stop-opacity="1" stop-color="rgb(8.033752%, 37.89978%, 92.012024%)" offset="0.09375"/><stop stop-opacity="1" stop-color="rgb(8.317566%, 37.811279%, 92.004395%)" offset="0.0976563"/><stop stop-opacity="1" stop-color="rgb(8.602905%, 37.724304%, 91.996765%)" offset="0.101562"/><stop stop-opacity="1" stop-color="rgb(8.886719%, 37.635803%, 91.98761%)" offset="0.105469"/><stop stop-opacity="1" stop-color="rgb(9.172058%, 37.548828%, 91.97998%)" offset="0.109375"/><stop stop-opacity="1" stop-color="rgb(9.457397%, 37.461853%, 91.972351%)" offset="0.113281"/><stop stop-opacity="1" stop-color="rgb(9.742737%, 37.374878%, 91.964722%)" offset="0.117188"/><stop stop-opacity="1" stop-color="rgb(10.02655%, 37.286377%, 91.957092%)" offset="0.121094"/><stop stop-opacity="1" stop-color="rgb(10.31189%, 37.199402%, 91.949463%)" offset="0.125"/><stop stop-opacity="1" stop-color="rgb(10.595703%, 37.110901%, 91.941833%)" offset="0.128906"/><stop stop-opacity="1" stop-color="rgb(10.881042%, 37.023926%, 91.934204%)" offset="0.132812"/><stop stop-opacity="1" stop-color="rgb(11.164856%, 36.936951%, 91.925049%)" offset="0.136719"/><stop stop-opacity="1" stop-color="rgb(11.450195%, 36.849976%, 91.917419%)" offset="0.140625"/><stop stop-opacity="1" stop-color="rgb(11.735535%, 36.761475%, 91.90979%)" offset="0.144531"/><stop stop-opacity="1" stop-color="rgb(12.020874%, 36.6745%, 91.902161%)" offset="0.148438"/><stop stop-opacity="1" stop-color="rgb(12.304688%, 36.585999%, 91.894531%)" offset="0.152344"/><stop stop-opacity="1" stop-color="rgb(12.590027%, 36.499023%, 91.886902%)" offset="0.15625"/><stop stop-opacity="1" stop-color="rgb(12.87384%, 36.410522%, 91.879272%)" offset="0.160156"/><stop stop-opacity="1" stop-color="rgb(13.15918%, 36.323547%, 91.871643%)" offset="0.164062"/><stop stop-opacity="1" stop-color="rgb(13.442993%, 36.236572%, 91.862488%)" offset="0.167969"/><stop stop-opacity="1" stop-color="rgb(13.728333%, 36.149597%, 91.854858%)" offset="0.171875"/><stop stop-opacity="1" stop-color="rgb(14.013672%, 36.061096%, 91.847229%)" offset="0.175781"/><stop stop-opacity="1" stop-color="rgb(14.299011%, 35.974121%, 91.8396%)" offset="0.179687"/><stop stop-opacity="1" stop-color="rgb(14.582825%, 35.88562%, 91.83197%)" offset="0.183594"/><stop stop-opacity="1" stop-color="rgb(14.868164%, 35.798645%, 91.824341%)" offset="0.1875"/><stop stop-opacity="1" stop-color="rgb(15.151978%, 35.71167%, 91.816711%)" offset="0.191406"/><stop stop-opacity="1" stop-color="rgb(15.437317%, 35.624695%, 91.809082%)" offset="0.195313"/><stop stop-opacity="1" stop-color="rgb(15.72113%, 35.536194%, 91.799927%)" offset="0.199219"/><stop stop-opacity="1" stop-color="rgb(16.00647%, 35.449219%, 91.792297%)" offset="0.203125"/><stop stop-opacity="1" stop-color="rgb(16.291809%, 35.360718%, 91.784668%)" offset="0.207031"/><stop stop-opacity="1" stop-color="rgb(16.577148%, 35.273743%, 91.777039%)" offset="0.210938"/><stop stop-opacity="1" stop-color="rgb(16.860962%, 35.186768%, 91.769409%)" offset="0.214844"/><stop stop-opacity="1" stop-color="rgb(17.146301%, 35.099792%, 91.76178%)" offset="0.21875"/><stop stop-opacity="1" stop-color="rgb(17.430115%, 35.011292%, 91.75415%)" offset="0.222656"/><stop stop-opacity="1" stop-color="rgb(17.715454%, 34.924316%, 91.746521%)" offset="0.226562"/><stop stop-opacity="1" stop-color="rgb(17.999268%, 34.835815%, 91.737366%)" offset="0.230469"/><stop stop-opacity="1" stop-color="rgb(18.284607%, 34.74884%, 91.729736%)" offset="0.234375"/><stop stop-opacity="1" stop-color="rgb(18.569946%, 34.661865%, 91.722107%)" offset="0.238281"/><stop stop-opacity="1" stop-color="rgb(18.855286%, 34.57489%, 91.714478%)" offset="0.242188"/><stop stop-opacity="1" stop-color="rgb(19.139099%, 34.486389%, 91.706848%)" offset="0.246094"/><stop stop-opacity="1" stop-color="rgb(19.424438%, 34.399414%, 91.699219%)" offset="0.25"/><stop stop-opacity="1" stop-color="rgb(19.708252%, 34.310913%, 91.691589%)" offset="0.253906"/><stop stop-opacity="1" stop-color="rgb(19.993591%, 34.223938%, 91.68396%)" offset="0.257812"/><stop stop-opacity="1" stop-color="rgb(20.277405%, 34.136963%, 91.676331%)" offset="0.261719"/><stop stop-opacity="1" stop-color="rgb(20.562744%, 34.049988%, 91.668701%)" offset="0.265625"/><stop stop-opacity="1" stop-color="rgb(20.848083%, 33.961487%, 91.659546%)" offset="0.269531"/><stop stop-opacity="1" stop-color="rgb(21.133423%, 33.874512%, 91.651917%)" offset="0.273437"/><stop stop-opacity="1" stop-color="rgb(21.417236%, 33.786011%, 91.644287%)" offset="0.277344"/><stop stop-opacity="1" stop-color="rgb(21.702576%, 33.699036%, 91.636658%)" offset="0.28125"/><stop stop-opacity="1" stop-color="rgb(21.986389%, 33.610535%, 91.629028%)" offset="0.285156"/><stop stop-opacity="1" stop-color="rgb(22.271729%, 33.52356%, 91.621399%)" offset="0.289063"/><stop stop-opacity="1" stop-color="rgb(22.555542%, 33.436584%, 91.61377%)" offset="0.292969"/><stop stop-opacity="1" stop-color="rgb(22.840881%, 33.349609%, 91.60614%)" offset="0.296875"/><stop stop-opacity="1" stop-color="rgb(23.126221%, 33.261108%, 91.596985%)" offset="0.300781"/><stop stop-opacity="1" stop-color="rgb(23.41156%, 33.174133%, 91.589355%)" offset="0.304688"/><stop stop-opacity="1" stop-color="rgb(23.695374%, 33.085632%, 91.581726%)" offset="0.308594"/><stop stop-opacity="1" stop-color="rgb(23.980713%, 32.998657%, 91.574097%)" offset="0.3125"/><stop stop-opacity="1" stop-color="rgb(24.264526%, 32.911682%, 91.566467%)" offset="0.316406"/><stop stop-opacity="1" stop-color="rgb(24.549866%, 32.824707%, 91.558838%)" offset="0.320312"/><stop stop-opacity="1" stop-color="rgb(24.833679%, 32.736206%, 91.551208%)" offset="0.324219"/><stop stop-opacity="1" stop-color="rgb(25.119019%, 32.649231%, 91.543579%)" offset="0.328125"/><stop stop-opacity="1" stop-color="rgb(25.404358%, 32.56073%, 91.534424%)" offset="0.332031"/><stop stop-opacity="1" stop-color="rgb(25.689697%, 32.473755%, 91.526794%)" offset="0.335938"/><stop stop-opacity="1" stop-color="rgb(25.973511%, 32.38678%, 91.519165%)" offset="0.339844"/><stop stop-opacity="1" stop-color="rgb(26.25885%, 32.299805%, 91.511536%)" offset="0.34375"/><stop stop-opacity="1" stop-color="rgb(26.542664%, 32.211304%, 91.503906%)" offset="0.347656"/><stop stop-opacity="1" stop-color="rgb(26.828003%, 32.124329%, 91.496277%)" offset="0.351562"/><stop stop-opacity="1" stop-color="rgb(27.111816%, 32.035828%, 91.488647%)" offset="0.355469"/><stop stop-opacity="1" stop-color="rgb(27.397156%, 31.948853%, 91.481018%)" offset="0.359375"/><stop stop-opacity="1" stop-color="rgb(27.682495%, 31.861877%, 91.471863%)" offset="0.363281"/><stop stop-opacity="1" stop-color="rgb(27.967834%, 31.774902%, 91.464233%)" offset="0.367187"/><stop stop-opacity="1" stop-color="rgb(28.251648%, 31.686401%, 91.456604%)" offset="0.371094"/><stop stop-opacity="1" stop-color="rgb(28.536987%, 31.599426%, 91.448975%)" offset="0.375"/><stop stop-opacity="1" stop-color="rgb(28.820801%, 31.510925%, 91.441345%)" offset="0.378906"/><stop stop-opacity="1" stop-color="rgb(29.10614%, 31.42395%, 91.433716%)" offset="0.382813"/><stop stop-opacity="1" stop-color="rgb(29.389954%, 31.336975%, 91.426086%)" offset="0.386719"/><stop stop-opacity="1" stop-color="rgb(29.675293%, 31.25%, 91.418457%)" offset="0.390625"/><stop stop-opacity="1" stop-color="rgb(29.960632%, 31.161499%, 91.409302%)" offset="0.394531"/><stop stop-opacity="1" stop-color="rgb(30.245972%, 31.074524%, 91.401672%)" offset="0.398438"/><stop stop-opacity="1" stop-color="rgb(30.529785%, 30.986023%, 91.394043%)" offset="0.402344"/><stop stop-opacity="1" stop-color="rgb(30.815125%, 30.899048%, 91.386414%)" offset="0.40625"/><stop stop-opacity="1" stop-color="rgb(31.098938%, 30.810547%, 91.378784%)" offset="0.410156"/><stop stop-opacity="1" stop-color="rgb(31.384277%, 30.723572%, 91.371155%)" offset="0.414062"/><stop stop-opacity="1" stop-color="rgb(31.668091%, 30.636597%, 91.363525%)" offset="0.417969"/><stop stop-opacity="1" stop-color="rgb(31.95343%, 30.549622%, 91.355896%)" offset="0.421875"/><stop stop-opacity="1" stop-color="rgb(32.23877%, 30.461121%, 91.346741%)" offset="0.425781"/><stop stop-opacity="1" stop-color="rgb(32.524109%, 30.374146%, 91.339111%)" offset="0.429688"/><stop stop-opacity="1" stop-color="rgb(32.807922%, 30.285645%, 91.331482%)" offset="0.433594"/><stop stop-opacity="1" stop-color="rgb(33.093262%, 30.198669%, 91.323853%)" offset="0.4375"/><stop stop-opacity="1" stop-color="rgb(33.377075%, 30.111694%, 91.316223%)" offset="0.441406"/><stop stop-opacity="1" stop-color="rgb(33.662415%, 30.024719%, 91.308594%)" offset="0.445312"/><stop stop-opacity="1" stop-color="rgb(33.946228%, 29.936218%, 91.300964%)" offset="0.449219"/><stop stop-opacity="1" stop-color="rgb(34.231567%, 29.849243%, 91.293335%)" offset="0.453125"/><stop stop-opacity="1" stop-color="rgb(34.516907%, 29.760742%, 91.285706%)" offset="0.457031"/><stop stop-opacity="1" stop-color="rgb(34.802246%, 29.673767%, 91.278076%)" offset="0.460937"/><stop stop-opacity="1" stop-color="rgb(35.08606%, 29.586792%, 91.268921%)" offset="0.464844"/><stop stop-opacity="1" stop-color="rgb(35.371399%, 29.499817%, 91.261292%)" offset="0.46875"/><stop stop-opacity="1" stop-color="rgb(35.655212%, 29.411316%, 91.253662%)" offset="0.472656"/><stop stop-opacity="1" stop-color="rgb(35.940552%, 29.324341%, 91.246033%)" offset="0.476563"/><stop stop-opacity="1" stop-color="rgb(36.224365%, 29.23584%, 91.238403%)" offset="0.480469"/><stop stop-opacity="1" stop-color="rgb(36.509705%, 29.148865%, 91.230774%)" offset="0.484375"/><stop stop-opacity="1" stop-color="rgb(36.795044%, 29.06189%, 91.223145%)" offset="0.488281"/><stop stop-opacity="1" stop-color="rgb(37.080383%, 28.974915%, 91.215515%)" offset="0.492188"/><stop stop-opacity="1" stop-color="rgb(37.364197%, 28.886414%, 91.20636%)" offset="0.496094"/><stop stop-opacity="1" stop-color="rgb(37.649536%, 28.799438%, 91.19873%)" offset="0.5"/><stop stop-opacity="1" stop-color="rgb(37.93335%, 28.710938%, 91.191101%)" offset="0.503906"/><stop stop-opacity="1" stop-color="rgb(38.218689%, 28.623962%, 91.183472%)" offset="0.507812"/><stop stop-opacity="1" stop-color="rgb(38.502502%, 28.535461%, 91.175842%)" offset="0.511719"/><stop stop-opacity="1" stop-color="rgb(38.787842%, 28.448486%, 91.168213%)" offset="0.515625"/><stop stop-opacity="1" stop-color="rgb(39.073181%, 28.361511%, 91.160583%)" offset="0.519531"/><stop stop-opacity="1" stop-color="rgb(39.358521%, 28.274536%, 91.152954%)" offset="0.523438"/><stop stop-opacity="1" stop-color="rgb(39.642334%, 28.186035%, 91.143799%)" offset="0.527344"/><stop stop-opacity="1" stop-color="rgb(39.927673%, 28.09906%, 91.136169%)" offset="0.53125"/><stop stop-opacity="1" stop-color="rgb(40.211487%, 28.010559%, 91.12854%)" offset="0.535156"/><stop stop-opacity="1" stop-color="rgb(40.496826%, 27.923584%, 91.120911%)" offset="0.539062"/><stop stop-opacity="1" stop-color="rgb(40.78064%, 27.836609%, 91.113281%)" offset="0.542969"/><stop stop-opacity="1" stop-color="rgb(41.065979%, 27.749634%, 91.105652%)" offset="0.546875"/><stop stop-opacity="1" stop-color="rgb(41.351318%, 27.661133%, 91.098022%)" offset="0.550781"/><stop stop-opacity="1" stop-color="rgb(41.636658%, 27.574158%, 91.090393%)" offset="0.554688"/><stop stop-opacity="1" stop-color="rgb(41.920471%, 27.485657%, 91.081238%)" offset="0.558594"/><stop stop-opacity="1" stop-color="rgb(42.205811%, 27.398682%, 91.073608%)" offset="0.5625"/><stop stop-opacity="1" stop-color="rgb(42.489624%, 27.311707%, 91.065979%)" offset="0.566406"/><stop stop-opacity="1" stop-color="rgb(42.774963%, 27.224731%, 91.05835%)" offset="0.570312"/><stop stop-opacity="1" stop-color="rgb(43.058777%, 27.13623%, 91.05072%)" offset="0.574219"/><stop stop-opacity="1" stop-color="rgb(43.344116%, 27.049255%, 91.043091%)" offset="0.578125"/><stop stop-opacity="1" stop-color="rgb(43.629456%, 26.960754%, 91.035461%)" offset="0.582031"/><stop stop-opacity="1" stop-color="rgb(43.914795%, 26.873779%, 91.027832%)" offset="0.585938"/><stop stop-opacity="1" stop-color="rgb(44.198608%, 26.786804%, 91.018677%)" offset="0.589844"/><stop stop-opacity="1" stop-color="rgb(44.483948%, 26.699829%, 91.011047%)" offset="0.59375"/><stop stop-opacity="1" stop-color="rgb(44.767761%, 26.611328%, 91.003418%)" offset="0.597656"/><stop stop-opacity="1" stop-color="rgb(45.053101%, 26.524353%, 90.995789%)" offset="0.601563"/><stop stop-opacity="1" stop-color="rgb(45.336914%, 26.435852%, 90.988159%)" offset="0.605469"/><stop stop-opacity="1" stop-color="rgb(45.622253%, 26.348877%, 90.98053%)" offset="0.609375"/><stop stop-opacity="1" stop-color="rgb(45.907593%, 26.261902%, 90.9729%)" offset="0.613281"/><stop stop-opacity="1" stop-color="rgb(46.192932%, 26.174927%, 90.965271%)" offset="0.617188"/><stop stop-opacity="1" stop-color="rgb(46.476746%, 26.086426%, 90.956116%)" offset="0.621094"/><stop stop-opacity="1" stop-color="rgb(46.762085%, 25.999451%, 90.948486%)" offset="0.625"/><stop stop-opacity="1" stop-color="rgb(47.045898%, 25.91095%, 90.940857%)" offset="0.628906"/><stop stop-opacity="1" stop-color="rgb(47.331238%, 25.823975%, 90.933228%)" offset="0.632812"/><stop stop-opacity="1" stop-color="rgb(47.615051%, 25.735474%, 90.925598%)" offset="0.636719"/><stop stop-opacity="1" stop-color="rgb(47.900391%, 25.648499%, 90.917969%)" offset="0.640625"/><stop stop-opacity="1" stop-color="rgb(48.18573%, 25.561523%, 90.910339%)" offset="0.644531"/><stop stop-opacity="1" stop-color="rgb(48.471069%, 25.474548%, 90.90271%)" offset="0.648438"/><stop stop-opacity="1" stop-color="rgb(48.754883%, 25.386047%, 90.895081%)" offset="0.652344"/><stop stop-opacity="1" stop-color="rgb(49.040222%, 25.299072%, 90.887451%)" offset="0.65625"/><stop stop-opacity="1" stop-color="rgb(49.324036%, 25.210571%, 90.878296%)" offset="0.660156"/><stop stop-opacity="1" stop-color="rgb(49.609375%, 25.123596%, 90.870667%)" offset="0.664062"/><stop stop-opacity="1" stop-color="rgb(49.893188%, 25.036621%, 90.863037%)" offset="0.667969"/><stop stop-opacity="1" stop-color="rgb(50.178528%, 24.949646%, 90.855408%)" offset="0.671875"/><stop stop-opacity="1" stop-color="rgb(50.463867%, 24.861145%, 90.847778%)" offset="0.675781"/><stop stop-opacity="1" stop-color="rgb(50.749207%, 24.77417%, 90.840149%)" offset="0.679688"/><stop stop-opacity="1" stop-color="rgb(51.03302%, 24.685669%, 90.83252%)" offset="0.683594"/><stop stop-opacity="1" stop-color="rgb(51.318359%, 24.598694%, 90.82489%)" offset="0.6875"/><stop stop-opacity="1" stop-color="rgb(51.602173%, 24.511719%, 90.815735%)" offset="0.691406"/><stop stop-opacity="1" stop-color="rgb(51.887512%, 24.424744%, 90.808105%)" offset="0.695312"/><stop stop-opacity="1" stop-color="rgb(52.171326%, 24.336243%, 90.800476%)" offset="0.699219"/><stop stop-opacity="1" stop-color="rgb(52.456665%, 24.249268%, 90.792847%)" offset="0.703125"/><stop stop-opacity="1" stop-color="rgb(52.740479%, 24.160767%, 90.785217%)" offset="0.707031"/><stop stop-opacity="1" stop-color="rgb(53.025818%, 24.073792%, 90.777588%)" offset="0.710937"/><stop stop-opacity="1" stop-color="rgb(53.311157%, 23.986816%, 90.769958%)" offset="0.714844"/><stop stop-opacity="1" stop-color="rgb(53.596497%, 23.899841%, 90.762329%)" offset="0.71875"/><stop stop-opacity="1" stop-color="rgb(53.88031%, 23.81134%, 90.753174%)" offset="0.722656"/><stop stop-opacity="1" stop-color="rgb(54.165649%, 23.724365%, 90.745544%)" offset="0.726562"/><stop stop-opacity="1" stop-color="rgb(54.449463%, 23.635864%, 90.737915%)" offset="0.730469"/><stop stop-opacity="1" stop-color="rgb(54.734802%, 23.548889%, 90.730286%)" offset="0.734375"/><stop stop-opacity="1" stop-color="rgb(55.018616%, 23.461914%, 90.722656%)" offset="0.738281"/><stop stop-opacity="1" stop-color="rgb(55.303955%, 23.374939%, 90.715027%)" offset="0.742188"/><stop stop-opacity="1" stop-color="rgb(55.589294%, 23.286438%, 90.707397%)" offset="0.746094"/><stop stop-opacity="1" stop-color="rgb(55.874634%, 23.199463%, 90.699768%)" offset="0.75"/><stop stop-opacity="1" stop-color="rgb(56.158447%, 23.110962%, 90.690613%)" offset="0.753906"/><stop stop-opacity="1" stop-color="rgb(56.443787%, 23.023987%, 90.682983%)" offset="0.757812"/><stop stop-opacity="1" stop-color="rgb(56.7276%, 22.935486%, 90.675354%)" offset="0.761719"/><stop stop-opacity="1" stop-color="rgb(57.012939%, 22.848511%, 90.667725%)" offset="0.765625"/><stop stop-opacity="1" stop-color="rgb(57.296753%, 22.761536%, 90.660095%)" offset="0.769531"/><stop stop-opacity="1" stop-color="rgb(57.582092%, 22.674561%, 90.652466%)" offset="0.773438"/><stop stop-opacity="1" stop-color="rgb(57.867432%, 22.58606%, 90.644836%)" offset="0.777344"/><stop stop-opacity="1" stop-color="rgb(58.152771%, 22.499084%, 90.637207%)" offset="0.78125"/><stop stop-opacity="1" stop-color="rgb(58.436584%, 22.410583%, 90.628052%)" offset="0.785156"/><stop stop-opacity="1" stop-color="rgb(58.721924%, 22.323608%, 90.620422%)" offset="0.789063"/><stop stop-opacity="1" stop-color="rgb(59.005737%, 22.236633%, 90.612793%)" offset="0.792969"/><stop stop-opacity="1" stop-color="rgb(59.291077%, 22.149658%, 90.605164%)" offset="0.796875"/><stop stop-opacity="1" stop-color="rgb(59.57489%, 22.061157%, 90.597534%)" offset="0.800781"/><stop stop-opacity="1" stop-color="rgb(59.860229%, 21.974182%, 90.589905%)" offset="0.804688"/><stop stop-opacity="1" stop-color="rgb(60.145569%, 21.885681%, 90.582275%)" offset="0.808594"/><stop stop-opacity="1" stop-color="rgb(60.430908%, 21.798706%, 90.574646%)" offset="0.8125"/><stop stop-opacity="1" stop-color="rgb(60.714722%, 21.711731%, 90.565491%)" offset="0.816406"/><stop stop-opacity="1" stop-color="rgb(61.000061%, 21.624756%, 90.557861%)" offset="0.820312"/><stop stop-opacity="1" stop-color="rgb(61.283875%, 21.536255%, 90.550232%)" offset="0.824219"/><stop stop-opacity="1" stop-color="rgb(61.569214%, 21.44928%, 90.542603%)" offset="0.828125"/><stop stop-opacity="1" stop-color="rgb(61.853027%, 21.360779%, 90.534973%)" offset="0.832031"/><stop stop-opacity="1" stop-color="rgb(62.138367%, 21.273804%, 90.527344%)" offset="0.835938"/><stop stop-opacity="1" stop-color="rgb(62.423706%, 21.186829%, 90.519714%)" offset="0.839844"/><stop stop-opacity="1" stop-color="rgb(62.709045%, 21.099854%, 90.512085%)" offset="0.84375"/><stop stop-opacity="1" stop-color="rgb(62.992859%, 21.011353%, 90.504456%)" offset="0.847656"/><stop stop-opacity="1" stop-color="rgb(63.278198%, 20.924377%, 90.496826%)" offset="0.851562"/><stop stop-opacity="1" stop-color="rgb(63.562012%, 20.835876%, 90.487671%)" offset="0.855469"/><stop stop-opacity="1" stop-color="rgb(63.847351%, 20.748901%, 90.480042%)" offset="0.859375"/><stop stop-opacity="1" stop-color="rgb(64.131165%, 20.661926%, 90.472412%)" offset="0.863281"/><stop stop-opacity="1" stop-color="rgb(64.416504%, 20.574951%, 90.464783%)" offset="0.867188"/><stop stop-opacity="1" stop-color="rgb(64.701843%, 20.48645%, 90.457153%)" offset="0.871094"/><stop stop-opacity="1" stop-color="rgb(64.987183%, 20.399475%, 90.449524%)" offset="0.875"/><stop stop-opacity="1" stop-color="rgb(65.270996%, 20.310974%, 90.441895%)" offset="0.878906"/><stop stop-opacity="1" stop-color="rgb(65.556335%, 20.223999%, 90.434265%)" offset="0.882812"/><stop stop-opacity="1" stop-color="rgb(65.840149%, 20.135498%, 90.42511%)" offset="0.886719"/><stop stop-opacity="1" stop-color="rgb(66.125488%, 20.048523%, 90.41748%)" offset="0.890625"/><stop stop-opacity="1" stop-color="rgb(66.409302%, 19.961548%, 90.409851%)" offset="0.894531"/><stop stop-opacity="1" stop-color="rgb(66.694641%, 19.874573%, 90.402222%)" offset="0.898437"/><stop stop-opacity="1" stop-color="rgb(66.97998%, 19.786072%, 90.394592%)" offset="0.902344"/><stop stop-opacity="1" stop-color="rgb(67.26532%, 19.699097%, 90.386963%)" offset="0.90625"/><stop stop-opacity="1" stop-color="rgb(67.549133%, 19.610596%, 90.379333%)" offset="0.910156"/><stop stop-opacity="1" stop-color="rgb(67.834473%, 19.523621%, 90.371704%)" offset="0.914062"/><stop stop-opacity="1" stop-color="rgb(68.118286%, 19.436646%, 90.362549%)" offset="0.917969"/><stop stop-opacity="1" stop-color="rgb(68.403625%, 19.34967%, 90.354919%)" offset="0.921875"/><stop stop-opacity="1" stop-color="rgb(68.687439%, 19.261169%, 90.34729%)" offset="0.925781"/><stop stop-opacity="1" stop-color="rgb(68.972778%, 19.174194%, 90.339661%)" offset="0.929688"/><stop stop-opacity="1" stop-color="rgb(69.258118%, 19.085693%, 90.332031%)" offset="0.933594"/><stop stop-opacity="1" stop-color="rgb(69.543457%, 18.998718%, 90.324402%)" offset="0.9375"/><stop stop-opacity="1" stop-color="rgb(69.827271%, 18.911743%, 90.316772%)" offset="0.941406"/><stop stop-opacity="1" stop-color="rgb(70.11261%, 18.824768%, 90.309143%)" offset="0.945312"/><stop stop-opacity="1" stop-color="rgb(70.396423%, 18.736267%, 90.299988%)" offset="0.949219"/><stop stop-opacity="1" stop-color="rgb(70.681763%, 18.649292%, 90.292358%)" offset="0.953125"/><stop stop-opacity="1" stop-color="rgb(70.965576%, 18.560791%, 90.284729%)" offset="0.957031"/><stop stop-opacity="1" stop-color="rgb(71.250916%, 18.473816%, 90.2771%)" offset="0.960938"/><stop stop-opacity="1" stop-color="rgb(71.536255%, 18.386841%, 90.26947%)" offset="0.964844"/><stop stop-opacity="1" stop-color="rgb(71.821594%, 18.299866%, 90.261841%)" offset="0.96875"/><stop stop-opacity="1" stop-color="rgb(72.105408%, 18.211365%, 90.254211%)" offset="0.972656"/><stop stop-opacity="1" stop-color="rgb(72.390747%, 18.12439%, 90.246582%)" offset="0.976562"/><stop stop-opacity="1" stop-color="rgb(72.674561%, 18.035889%, 90.237427%)" offset="0.980469"/><stop stop-opacity="1" stop-color="rgb(72.9599%, 17.948914%, 90.229797%)" offset="0.984375"/><stop stop-opacity="1" stop-color="rgb(73.243713%, 17.861938%, 90.222168%)" offset="0.988281"/><stop stop-opacity="1" stop-color="rgb(73.529053%, 17.774963%, 90.214539%)" offset="0.992188"/><stop stop-opacity="1" stop-color="rgb(73.814392%, 17.686462%, 90.206909%)" offset="0.996094"/><stop stop-opacity="1" stop-color="rgb(74.099731%, 17.599487%, 90.19928%)" offset="1"/></linearGradient><clipPath id="7d15abfda1"><path d="M 331 137.292969 L 642 137.292969 L 642 450.792969 L 331 450.792969 Z M 331 137.292969 " clip-rule="nonzero"/></clipPath></defs><g clip-path="url(#cbe086b99c)"><g clip-path="url(#45ad473f3b)"><path fill="url(#19a979d43a)" d="M 219 26.871094 L 219 561 L 753.128906 561 L 753.128906 26.871094 Z M 219 26.871094 " fill-rule="nonzero"/></g></g><g clip-path="url(#7d15abfda1)"><path fill="#ffffff" d="M 400.824219 223.117188 C 400.824219 221.714844 400.859375 220.3125 400.929688 218.914062 C 401 217.515625 401.105469 216.117188 401.246094 214.722656 C 401.382812 213.328125 401.554688 211.9375 401.761719 210.550781 C 401.96875 209.164062 402.210938 207.78125 402.484375 206.40625 C 402.757812 205.035156 403.066406 203.667969 403.410156 202.308594 C 403.75 200.945312 404.125 199.597656 404.53125 198.253906 C 404.941406 196.914062 405.378906 195.582031 405.855469 194.265625 C 406.328125 192.945312 406.832031 191.636719 407.367188 190.34375 C 407.90625 189.046875 408.472656 187.765625 409.074219 186.5 C 409.675781 185.234375 410.304688 183.980469 410.964844 182.746094 C 411.628906 181.507812 412.316406 180.289062 413.039062 179.089844 C 413.761719 177.886719 414.511719 176.703125 415.289062 175.535156 C 416.066406 174.371094 416.875 173.226562 417.710938 172.101562 C 418.546875 170.972656 419.40625 169.871094 420.296875 168.785156 C 421.1875 167.703125 422.101562 166.640625 423.042969 165.601562 C 423.984375 164.5625 424.953125 163.546875 425.941406 162.558594 C 426.933594 161.566406 427.949219 160.597656 428.988281 159.65625 C 430.027344 158.714844 431.085938 157.800781 432.171875 156.910156 C 433.253906 156.023438 434.359375 155.160156 435.484375 154.324219 C 436.609375 153.488281 437.753906 152.679688 438.921875 151.902344 C 440.085938 151.121094 441.269531 150.371094 442.472656 149.652344 C 443.671875 148.929688 444.890625 148.238281 446.128906 147.578125 C 447.363281 146.917969 448.617188 146.285156 449.882812 145.683594 C 451.148438 145.085938 452.429688 144.515625 453.726562 143.980469 C 455.019531 143.441406 456.328125 142.9375 457.648438 142.464844 C 458.964844 141.992188 460.296875 141.550781 461.636719 141.140625 C 462.980469 140.734375 464.328125 140.359375 465.6875 140.015625 C 467.046875 139.675781 468.414062 139.367188 469.789062 139.09375 C 471.164062 138.816406 472.542969 138.578125 473.929688 138.371094 C 475.316406 138.164062 476.707031 137.992188 478.101562 137.851562 C 479.5 137.710938 480.894531 137.609375 482.296875 137.539062 C 483.695312 137.46875 485.097656 137.429688 486.5 137.429688 C 599.738281 141.433594 599.960938 304.441406 486.789062 308.789062 C 485.382812 308.792969 483.980469 308.761719 482.578125 308.695312 C 481.171875 308.632812 479.773438 308.53125 478.375 308.398438 C 476.976562 308.261719 475.582031 308.09375 474.191406 307.890625 C 472.800781 307.6875 471.417969 307.449219 470.039062 307.179688 C 468.660156 306.910156 467.289062 306.605469 465.925781 306.265625 C 464.5625 305.925781 463.210938 305.554688 461.863281 305.152344 C 460.519531 304.746094 459.183594 304.308594 457.859375 303.835938 C 456.539062 303.367188 455.226562 302.863281 453.925781 302.328125 C 452.628906 301.792969 451.34375 301.226562 450.070312 300.628906 C 448.800781 300.03125 447.546875 299.402344 446.304688 298.742188 C 445.066406 298.082031 443.839844 297.394531 442.636719 296.671875 C 441.429688 295.953125 440.242188 295.203125 439.070312 294.425781 C 437.902344 293.648438 436.753906 292.839844 435.621094 292.007812 C 434.492188 291.171875 433.382812 290.308594 432.296875 289.421875 C 431.210938 288.53125 430.144531 287.617188 429.101562 286.675781 C 428.058594 285.734375 427.039062 284.765625 426.046875 283.773438 C 425.050781 282.785156 424.082031 281.769531 423.136719 280.730469 C 422.191406 279.6875 421.269531 278.628906 420.378906 277.542969 C 419.484375 276.457031 418.621094 275.351562 417.78125 274.226562 C 416.941406 273.097656 416.132812 271.953125 415.351562 270.785156 C 414.566406 269.617188 413.816406 268.433594 413.089844 267.230469 C 412.367188 266.023438 411.671875 264.804688 411.007812 263.566406 C 410.34375 262.328125 409.710938 261.074219 409.109375 259.804688 C 408.507812 258.535156 407.9375 257.253906 407.398438 255.957031 C 406.855469 254.660156 406.351562 253.351562 405.875 252.027344 C 405.398438 250.707031 404.957031 249.375 404.546875 248.03125 C 404.140625 246.6875 403.761719 245.332031 403.417969 243.96875 C 403.078125 242.609375 402.765625 241.238281 402.492188 239.859375 C 402.214844 238.484375 401.972656 237.101562 401.765625 235.710938 C 401.558594 234.320312 401.386719 232.929688 401.246094 231.53125 C 401.105469 230.132812 401.003906 228.730469 400.933594 227.328125 C 400.859375 225.925781 400.824219 224.523438 400.824219 223.117188 Z M 573.214844 308.832031 C 572.074219 308.128906 570.855469 307.605469 569.5625 307.257812 C 568.273438 306.910156 566.957031 306.753906 565.617188 306.789062 C 564.28125 306.820312 562.976562 307.042969 561.699219 307.453125 C 560.425781 307.863281 559.238281 308.449219 558.132812 309.203125 C 556.859375 310.238281 555.558594 311.246094 554.242188 312.226562 C 552.921875 313.207031 551.582031 314.15625 550.222656 315.078125 C 548.863281 316 547.484375 316.894531 546.085938 317.757812 C 544.6875 318.617188 543.273438 319.449219 541.839844 320.253906 C 540.40625 321.054688 538.953125 321.824219 537.488281 322.5625 C 536.019531 323.304688 534.539062 324.011719 533.039062 324.6875 C 531.542969 325.363281 530.03125 326.003906 528.503906 326.613281 C 526.980469 327.226562 525.441406 327.800781 523.890625 328.347656 C 522.339844 328.890625 520.78125 329.402344 519.207031 329.878906 C 517.636719 330.355469 516.054688 330.796875 514.460938 331.207031 C 512.871094 331.613281 511.273438 331.988281 509.664062 332.328125 C 508.058594 332.667969 506.445312 332.972656 504.824219 333.242188 C 503.203125 333.511719 501.578125 333.75 499.945312 333.949219 C 498.316406 334.148438 496.679688 334.3125 495.042969 334.445312 C 493.40625 334.574219 491.765625 334.667969 490.125 334.726562 C 488.480469 334.785156 486.839844 334.8125 485.195312 334.800781 C 483.554688 334.789062 481.910156 334.742188 480.269531 334.660156 C 478.628906 334.574219 476.992188 334.457031 475.355469 334.304688 C 473.71875 334.152344 472.089844 333.964844 470.460938 333.742188 C 468.832031 333.519531 467.210938 333.261719 465.59375 332.96875 C 463.976562 332.675781 462.367188 332.347656 460.765625 331.984375 C 459.164062 331.621094 457.570312 331.226562 455.984375 330.792969 C 454.398438 330.363281 452.824219 329.898438 451.257812 329.398438 C 449.691406 328.902344 448.140625 328.367188 446.597656 327.804688 C 445.054688 327.238281 443.523438 326.640625 442.007812 326.007812 C 440.492188 325.375 438.988281 324.710938 437.5 324.015625 C 436.011719 323.320312 434.539062 322.589844 433.082031 321.832031 C 431.625 321.070312 430.1875 320.28125 428.765625 319.457031 C 427.34375 318.636719 425.9375 317.785156 424.550781 316.902344 C 423.164062 316.019531 421.800781 315.109375 420.453125 314.167969 C 419.105469 313.226562 417.78125 312.257812 416.476562 311.257812 C 415.171875 310.261719 413.886719 309.234375 412.628906 308.179688 C 411.675781 307.742188 410.6875 307.425781 409.65625 307.230469 C 408.628906 307.03125 407.59375 306.960938 406.546875 307.015625 C 405.5 307.070312 404.476562 307.25 403.476562 307.554688 C 402.472656 307.859375 401.523438 308.277344 400.621094 308.8125 C 397.988281 310.5625 395.410156 312.394531 392.890625 314.304688 C 390.371094 316.214844 387.914062 318.199219 385.515625 320.261719 C 383.117188 322.324219 380.785156 324.457031 378.519531 326.660156 C 376.25 328.867188 374.054688 331.140625 371.929688 333.480469 C 369.800781 335.820312 367.75 338.226562 365.773438 340.691406 C 363.792969 343.160156 361.894531 345.683594 360.070312 348.269531 C 358.25 350.855469 356.507812 353.492188 354.847656 356.183594 C 353.1875 358.875 351.609375 361.613281 350.121094 364.402344 C 348.628906 367.191406 347.222656 370.023438 345.90625 372.898438 C 344.589844 375.773438 343.363281 378.6875 342.226562 381.636719 C 341.089844 384.589844 340.042969 387.570312 339.089844 390.585938 C 338.136719 393.601562 337.277344 396.644531 336.511719 399.710938 C 335.746094 402.777344 335.074219 405.867188 334.496094 408.976562 C 333.921875 412.085938 333.441406 415.210938 333.058594 418.351562 C 332.675781 421.488281 332.390625 424.636719 332.199219 427.792969 C 332.011719 430.949219 331.917969 434.109375 331.925781 437.269531 C 331.921875 438.136719 332.007812 438.992188 332.175781 439.839844 C 332.34375 440.6875 332.59375 441.511719 332.925781 442.308594 C 333.253906 443.109375 333.660156 443.867188 334.140625 444.585938 C 334.621094 445.304688 335.167969 445.96875 335.777344 446.582031 C 336.390625 447.191406 337.054688 447.738281 337.773438 448.21875 C 338.492188 448.699219 339.25 449.105469 340.046875 449.433594 C 340.847656 449.765625 341.671875 450.015625 342.519531 450.183594 C 343.367188 450.351562 344.222656 450.433594 345.085938 450.433594 L 628.347656 450.433594 C 629.210938 450.433594 630.066406 450.351562 630.914062 450.183594 C 631.761719 450.015625 632.585938 449.765625 633.386719 449.433594 C 634.183594 449.105469 634.941406 448.699219 635.660156 448.21875 C 636.378906 447.738281 637.046875 447.191406 637.65625 446.582031 C 638.269531 445.96875 638.8125 445.304688 639.292969 444.585938 C 639.773438 443.867188 640.179688 443.109375 640.511719 442.308594 C 640.839844 441.511719 641.089844 440.6875 641.257812 439.839844 C 641.425781 438.992188 641.511719 438.136719 641.511719 437.269531 C 641.507812 434.117188 641.410156 430.964844 641.214844 427.816406 C 641.019531 424.664062 640.730469 421.523438 640.34375 418.394531 C 639.957031 415.261719 639.476562 412.144531 638.898438 409.042969 C 638.324219 405.941406 637.652344 402.859375 636.886719 399.796875 C 636.125 396.734375 635.265625 393.699219 634.316406 390.691406 C 633.367188 387.683594 632.328125 384.707031 631.195312 381.761719 C 630.0625 378.816406 628.84375 375.90625 627.535156 373.035156 C 626.226562 370.164062 624.832031 367.335938 623.347656 364.550781 C 621.867188 361.765625 620.304688 359.027344 618.65625 356.335938 C 617.007812 353.644531 615.277344 351.007812 613.46875 348.421875 C 611.660156 345.835938 609.773438 343.308594 607.808594 340.839844 C 605.84375 338.371094 603.808594 335.960938 601.699219 333.617188 C 599.585938 331.269531 597.40625 328.992188 595.15625 326.78125 C 592.90625 324.566406 590.59375 322.425781 588.214844 320.355469 C 585.832031 318.28125 583.390625 316.285156 580.890625 314.363281 C 578.386719 312.441406 575.828125 310.597656 573.214844 308.832031 Z M 573.214844 308.832031 " fill-opacity="1" fill-rule="nonzero"/></g></svg>