<svg xmlns="http://www.w3.org/2000/svg" xmlns:xlink="http://www.w3.org/1999/xlink" width="1280" zoomAndPan="magnify" viewBox="0 0 960 599.999999" height="800" preserveAspectRatio="xMidYMid meet" version="1.0"><defs><clipPath id="a2b0c2a750"><path d="M 314.507812 105.933594 L 645.257812 105.933594 L 645.257812 465.933594 L 314.507812 465.933594 Z M 314.507812 105.933594 " clip-rule="nonzero"/></clipPath></defs><g clip-path="url(#a2b0c2a750)"><path fill="#98e8cd" d="M 645.46875 433.421875 L 645.46875 429.789062 C 645.46875 407.457031 641.089844 385.789062 632.457031 365.375 C 624.121094 345.667969 612.191406 327.976562 597.003906 312.785156 C 581.816406 297.59375 564.121094 285.667969 544.414062 277.332031 C 543.117188 276.785156 541.8125 276.257812 540.503906 275.742188 C 542.980469 273.714844 545.371094 271.554688 547.65625 269.269531 C 556.4375 260.488281 563.335938 250.257812 568.15625 238.859375 C 573.148438 227.054688 575.683594 214.519531 575.683594 201.613281 C 575.683594 188.703125 573.148438 176.171875 568.15625 164.363281 C 563.335938 152.96875 556.4375 142.738281 547.65625 133.957031 C 538.875 125.175781 528.644531 118.277344 517.25 113.457031 C 505.441406 108.464844 492.910156 105.929688 480 105.929688 C 467.09375 105.929688 454.558594 108.464844 442.75 113.457031 C 431.355469 118.277344 421.125 125.175781 412.34375 133.957031 C 403.5625 142.738281 396.667969 152.96875 391.847656 164.363281 C 386.851562 176.171875 384.320312 188.703125 384.320312 201.613281 C 384.320312 214.519531 386.851562 227.054688 391.847656 238.859375 C 396.667969 250.257812 403.5625 260.488281 412.34375 269.269531 C 414.632812 271.554688 417.019531 273.710938 419.5 275.738281 C 418.1875 276.257812 416.882812 276.785156 415.585938 277.332031 C 395.882812 285.667969 378.1875 297.59375 363 312.785156 C 347.808594 327.976562 335.882812 345.667969 327.546875 365.375 C 318.914062 385.789062 314.535156 407.457031 314.535156 429.789062 L 314.535156 433.421875 C 314.535156 450.40625 327.570312 464.402344 344.160156 465.933594 L 618.089844 465.648438 L 618.191406 465.636719 C 621.039062 465.34375 623.804688 464.496094 626.328125 463.144531 C 637.609375 457.996094 645.46875 446.609375 645.46875 433.421875 Z M 409.480469 231.402344 C 405.488281 221.96875 403.464844 211.945312 403.464844 201.613281 C 403.464844 191.28125 405.488281 181.257812 409.480469 171.820312 C 413.335938 162.707031 418.851562 154.523438 425.882812 147.492188 C 432.910156 140.464844 441.097656 134.945312 450.210938 131.089844 C 459.644531 127.101562 469.667969 125.078125 480 125.078125 C 490.332031 125.078125 500.355469 127.101562 509.792969 131.089844 C 518.90625 134.945312 527.089844 140.464844 534.121094 147.492188 C 541.148438 154.523438 546.667969 162.707031 550.523438 171.820312 C 554.511719 181.257812 556.535156 191.28125 556.535156 201.613281 C 556.535156 211.945312 554.511719 221.96875 550.523438 231.402344 C 546.667969 240.515625 541.148438 248.699219 534.121094 255.730469 C 527.089844 262.757812 518.90625 268.277344 509.792969 272.132812 C 500.355469 276.121094 490.332031 278.148438 480 278.148438 C 469.667969 278.148438 459.644531 276.121094 450.210938 272.132812 C 441.097656 268.277344 432.910156 262.757812 425.882812 255.730469 C 418.851562 248.699219 413.335938 240.515625 409.480469 231.402344 Z M 626.320312 433.421875 C 626.320312 440.871094 620.261719 446.929688 612.8125 446.929688 L 347.1875 446.929688 C 339.738281 446.929688 333.679688 440.871094 333.679688 433.421875 L 333.679688 429.789062 C 333.679688 410.035156 337.546875 390.871094 345.179688 372.832031 C 352.546875 355.40625 363.097656 339.761719 376.535156 326.320312 C 389.972656 312.886719 405.621094 302.335938 423.046875 294.964844 C 426.886719 293.339844 430.832031 291.867188 434.773438 290.585938 C 436.148438 290.136719 437.546875 289.707031 438.933594 289.300781 C 439.449219 289.152344 439.9375 288.957031 440.40625 288.734375 C 441.183594 289.085938 441.964844 289.429688 442.75 289.765625 C 454.558594 294.761719 467.09375 297.292969 480 297.292969 C 492.90625 297.292969 505.441406 294.757812 517.25 289.765625 C 518.035156 289.429688 518.816406 289.085938 519.59375 288.734375 C 520.0625 288.957031 520.554688 289.152344 521.070312 289.300781 C 526.429688 290.867188 531.773438 292.773438 536.957031 294.964844 C 554.378906 302.335938 570.027344 312.886719 583.464844 326.320312 C 596.902344 339.761719 607.453125 355.40625 614.820312 372.832031 C 622.453125 390.871094 626.320312 410.035156 626.320312 429.785156 Z M 626.320312 433.421875 " fill-opacity="1" fill-rule="nonzero"/></g></svg>