<svg xmlns="http://www.w3.org/2000/svg" xmlns:xlink="http://www.w3.org/1999/xlink" width="500" zoomAndPan="magnify" viewBox="0 0 375 374.999991" height="500" preserveAspectRatio="xMidYMid meet" version="1.0"><defs><clipPath id="9c4e83c77b"><path d="M 28.304688 28.304688 L 337.5 28.304688 L 337.5 337.5 L 28.304688 337.5 Z M 28.304688 28.304688 " clip-rule="nonzero"/></clipPath><clipPath id="d682d35274"><path d="M 182.902344 28.304688 C 97.519531 28.304688 28.304688 97.519531 28.304688 182.902344 C 28.304688 268.285156 97.519531 337.5 182.902344 337.5 C 268.285156 337.5 337.5 268.285156 337.5 182.902344 C 337.5 97.519531 268.285156 28.304688 182.902344 28.304688 Z M 182.902344 28.304688 " clip-rule="nonzero"/></clipPath><clipPath id="afa6862240"><path d="M 112.5 181 L 262.5 181 L 262.5 255.28125 L 112.5 255.28125 Z M 112.5 181 " clip-rule="nonzero"/></clipPath><clipPath id="5a9a749c79"><path d="M 112.5 119.53125 L 262.5 119.53125 L 262.5 182 L 112.5 182 Z M 112.5 119.53125 " clip-rule="nonzero"/></clipPath></defs><g clip-path="url(#9c4e83c77b)"><g clip-path="url(#d682d35274)"><path fill="#302b3b" d="M 28.304688 28.304688 L 337.5 28.304688 L 337.5 337.5 L 28.304688 337.5 Z M 28.304688 28.304688 " fill-opacity="1" fill-rule="nonzero"/></g></g><g clip-path="url(#afa6862240)"><path fill="#896dd5" d="M 262.457031 240.644531 L 262.457031 181.785156 C 261.660156 182.5625 260.796875 183.308594 259.914062 183.988281 C 259.097656 184.617188 258.25 185.191406 257.367188 185.734375 C 254.46875 187.5 251.246094 188.703125 247.871094 189.230469 C 243.324219 189.925781 238.625 189.652344 234.027344 189.652344 L 201.527344 189.652344 C 201.410156 189.652344 201.289062 189.652344 201.171875 189.636719 L 201.171875 191.742188 C 201.171875 191.996094 201.1875 192.234375 201.171875 192.488281 C 201.105469 193.859375 200.085938 194.878906 198.710938 194.945312 C 196.285156 195.066406 193.828125 194.945312 191.382812 194.945312 L 179.542969 194.945312 C 178.511719 194.945312 177.476562 194.964844 176.441406 194.945312 C 174.898438 194.914062 173.828125 193.878906 173.8125 192.316406 C 173.792969 191.433594 173.792969 190.535156 173.792969 189.652344 C 173.691406 189.671875 173.574219 189.671875 173.472656 189.671875 C 173.402344 189.671875 173.320312 189.671875 173.25 189.671875 C 168.636719 189.738281 164.007812 189.671875 159.394531 189.671875 L 138.785156 189.671875 C 133.695312 189.671875 128.488281 189.992188 123.566406 188.414062 C 121.515625 187.753906 119.515625 186.855469 117.632812 185.753906 C 116.75 185.226562 115.902344 184.667969 115.085938 184.054688 C 114.1875 183.378906 113.339844 182.648438 112.542969 181.867188 L 112.542969 246.019531 C 112.542969 246.496094 112.527344 246.96875 112.558594 247.445312 C 112.898438 251.921875 116.546875 255.382812 121.039062 255.453125 C 122.144531 255.46875 123.230469 255.453125 124.332031 255.453125 L 249.363281 255.453125 C 250.820312 255.453125 252.296875 255.453125 253.753906 255.453125 C 258.707031 255.433594 262.441406 251.535156 262.457031 246.632812 C 262.457031 244.597656 262.457031 242.628906 262.457031 240.644531 Z M 262.457031 240.644531 " fill-opacity="1" fill-rule="nonzero"/></g><g clip-path="url(#5a9a749c79)"><path fill="#896dd5" d="M 262.421875 155.542969 L 262.421875 149.707031 C 262.101562 145.261719 258.472656 141.769531 253.960938 141.703125 C 253.652344 141.703125 253.367188 141.703125 253.058594 141.703125 L 216.691406 141.703125 L 216.691406 129.03125 C 216.691406 126.453125 215.964844 124.007812 214.097656 122.144531 C 212.351562 120.378906 209.992188 119.566406 207.53125 119.546875 C 205.3125 119.546875 203.105469 119.546875 200.882812 119.546875 L 168.398438 119.546875 C 167.976562 119.546875 167.550781 119.53125 167.144531 119.546875 C 162.277344 119.648438 158.441406 123.5 158.324219 128.367188 C 158.222656 132.796875 158.273438 137.257812 158.308594 141.703125 L 122.855469 141.703125 C 122.328125 141.703125 121.820312 141.703125 121.296875 141.703125 C 119.023438 141.703125 116.902344 142.480469 115.222656 144.042969 C 113.59375 145.570312 112.730469 147.65625 112.59375 149.84375 L 112.59375 158.070312 C 112.59375 159.257812 112.59375 160.429688 112.59375 161.613281 C 112.59375 162.125 112.59375 162.617188 112.628906 163.125 C 112.644531 163.480469 112.679688 163.820312 112.710938 164.175781 C 112.710938 164.226562 112.730469 164.277344 112.730469 164.328125 C 112.8125 164.820312 112.882812 165.3125 112.984375 165.789062 C 113.238281 166.976562 113.613281 168.144531 114.035156 169.28125 C 114.035156 169.300781 114.035156 169.300781 114.050781 169.316406 C 114.050781 169.332031 114.050781 169.332031 114.070312 169.351562 C 114.085938 169.382812 114.085938 169.402344 114.101562 169.433594 C 114.203125 169.671875 114.324219 169.910156 114.441406 170.148438 C 114.664062 170.589844 114.882812 171.011719 115.121094 171.4375 C 115.15625 171.503906 115.1875 171.570312 115.238281 171.625 C 115.5625 172.164062 115.902344 172.707031 116.273438 173.21875 C 116.425781 173.4375 116.597656 173.625 116.734375 173.84375 C 116.714844 173.8125 116.699219 173.777344 116.679688 173.742188 C 116.714844 173.792969 116.734375 173.828125 116.765625 173.863281 C 117.054688 174.21875 117.359375 174.574219 117.683594 174.914062 C 118.175781 175.441406 118.699219 175.949219 119.242188 176.441406 C 119.464844 176.644531 119.683594 176.832031 119.921875 177.015625 C 119.957031 177.050781 120.007812 177.085938 120.058594 177.117188 C 120.34375 177.304688 120.464844 177.375 120.480469 177.390625 C 120.464844 177.390625 120.378906 177.324219 120.261719 177.253906 C 120.617188 177.492188 120.957031 177.761719 121.3125 178 C 122.261719 178.613281 123.246094 179.15625 124.265625 179.628906 C 125.246094 179.933594 124.722656 179.816406 124.398438 179.695312 C 124.433594 179.714844 124.449219 179.714844 124.484375 179.730469 C 124.773438 179.832031 125.042969 179.953125 125.332031 180.035156 C 125.875 180.222656 126.417969 180.394531 126.960938 180.546875 C 127.554688 180.699219 128.148438 180.832031 128.757812 180.953125 C 128.960938 180.988281 129.164062 181.019531 129.371094 181.054688 C 129.488281 181.070312 129.605469 181.070312 129.707031 181.089844 C 131.21875 181.222656 132.746094 181.191406 134.253906 181.191406 L 173.523438 181.191406 C 173.640625 181.191406 173.761719 181.191406 173.878906 181.207031 L 173.878906 177.117188 C 173.878906 175.929688 173.710938 174.660156 174.675781 173.777344 C 175.507812 173.015625 176.59375 173.132812 177.628906 173.132812 L 198.152344 173.132812 C 198.355469 173.132812 198.578125 173.132812 198.78125 173.132812 C 200.101562 173.199219 201.035156 174.117188 201.207031 175.390625 C 201.222656 175.457031 201.222656 175.523438 201.222656 175.59375 C 201.222656 175.625 201.222656 175.660156 201.222656 175.695312 L 201.222656 181.222656 C 201.339844 181.207031 201.460938 181.207031 201.578125 181.207031 L 201.800781 181.207031 C 206.292969 181.121094 210.789062 181.207031 215.269531 181.207031 L 243.222656 181.207031 C 243.953125 181.207031 244.664062 181.171875 245.394531 181.105469 C 245.527344 181.089844 245.679688 181.070312 245.816406 181.054688 C 245.988281 181.019531 246.171875 181.003906 246.34375 180.96875 C 246.9375 180.851562 247.546875 180.730469 248.140625 180.5625 C 248.734375 180.410156 249.3125 180.222656 249.886719 180.019531 C 250.160156 179.917969 250.414062 179.816406 250.683594 179.714844 C 251.738281 179.222656 252.738281 178.695312 253.703125 178.070312 C 254.027344 177.867188 254.332031 177.660156 254.636719 177.441406 C 254.722656 177.375 254.992188 177.167969 255.113281 177.085938 C 255.113281 177.085938 255.128906 177.066406 255.128906 177.066406 C 255.144531 177.050781 255.179688 177.035156 255.179688 177.015625 C 255.417969 176.832031 255.636719 176.628906 255.859375 176.441406 C 256.402344 175.964844 256.910156 175.457031 257.417969 174.914062 C 257.742188 174.574219 258.046875 174.234375 258.335938 173.863281 C 258.351562 173.828125 258.386719 173.8125 258.402344 173.777344 C 258.539062 173.558594 258.726562 173.335938 258.878906 173.132812 C 259.199219 172.675781 259.503906 172.199219 259.777344 171.726562 C 259.828125 171.625 259.894531 171.519531 259.945312 171.4375 C 260.203125 170.980469 260.457031 170.519531 260.675781 170.046875 C 260.777344 169.824219 260.898438 169.585938 261 169.367188 C 261.421875 168.246094 261.796875 167.109375 262.050781 165.921875 C 262.136719 165.550781 262.203125 165.160156 262.269531 164.789062 C 262.269531 164.789062 262.269531 164.769531 262.269531 164.769531 C 262.269531 164.769531 262.269531 164.753906 262.269531 164.753906 C 262.269531 164.734375 262.269531 164.71875 262.269531 164.703125 C 262.269531 164.683594 262.269531 164.667969 262.289062 164.652344 C 262.304688 164.480469 262.339844 164.261719 262.355469 164.125 C 262.390625 163.820312 262.40625 163.5 262.421875 163.191406 C 262.441406 162.699219 262.457031 162.207031 262.472656 161.71875 L 262.472656 158.359375 C 262.441406 157.359375 262.421875 156.457031 262.421875 155.542969 Z M 208.261719 128.4375 C 208.261719 128.453125 208.261719 128.46875 208.277344 128.46875 C 208.277344 128.46875 208.277344 128.488281 208.277344 128.488281 C 208.296875 128.570312 208.3125 128.625 208.277344 128.539062 C 208.261719 128.554688 208.226562 128.519531 208.210938 128.488281 C 208.296875 132.898438 208.261719 137.308594 208.226562 141.71875 L 166.789062 141.71875 L 166.789062 129.386719 C 166.789062 129.097656 166.789062 128.792969 166.789062 128.503906 C 166.738281 128.570312 166.703125 128.589844 166.6875 128.570312 C 166.652344 128.625 166.652344 128.519531 166.671875 128.402344 C 166.585938 128.503906 166.535156 128.519531 166.671875 128.367188 C 166.671875 128.300781 166.6875 128.25 166.703125 128.183594 C 166.703125 128.183594 166.703125 128.183594 166.6875 128.183594 C 166.6875 128.183594 166.6875 128.183594 166.703125 128.183594 C 166.722656 128.148438 166.722656 128.097656 166.738281 128.0625 C 166.621094 128.0625 166.652344 128.03125 166.753906 128.011719 C 166.773438 127.925781 166.804688 127.894531 166.804688 127.996094 C 166.839844 127.996094 166.875 127.980469 166.925781 127.980469 C 166.925781 127.960938 166.925781 127.960938 166.925781 127.945312 C 166.925781 127.945312 166.925781 127.960938 166.925781 127.960938 C 166.992188 127.945312 167.042969 127.945312 167.109375 127.925781 C 167.179688 127.859375 167.210938 127.84375 167.230469 127.824219 C 167.210938 127.84375 167.179688 127.875 167.128906 127.925781 C 167.265625 127.910156 167.367188 127.910156 167.316406 127.945312 C 167.332031 127.960938 167.316406 127.996094 167.246094 128.046875 C 167.382812 128.046875 167.519531 128.046875 167.652344 128.046875 L 206.34375 128.046875 C 206.855469 128.046875 207.347656 128.03125 207.855469 128.046875 C 207.820312 128.03125 207.804688 128.03125 207.789062 128.011719 C 207.667969 127.945312 207.703125 127.925781 207.789062 127.910156 C 207.734375 127.875 207.753906 127.875 207.804688 127.910156 C 207.820312 127.910156 207.855469 127.910156 207.871094 127.910156 C 207.804688 127.859375 207.769531 127.824219 207.753906 127.808594 C 207.753906 127.808594 207.804688 127.84375 207.890625 127.910156 C 207.957031 127.910156 208.023438 127.925781 208.09375 127.925781 C 208.125 127.925781 208.144531 127.945312 208.175781 127.945312 C 208.175781 127.910156 208.175781 127.894531 208.195312 127.894531 C 208.195312 127.894531 208.210938 127.910156 208.210938 127.945312 C 208.363281 127.980469 208.433594 128.011719 208.210938 128.03125 C 208.210938 128.0625 208.210938 128.082031 208.210938 128.113281 C 208.261719 128.132812 208.296875 128.148438 208.3125 128.148438 C 208.296875 128.148438 208.246094 128.148438 208.210938 128.132812 L 208.210938 128.148438 C 208.226562 128.164062 208.261719 128.183594 208.296875 128.214844 C 208.277344 128.214844 208.261719 128.199219 208.226562 128.183594 C 208.226562 128.214844 208.246094 128.234375 208.246094 128.265625 C 208.296875 128.335938 208.363281 128.402344 208.414062 128.4375 C 208.363281 128.402344 208.3125 128.351562 208.261719 128.316406 C 208.261719 128.386719 208.261719 128.402344 208.261719 128.4375 Z M 208.261719 128.4375 " fill-opacity="1" fill-rule="nonzero"/></g></svg>